<svg width="95" height="104" viewBox="0 0 95 104" fill="none" xmlns="http://www.w3.org/2000/svg">
<g id="blocks-abc 1" clip-path="url(#clip0_30_6562)">
<path id="Vector" d="M92.6456 61.6706V91.752C92.6456 97.0925 88.6903 101.423 83.8119 101.423H56.3313C51.4529 101.423 47.5 97.0925 47.5 91.752V61.6706C47.5 56.33 51.4531 52 56.3313 52H61.2403H83.8119C88.6903 52 92.6456 56.33 92.6456 61.6706Z" fill="#F0C419"/>
<path id="Vector_2" d="M70.0741 12.248V42.3294C70.0741 47.6699 66.1188 51.9999 61.2404 51.9999H56.3314H38.6664H33.7598C28.8814 51.9999 24.9285 47.6699 24.9285 42.3294V12.248C24.9285 6.90741 28.8815 2.57739 33.7598 2.57739H61.2404C66.1186 2.57739 70.0741 6.90741 70.0741 12.248Z" fill="#FB7B76"/>
<g id="Group">
<path id="Vector_3" d="M47.5001 61.6706V91.752C47.5001 97.0925 43.5448 101.423 38.6664 101.423H11.1882C6.3098 101.423 2.35449 97.0925 2.35449 91.752V61.6706C2.35449 56.33 6.3098 52 11.1882 52H33.7598H38.6664C43.5448 52 47.5001 56.33 47.5001 61.6706ZM31.3796 70.1504C31.3796 66.5265 28.6957 63.5883 25.3853 63.5883H18.475V76.7126V89.8345H25.3851C27.0402 89.8345 28.5378 89.1 29.623 87.9117C30.7085 86.726 31.3794 85.0842 31.3794 83.2723C31.3794 79.6484 28.6955 76.7128 25.3851 76.7128C27.0402 76.7128 28.5378 75.9783 29.623 74.79C30.7085 73.6015 31.3796 71.9623 31.3796 70.1504Z" fill="#97C2F7"/>
<path id="Vector_4" d="M25.3854 63.5884C28.6958 63.5884 31.3797 66.5266 31.3797 70.1505C31.3797 71.9624 30.7088 73.6018 29.6233 74.7899C28.5379 75.9782 27.0405 76.7127 25.3854 76.7127H18.4751V63.5884H25.3854Z" fill="#97C2F7"/>
<path id="Vector_5" d="M25.3854 76.7126C28.6958 76.7126 31.3797 79.6484 31.3797 83.2721C31.3797 85.084 30.7088 86.7259 29.6233 87.9115C28.5379 89.0998 27.0405 89.8343 25.3854 89.8343H18.4751V76.7124L25.3854 76.7126Z" fill="#97C2F7"/>
</g>
<path id="Vector_6" d="M11.1881 104H38.6663C42.2544 104 45.451 102.139 47.4998 99.2552C49.5481 102.139 52.7439 104 56.3313 104H83.8119C89.9811 104 95 98.5057 95 91.752V61.6706C95 54.9169 89.9811 49.4225 83.8119 49.4225H70.3525C71.6573 47.4193 72.4284 44.9719 72.4284 42.3294V12.248C72.4284 5.49433 67.4096 0 61.2403 0C59.94 0 58.8859 1.15395 58.8859 2.57745C58.8859 4.00095 59.94 5.15491 61.2403 5.15491C64.813 5.15491 67.7196 8.33686 67.7196 12.248V42.3294C67.7196 46.2408 64.813 49.4225 61.2403 49.4225H33.7597C30.1883 49.4225 27.2828 46.2406 27.2828 42.3294V12.248C27.2828 8.33666 30.1883 5.15491 33.7597 5.15491H46.5582C47.8585 5.15491 48.9126 4.00095 48.9126 2.57745C48.9126 1.15395 47.8587 0 46.5582 0H33.7597C27.5919 0 22.574 5.49433 22.574 12.248V42.3294C22.574 44.9719 23.3448 47.4193 24.6493 49.4225H11.1881C5.01886 49.4225 0 54.9169 0 61.6706V91.752C0 98.5057 5.01886 104 11.1881 104ZM90.2912 61.6706V91.752C90.2912 95.6631 87.3846 98.8451 83.8119 98.8451H56.3313C52.7599 98.8451 49.8544 95.6631 49.8544 91.752V61.6706C49.8544 57.7592 52.7599 54.5775 56.3313 54.5775H61.2403H83.8119C87.3848 54.5775 90.2912 57.7594 90.2912 61.6706ZM4.70881 61.6706C4.70881 57.7592 7.6154 54.5775 11.1881 54.5775H33.7597H38.6663C42.2392 54.5775 45.1456 57.7594 45.1456 61.6706V91.752C45.1456 95.6631 42.239 98.8451 38.6663 98.8451H11.1881C7.61521 98.8451 4.70881 95.6631 4.70881 91.752V61.6706Z" fill="black"/>
<path id="Vector_7" d="M53.3271 5.15491H54.2689C55.5692 5.15491 56.6233 4.00095 56.6233 2.57745C56.6233 1.15395 55.5692 0 54.2689 0H53.3271C52.0267 0 50.9727 1.15395 50.9727 2.57745C50.9727 4.00095 52.0267 5.15491 53.3271 5.15491Z" fill="black"/>
<path id="Vector_8" d="M49.0793 12.2569C49.0518 12.2298 49.0248 12.2022 48.9962 12.1766C48.9654 12.1488 48.9331 12.1228 48.9008 12.0968C48.8713 12.073 48.8424 12.0495 48.8121 12.0269C48.7796 12.0032 48.7459 11.981 48.7123 11.9589C48.6791 11.9371 48.6459 11.9156 48.6119 11.8955C48.5798 11.8766 48.547 11.8593 48.5138 11.8421C48.4752 11.822 48.4366 11.8027 48.3971 11.7846C48.3828 11.7781 48.3692 11.77 48.3547 11.7637C48.3366 11.756 48.3182 11.7511 48.3002 11.7438C48.2594 11.7275 48.2186 11.7125 48.177 11.6989C48.1427 11.6875 48.1082 11.6769 48.0736 11.6674C48.0343 11.6566 47.9948 11.6471 47.9547 11.6383C47.918 11.6304 47.8812 11.6231 47.8445 11.6172C47.8059 11.6111 47.7673 11.6061 47.7283 11.6018C47.6905 11.5977 47.6528 11.5943 47.6152 11.5922C47.5766 11.5902 47.538 11.5896 47.499 11.5896C47.4612 11.5896 47.4235 11.5902 47.3858 11.5922C47.3472 11.5943 47.3086 11.5979 47.2697 11.602C47.2318 11.6061 47.1938 11.6107 47.1561 11.617C47.1186 11.6231 47.0812 11.6304 47.0439 11.6388C47.0045 11.6473 46.9657 11.6568 46.9268 11.6674C46.8919 11.6769 46.857 11.6875 46.8225 11.6991C46.7811 11.7127 46.7403 11.7277 46.6997 11.744C46.6815 11.7513 46.6631 11.7562 46.6451 11.7639C46.6305 11.77 46.6171 11.7781 46.6028 11.7848C46.5633 11.8027 46.5243 11.8222 46.4857 11.8423C46.4527 11.8596 46.4199 11.8768 46.3878 11.8957C46.3536 11.9158 46.3204 11.9371 46.2872 11.9591C46.2536 11.9812 46.2198 12.0034 46.1874 12.0271C46.1573 12.0493 46.128 12.073 46.0989 12.097C46.0666 12.1232 46.0343 12.149 46.0035 12.1768C45.9749 12.2024 45.9476 12.2298 45.9204 12.2571C45.8916 12.2857 45.8627 12.3137 45.8354 12.3436C45.8079 12.3737 45.7818 12.4058 45.7554 12.4376C45.7309 12.4673 45.7064 12.4963 45.6834 12.5274C45.6575 12.5618 45.6335 12.5977 45.6092 12.6337C45.5881 12.6651 45.5665 12.6962 45.5469 12.7287C45.5248 12.7649 45.5042 12.8023 45.4838 12.8398C45.4643 12.8756 45.4446 12.9111 45.4268 12.9479C45.4094 12.9836 45.3932 13.0204 45.3771 13.0572C45.3589 13.0986 45.3418 13.1403 45.3255 13.1827C45.3194 13.199 45.3118 13.214 45.306 13.2304L35.9662 39.4766C35.4941 40.803 36.0938 42.2972 37.3052 42.814C37.5862 42.9338 37.8751 42.9905 38.1591 42.9905C39.1012 42.9905 39.9909 42.3671 40.3534 41.3478L42.5748 35.1052H52.424L54.6453 41.3478C55.0079 42.3669 55.8974 42.9905 56.8396 42.9905C57.1239 42.9905 57.413 42.9338 57.6935 42.814C58.9051 42.2972 59.5048 40.803 59.0326 39.4766L49.6929 13.2302C49.687 13.2138 49.6796 13.1988 49.6734 13.1825C49.6575 13.1403 49.64 13.0984 49.622 13.0572C49.6061 13.02 49.5898 12.9834 49.5723 12.9477C49.5545 12.9111 49.5352 12.8756 49.5155 12.84C49.4951 12.8025 49.4743 12.7647 49.4523 12.7287C49.4324 12.6962 49.4111 12.6651 49.3899 12.6337C49.3656 12.5979 49.3415 12.5618 49.3157 12.5274C49.2927 12.4968 49.2682 12.4677 49.2437 12.4381C49.2174 12.4062 49.1912 12.3741 49.1634 12.3438C49.1366 12.3137 49.1081 12.2853 49.0793 12.2569ZM44.4098 29.9499L47.4999 21.2659L50.59 29.9499H44.4098Z" fill="black"/>
<path id="Vector_9" d="M18.475 92.4118H25.3851C27.6143 92.4118 29.7106 91.461 31.2859 89.7363C32.8645 88.012 33.7338 85.7164 33.7338 83.2722C33.7338 80.7013 32.7569 78.3763 31.19 76.7143C31.2225 76.68 31.2558 76.6473 31.2878 76.6124C32.8653 74.8858 33.7338 72.5907 33.7338 70.1504C33.7338 65.1106 29.9888 61.0107 25.3851 61.0107H18.475C17.1747 61.0107 16.1206 62.1647 16.1206 63.5882V76.7125V89.8344C16.1206 91.2581 17.1747 92.4118 18.475 92.4118ZM29.0252 83.2722C29.0252 84.3372 28.6471 85.337 27.9585 86.0892C27.2705 86.8424 26.3569 87.2569 25.3853 87.2569H20.8296V79.29H25.3853C27.3922 79.2902 29.0252 81.0767 29.0252 83.2722ZM25.3853 66.1659C27.3922 66.1659 29.0252 67.9536 29.0252 70.1506C29.0252 71.2139 28.6463 72.2143 27.9585 72.9675C27.2705 73.7207 26.3569 74.1353 25.3853 74.1353H20.8296V66.1659H25.3853Z" fill="black"/>
<path id="Vector_10" d="M61.1084 82.5995C61.1084 88.0101 65.1305 92.4118 70.074 92.4118C75.0164 92.4118 79.0372 88.0101 79.0372 82.5995C79.0372 81.176 77.9831 80.022 76.6828 80.022C75.3825 80.022 74.3284 81.176 74.3284 82.5995C74.3284 85.1676 72.4199 87.2569 70.074 87.2569C67.7269 87.2569 65.8172 85.1676 65.8172 82.5995V70.8231C65.8172 68.255 67.7269 66.1657 70.074 66.1657C72.4199 66.1657 74.3284 68.255 74.3284 70.8231C74.3284 72.2466 75.3825 73.4006 76.6828 73.4006C77.9831 73.4006 79.0372 72.2466 79.0372 70.8231C79.0372 65.4125 75.0164 61.0107 70.074 61.0107C65.1303 61.0107 61.1084 65.4125 61.1084 70.8231V82.5995Z" fill="black"/>
</g>
<defs>
<clipPath id="clip0_30_6562">
<rect width="95" height="104" fill="white"/>
</clipPath>
</defs>
</svg>
