<?xml version="1.0" standalone="no"?>
<!DOCTYPE svg PUBLIC "-//W3C//DTD SVG 20010904//EN"
 "http://www.w3.org/TR/2001/REC-SVG-20010904/DTD/svg10.dtd">
<svg version="1.0" xmlns="http://www.w3.org/2000/svg"
 width="2000.000000pt" height="2000.000000pt" viewBox="0 0 2000.000000 2000.000000"
 preserveAspectRatio="xMidYMid meet">

<g transform="translate(0.000000,2000.000000) scale(0.100000,-0.100000)"
fill="#000000" stroke="none">
<path d="M11905 11969 c-3 -4 2 -6 10 -5 21 3 28 13 10 13 -9 0 -18 -4 -20 -8z"/>
<path d="M11860 11913 c-14 -21 -36 -48 -50 -61 -14 -13 0 -6 30 14 56 38 79
61 79 79 0 6 -6 2 -13 -7 -16 -22 -27 -23 -20 -3 10 25 0 17 -26 -22z"/>
<path d="M3880 11732 c0 -16 37 -34 58 -29 14 4 14 5 -2 6 -11 0 -28 8 -38 18
-10 9 -18 11 -18 5z"/>
<path d="M4000 11659 c0 -8 32 -29 44 -29 15 0 3 16 -19 27 -14 6 -25 7 -25 2z"/>
<path d="M4240 11663 c8 -3 24 -13 35 -22 20 -16 20 -16 1 7 -11 12 -26 22
-35 21 -14 0 -14 -1 -1 -6z"/>
<path d="M4196 11606 c21 -15 30 -14 19 3 -3 6 -14 11 -23 11 -13 0 -13 -2 4
-14z"/>
<path d="M4095 11590 c3 -5 16 -15 28 -21 22 -12 22 -12 3 10 -19 21 -43 30
-31 11z"/>
<path d="M11390 11580 c20 -13 33 -13 25 0 -3 6 -14 10 -23 10 -15 0 -15 -2
-2 -10z"/>
<path d="M4261 11571 c-10 -6 -10 -10 -1 -16 13 -8 24 -1 19 14 -3 6 -10 7
-18 2z"/>
<path d="M11360 11571 c0 -10 19 -25 25 -20 1 2 -3 10 -11 17 -8 7 -14 8 -14
3z"/>
<path d="M4200 11512 c25 -22 47 -38 50 -36 5 5 -44 48 -75 66 -11 6 0 -7 25
-30z"/>
<path d="M4310 11446 c0 -2 7 -6 15 -10 8 -3 15 -1 15 4 0 6 -7 10 -15 10 -8
0 -15 -2 -15 -4z"/>
<path d="M4610 11246 c0 -2 7 -7 16 -10 8 -3 12 -2 9 4 -6 10 -25 14 -25 6z"/>
<path d="M15510 11196 c0 -2 8 -10 18 -17 15 -13 16 -12 3 4 -13 16 -21 21
-21 13z"/>
<path d="M14735 10990 c-3 -6 1 -7 9 -4 18 7 21 14 7 14 -6 0 -13 -4 -16 -10z"/>
<path d="M15180 10869 c0 -5 5 -7 10 -4 6 3 10 8 10 11 0 2 -4 4 -10 4 -5 0
-10 -5 -10 -11z"/>
<path d="M8225 10860 c-7 -12 18 -24 37 -18 8 3 5 9 -9 16 -14 8 -24 9 -28 2z"/>
<path d="M8185 10824 c-11 -3 -31 -7 -44 -10 -24 -5 -24 -5 8 -25 17 -10 31
-25 29 -32 -5 -21 42 -77 65 -77 12 0 38 -14 57 -30 19 -17 50 -38 68 -47 17
-8 32 -19 32 -24 0 -5 24 -26 53 -48 28 -21 104 -89 167 -151 63 -61 131 -124
150 -138 19 -15 49 -40 66 -57 69 -66 93 -85 109 -85 9 0 13 -4 10 -10 -3 -6
5 -10 19 -10 18 0 24 -4 20 -15 -4 -10 0 -15 15 -15 11 0 36 -14 55 -31 21
-18 43 -29 53 -26 17 4 17 5 1 6 -10 0 -18 5 -18 11 0 5 3 9 8 9 22 -4 19 6
-19 57 -22 30 -38 58 -36 61 3 3 21 -7 40 -21 19 -14 37 -26 40 -26 13 0 77
-75 83 -97 3 -12 19 -28 35 -35 16 -7 29 -18 29 -25 0 -7 7 -10 15 -7 8 4 15
1 15 -5 0 -15 27 -14 32 1 7 19 -17 58 -57 92 -27 24 -36 40 -37 65 -2 58
-120 157 -278 234 -53 25 -104 55 -115 67 -11 12 -39 36 -63 52 -33 22 -41 34
-37 49 8 25 -52 64 -72 47 -9 -7 -21 -7 -40 0 -16 6 -40 13 -55 16 -37 8 -98
68 -98 96 0 12 -16 40 -35 61 -19 22 -35 43 -35 48 0 5 -21 22 -47 39 -48 30
-138 47 -188 36z"/>
<path d="M15818 10523 c6 -2 12 -11 12 -19 0 -9 5 -12 10 -9 13 8 -6 35 -24
34 -7 0 -6 -2 2 -6z"/>
<path d="M15750 10470 c0 -5 5 -10 10 -10 6 0 10 5 10 10 0 6 -4 10 -10 10 -5
0 -10 -4 -10 -10z"/>
<path d="M15658 10419 c-21 -11 -38 -22 -38 -24 0 -5 79 32 89 41 12 11 -18 1
-51 -17z"/>
<path d="M17020 10162 c-217 -109 -438 -216 -490 -239 -52 -22 -162 -71 -245
-108 -161 -72 -690 -286 -870 -353 -60 -22 -164 -62 -230 -87 -66 -26 -190
-71 -275 -101 -85 -30 -173 -62 -195 -71 -22 -8 -89 -33 -150 -53 -60 -21
-162 -57 -225 -80 -98 -35 -212 -76 -437 -157 -43 -15 -62 -30 -23 -18 12 4
26 2 33 -3 8 -7 22 -6 42 3 17 7 24 14 17 14 -7 1 -22 -4 -32 -9 -10 -6 -21
-6 -24 -2 -6 10 59 32 92 32 11 0 24 5 27 10 3 6 13 10 21 10 8 0 34 9 57 21
23 11 83 33 132 50 50 16 98 34 107 39 26 15 35 12 41 -10 4 -16 13 -20 49
-19 38 0 40 1 19 10 -13 5 -32 7 -41 4 -12 -4 -19 1 -23 15 -4 17 -2 18 14 9
31 -16 149 -13 191 5 21 9 38 12 40 6 4 -12 78 7 78 19 0 5 23 11 52 14 28 4
55 12 59 19 4 7 18 13 31 13 13 1 37 9 55 18 17 9 39 14 47 11 9 -3 26 0 39 9
23 15 99 28 91 15 -3 -4 8 -1 22 7 15 8 31 12 35 10 4 -3 10 2 13 11 4 11 13
14 31 10 16 -4 25 -2 25 5 0 6 7 9 15 6 8 -4 17 -2 20 3 4 6 22 10 41 10 19 0
34 4 34 9 0 5 9 11 20 14 13 3 18 1 13 -6 -4 -7 4 -5 17 4 14 8 45 21 70 29
25 7 49 16 54 18 5 3 27 5 50 6 26 0 46 7 56 19 8 10 33 20 55 24 22 3 48 13
59 22 10 9 19 15 20 13 3 -7 88 12 99 22 7 7 32 17 57 24 25 7 54 17 65 21 11
5 31 13 45 19 65 27 112 42 131 42 11 0 27 7 35 15 9 8 24 16 35 16 28 2 89
20 134 39 11 5 62 23 114 40 52 17 101 35 110 40 36 19 143 60 155 60 8 0 19
7 26 15 7 8 19 15 27 15 8 0 67 21 131 46 329 129 390 154 507 212 111 54 135
83 111 131 -9 16 -22 31 -31 34 -8 4 -15 11 -15 17 0 6 -18 29 -40 51 -42 43
-48 57 -28 77 7 7 10 12 8 12 -3 0 -183 -90 -400 -198z m-2143 -948 c-3 -3
-12 -4 -19 -1 -8 3 -5 6 6 6 11 1 17 -2 13 -5z m-180 -50 c-3 -3 -12 -4 -19
-1 -8 3 -5 6 6 6 11 1 17 -2 13 -5z m-47 -39 c7 -9 8 -15 2 -15 -5 0 -12 7
-16 15 -3 8 -4 15 -2 15 2 0 9 -7 16 -15z m47 9 c-3 -3 -12 -4 -19 -1 -8 3 -5
6 6 6 11 1 17 -2 13 -5z m-227 -49 c-14 -17 -40 -20 -40 -6 0 5 10 12 23 14
12 2 24 5 26 6 2 0 -2 -6 -9 -14z m70 6 c0 -14 -18 -23 -30 -16 -6 4 -8 11 -5
16 8 12 35 12 35 0z"/>
<path d="M15270 10240 c-8 -5 -10 -10 -5 -10 6 0 17 5 25 10 8 5 11 10 5 10
-5 0 -17 -5 -25 -10z"/>
<path d="M15981 10205 c-40 -19 -79 -35 -87 -35 -8 0 -14 -4 -14 -10 0 -16 11
-12 87 25 39 19 76 35 82 35 5 0 13 5 16 10 10 17 -7 11 -84 -25z"/>
<path d="M5755 10200 c-8 -13 12 -40 29 -40 6 0 3 7 -8 15 -10 7 -15 18 -11
24 3 6 4 11 1 11 -3 0 -8 -5 -11 -10z"/>
<path d="M5800 10176 c0 -2 7 -7 16 -10 8 -3 12 -2 9 4 -6 10 -25 14 -25 6z"/>
<path d="M5800 10147 c0 -8 7 -17 15 -21 8 -3 15 -2 15 3 0 5 -7 14 -15 21
-12 10 -15 10 -15 -3z"/>
<path d="M5847 10153 c-4 -3 -7 -16 -7 -29 0 -21 2 -21 30 -11 37 14 40 32 4
23 -21 -6 -25 -4 -21 8 7 17 4 20 -6 9z"/>
<path d="M17990 10123 c-8 -3 -125 -55 -260 -116 -664 -298 -769 -342 -1150
-487 -660 -252 -1682 -589 -2433 -801 -233 -66 -370 -110 -363 -116 2 -3 100
23 218 56 117 33 260 74 318 90 177 49 406 117 590 177 96 31 213 67 260 81
384 111 1031 333 1705 583 176 65 392 144 480 175 88 31 259 97 380 147 362
150 338 136 313 191 -13 26 -27 31 -58 20z"/>
<path d="M5918 10113 c6 -2 9 -9 6 -14 -3 -6 -11 -5 -20 2 -8 6 -17 9 -20 6
-9 -9 24 -39 38 -35 10 4 33 -12 78 -54 10 -9 21 -13 25 -10 4 4 11 -1 16 -11
6 -9 38 -31 72 -48 34 -17 70 -40 80 -50 10 -11 26 -19 36 -19 11 0 22 -7 25
-16 3 -8 10 -13 16 -9 5 3 20 -4 32 -15 32 -30 77 -52 93 -46 8 3 12 0 9 -7
-2 -7 13 -21 33 -32 21 -11 40 -22 43 -25 15 -15 71 -50 81 -50 6 0 22 -9 36
-20 14 -11 32 -20 39 -20 7 0 17 -6 21 -13 4 -7 26 -21 48 -32 22 -11 68 -41
102 -67 34 -27 67 -48 73 -48 6 0 8 -4 5 -10 -4 -6 4 -9 17 -7 14 1 22 -3 21
-10 -2 -7 2 -13 8 -13 6 0 48 -24 92 -53 45 -29 95 -59 110 -67 17 -8 26 -19
22 -28 -3 -9 1 -12 15 -7 12 4 20 2 20 -5 0 -6 4 -9 8 -6 5 3 22 -8 38 -25 15
-16 34 -27 41 -25 6 3 10 0 8 -7 -4 -10 54 -57 69 -57 3 0 18 -12 33 -26 15
-14 44 -34 63 -45 19 -10 53 -34 75 -54 22 -20 50 -38 63 -42 14 -3 21 -11 18
-19 -3 -8 -1 -14 4 -14 12 0 127 -78 136 -91 3 -5 9 -7 14 -4 4 3 11 -6 14
-20 4 -16 13 -25 26 -25 10 0 41 -21 67 -46 26 -25 60 -52 75 -60 15 -8 32
-23 38 -34 6 -11 15 -18 21 -15 5 4 9 -1 9 -10 0 -11 7 -14 28 -10 21 4 23 3
7 -3 -19 -9 -19 -9 3 -21 12 -7 26 -9 31 -6 5 3 11 -5 13 -17 2 -13 16 -29 33
-38 17 -8 31 -18 33 -21 1 -3 10 -15 18 -25 15 -18 15 -18 8 1 -3 11 -6 28 -6
37 1 21 -14 32 -23 18 -5 -8 -13 -6 -26 6 -22 20 -26 42 -4 24 9 -7 18 -11 21
-8 2 3 -12 18 -33 34 -21 15 -42 34 -46 41 -5 9 -17 11 -30 8 -13 -4 -17 -3
-10 2 8 6 6 14 -7 31 -10 12 -22 22 -27 22 -5 0 -16 8 -24 18 -9 9 -35 33 -58
52 -24 19 -55 45 -70 58 -47 41 -78 62 -85 55 -3 -3 -6 -1 -6 5 0 17 -151 133
-163 125 -6 -3 -7 -1 -3 5 3 6 -3 16 -16 23 -12 6 -31 20 -42 31 -12 11 -46
36 -76 56 -30 20 -61 42 -68 49 -8 7 -19 10 -25 6 -7 -3 -9 -3 -5 2 10 11 -50
58 -63 49 -7 -4 -9 -3 -6 3 3 5 -24 31 -61 57 -84 59 -308 207 -387 256 -33
20 -118 74 -189 119 -71 46 -137 86 -145 89 -9 3 -18 9 -21 12 -13 17 -153 89
-162 83 -6 -3 -8 -2 -5 4 5 8 -139 103 -158 103 -4 0 -18 9 -32 20 -14 11 -34
20 -44 20 -11 0 -19 4 -19 9 0 12 -40 24 -72 22 -14 -1 -29 3 -33 8 -3 6 1 11
10 11 9 0 13 5 10 11 -4 6 -14 8 -22 5 -8 -3 -12 -2 -9 3 5 8 -17 22 -32 20
-4 0 -1 -3 6 -6z m122 -73 c8 -5 11 -12 7 -17 -5 -4 -11 -3 -15 3 -4 6 -14 14
-22 17 -13 5 -13 5 0 6 8 0 22 -3 30 -9z m70 -35 c0 -2 -9 -3 -19 -2 -11 0
-18 5 -15 9 4 6 34 0 34 -7z m1600 -1075 c0 -5 -4 -10 -10 -10 -5 0 -10 5 -10
10 0 6 5 10 10 10 6 0 10 -4 10 -10z"/>
<path d="M15733 10092 c-57 -30 -81 -49 -43 -34 62 24 120 52 120 57 0 11 -26
3 -77 -23z"/>
<path d="M18225 10063 c-65 -34 -241 -109 -405 -173 -72 -29 -129 -54 -126
-57 3 -3 29 4 58 17 29 12 136 51 237 86 101 35 191 70 200 78 9 7 26 17 37
20 22 7 60 43 53 50 -2 2 -26 -7 -54 -21z"/>
<path d="M15521 9994 c-12 -9 -57 -31 -99 -48 -75 -31 -139 -64 -99 -52 48 15
237 101 237 108 0 12 -13 9 -39 -8z"/>
<path d="M6880 9966 c0 -3 9 -10 20 -16 11 -6 20 -8 20 -6 0 3 -9 10 -20 16
-11 6 -20 8 -20 6z"/>
<path d="M15244 9880 c-20 -8 -42 -30 -31 -30 10 0 77 31 77 35 0 7 -22 5 -46
-5z"/>
<path d="M15120 9830 c-24 -15 -7 -19 25 -5 23 10 25 14 10 14 -11 0 -27 -3
-35 -9z"/>
<path d="M14815 9701 c-6 -5 -80 -34 -165 -66 -221 -81 -284 -106 -295 -117
-7 -8 -4 -9 10 -3 34 13 235 90 350 134 60 23 114 46 119 51 13 13 -6 13 -19
1z"/>
<path d="M17060 9589 c-417 -153 -1415 -489 -1780 -599 -113 -34 -266 -81
-340 -105 -74 -25 -279 -85 -455 -134 -706 -198 -801 -226 -1200 -361 -343
-115 -829 -307 -1090 -430 -530 -249 -824 -417 -1130 -645 -140 -104 -291
-204 -321 -211 -13 -3 -24 -12 -24 -19 0 -8 -9 -17 -20 -20 -11 -3 -25 -15
-30 -25 -9 -18 -8 -18 20 -9 16 6 30 15 30 20 0 5 7 9 15 9 20 0 19 -19 -2
-27 -9 -4 -24 -12 -33 -19 -65 -54 -65 -54 -45 -47 11 3 25 9 30 13 6 4 20 11
33 15 12 3 93 47 180 97 276 159 434 232 661 305 113 36 249 77 301 90 52 14
124 32 160 41 36 9 66 20 68 24 2 5 10 8 18 8 15 0 317 71 389 92 22 6 47 12
55 13 8 1 22 5 30 8 31 12 107 29 214 48 110 20 136 25 271 53 39 8 86 16 105
19 19 3 96 17 170 32 74 15 158 31 185 35 60 10 241 45 310 60 28 6 96 17 152
25 56 8 146 24 200 35 87 19 223 45 293 55 14 2 103 20 199 40 96 20 186 37
200 39 14 2 37 6 51 9 14 3 61 13 105 22 44 9 99 20 123 26 23 5 53 9 65 9 13
0 50 7 82 16 52 14 131 28 215 38 37 5 182 36 191 41 4 3 38 12 76 19 37 8
109 24 158 35 50 12 110 23 134 27 25 3 49 8 53 11 5 2 19 6 31 8 53 6 103 18
114 27 6 5 20 8 30 7 21 -3 72 6 158 28 33 8 94 21 135 29 102 18 213 41 285
58 33 8 105 24 160 36 55 11 129 27 165 35 36 8 83 17 105 20 22 4 60 10 85
15 25 5 83 17 130 26 140 27 193 63 211 142 10 48 -29 131 -104 216 -42 49
-208 290 -224 326 -4 8 -9 17 -13 20 -3 3 -24 34 -45 70 -21 36 -52 82 -68
104 -17 21 -32 46 -33 55 -4 28 -16 61 -23 61 -3 -1 -80 -28 -171 -61z"/>
<path d="M7585 9570 c-3 -5 -1 -10 4 -10 6 0 11 5 11 10 0 6 -2 10 -4 10 -3 0
-8 -4 -11 -10z"/>
<path d="M7705 9550 c-3 -5 1 -10 10 -10 9 0 13 5 10 10 -3 6 -8 10 -10 10 -2
0 -7 -4 -10 -10z"/>
<path d="M9810 9510 c0 -22 46 -80 64 -80 7 0 19 15 28 33 l16 33 -32 14 c-48
22 -76 22 -76 0z"/>
<path d="M14270 9495 c-15 -8 -19 -14 -10 -14 18 -1 46 16 40 23 -3 2 -16 -2
-30 -9z"/>
<path d="M14110 9430 c-13 -8 -13 -10 2 -10 9 0 20 5 23 10 8 13 -5 13 -25 0z"/>
<path d="M7855 9380 c-3 -5 -1 -10 4 -10 6 0 11 5 11 10 0 6 -2 10 -4 10 -3 0
-8 -4 -11 -10z"/>
<path d="M3040 9204 c0 -8 5 -12 10 -9 6 3 10 10 10 16 0 5 -4 9 -10 9 -5 0
-10 -7 -10 -16z"/>
<path d="M3110 9180 c0 -5 5 -10 10 -10 6 0 10 5 10 10 0 6 -4 10 -10 10 -5 0
-10 -4 -10 -10z"/>
<path d="M3155 9180 c-3 -5 -1 -10 4 -10 6 0 11 5 11 10 0 6 -2 10 -4 10 -3 0
-8 -4 -11 -10z"/>
<path d="M15048 9183 c6 -2 18 -2 25 0 6 3 1 5 -13 5 -14 0 -19 -2 -12 -5z"/>
<path d="M3390 9110 c8 -5 24 -10 34 -10 26 0 18 6 -19 14 -22 5 -26 4 -15 -4z"/>
<path d="M3463 9093 c9 -2 23 -2 30 0 6 3 -1 5 -18 5 -16 0 -22 -2 -12 -5z"/>
<path d="M3518 9083 c7 -3 16 -2 19 1 4 3 -2 6 -13 5 -11 0 -14 -3 -6 -6z"/>
<path d="M3588 9073 c7 -3 16 -2 19 1 4 3 -2 6 -13 5 -11 0 -14 -3 -6 -6z"/>
<path d="M3628 9063 c6 -2 18 -2 25 0 6 3 1 5 -13 5 -14 0 -19 -2 -12 -5z"/>
<path d="M3683 9053 c9 -2 23 -2 30 0 6 3 -1 5 -18 5 -16 0 -22 -2 -12 -5z"/>
<path d="M7245 9000 c17 -11 35 -20 40 -20 6 0 -3 9 -20 20 -16 11 -34 20 -40
20 -5 0 4 -9 20 -20z"/>
<path d="M4568 8993 c6 -2 18 -2 25 0 6 3 1 5 -13 5 -14 0 -19 -2 -12 -5z"/>
<path d="M7300 8966 c0 -2 7 -7 16 -10 8 -3 12 -2 9 4 -6 10 -25 14 -25 6z"/>
<path d="M5998 8933 c7 -3 16 -2 19 1 4 3 -2 6 -13 5 -11 0 -14 -3 -6 -6z"/>
<path d="M14054 8924 c-18 -14 -18 -15 4 -4 12 6 22 13 22 15 0 8 -5 6 -26
-11z"/>
<path d="M7405 8896 c17 -14 34 -26 39 -26 11 0 11 0 -34 29 l-35 23 30 -26z"/>
<path d="M1521 8889 c-18 -7 -21 -13 -13 -21 12 -12 72 7 72 23 0 11 -28 10
-59 -2z"/>
<path d="M4725 8890 c3 -5 16 -10 28 -9 21 0 21 1 2 9 -28 12 -37 12 -30 0z"/>
<path d="M1630 8867 c-22 -9 -23 -11 -6 -14 10 -3 23 0 29 6 16 16 5 20 -23 8z"/>
<path d="M13790 8870 c0 -5 7 -7 15 -4 8 4 15 8 15 10 0 2 -7 4 -15 4 -8 0
-15 -4 -15 -10z"/>
<path d="M13710 8840 c-25 -10 -37 -19 -28 -19 9 -1 22 -3 30 -4 7 -2 9 -1 3
1 -5 3 8 13 30 23 54 24 22 23 -35 -1z"/>
<path d="M1687 8843 c-13 -13 -7 -21 13 -16 11 3 20 9 20 14 0 10 -24 12 -33
2z"/>
<path d="M5568 8843 c6 -2 18 -2 25 0 6 3 1 5 -13 5 -14 0 -19 -2 -12 -5z"/>
<path d="M6020 8840 c14 -4 34 -8 45 -8 16 0 15 2 -5 8 -14 4 -34 8 -45 8 -16
0 -15 -2 5 -8z"/>
<path d="M7480 8840 c0 -5 5 -10 11 -10 5 0 7 5 4 10 -3 6 -8 10 -11 10 -2 0
-4 -4 -4 -10z"/>
<path d="M5638 8833 c7 -3 16 -2 19 1 4 3 -2 6 -13 5 -11 0 -14 -3 -6 -6z"/>
<path d="M13800 8830 c0 -5 5 -10 10 -10 6 0 10 5 10 10 0 6 -4 10 -10 10 -5
0 -10 -4 -10 -10z"/>
<path d="M1756 8815 c-7 -19 13 -19 38 0 19 14 19 15 -6 15 -14 0 -28 -7 -32
-15z"/>
<path d="M6108 8823 c6 -2 18 -2 25 0 6 3 1 5 -13 5 -14 0 -19 -2 -12 -5z"/>
<path d="M7527 8809 c12 -12 24 -21 27 -18 2 2 -8 13 -22 23 l-27 19 22 -24z"/>
<path d="M13758 8823 c7 -3 16 -2 19 1 4 3 -2 6 -13 5 -11 0 -14 -3 -6 -6z"/>
<path d="M5775 8810 c28 -12 57 -12 50 0 -3 6 -21 10 -38 9 -27 0 -29 -2 -12
-9z"/>
<path d="M13630 8810 c-13 -8 -13 -10 2 -10 9 0 20 5 23 10 8 13 -5 13 -25 0z"/>
<path d="M6288 8803 c7 -3 16 -2 19 1 4 3 -2 6 -13 5 -11 0 -14 -3 -6 -6z"/>
<path d="M6350 8800 c20 -13 53 -13 45 0 -3 6 -18 10 -33 10 -21 0 -24 -2 -12
-10z"/>
<path d="M18795 8795 c-27 -7 -104 -29 -170 -50 -118 -37 -402 -113 -660 -177
-71 -18 -120 -34 -108 -36 12 -2 31 2 42 7 11 6 28 11 38 11 11 0 73 15 139
33 65 19 181 46 256 62 118 24 141 26 167 15 17 -7 31 -16 31 -20 0 -5 24 -6
54 -3 65 7 106 -2 106 -22 0 -9 13 -18 31 -22 20 -4 26 -9 18 -13 -7 -5 -18
-6 -26 -3 -7 3 -20 0 -29 -7 -8 -7 -61 -21 -117 -31 -147 -26 -234 -45 -302
-68 -33 -11 -78 -21 -99 -21 -37 0 -38 -1 -20 -14 18 -14 18 -15 1 -22 -28
-11 -101 1 -150 25 -33 16 -56 21 -84 16 -33 -5 -35 -4 -13 5 14 6 62 10 107
9 45 -1 88 3 95 8 7 6 34 13 60 16 26 4 75 18 109 32 34 14 74 25 89 25 14 0
53 7 85 16 36 10 98 16 153 15 69 0 92 3 89 12 -4 13 -120 28 -237 29 -78 1
-267 -40 -380 -82 -31 -12 -110 -34 -175 -49 -180 -43 -391 -98 -475 -126 -41
-13 -104 -29 -140 -35 -36 -7 -157 -34 -270 -61 -113 -27 -241 -58 -285 -69
-44 -11 -159 -35 -255 -55 -96 -20 -200 -42 -230 -49 -154 -38 -762 -156
-1135 -221 -143 -25 -312 -54 -375 -66 -63 -11 -140 -24 -170 -29 -147 -23
-340 -54 -590 -95 -151 -25 -349 -57 -440 -71 -418 -64 -1563 -257 -1795 -303
-239 -48 -452 -115 -675 -214 -146 -65 -97 -22 65 57 124 60 256 108 430 155
315 87 1316 273 1990 371 116 16 289 44 385 60 96 16 222 38 280 47 58 9 97
19 88 21 -9 2 -92 -8 -185 -22 -92 -14 -337 -49 -543 -76 -500 -68 -932 -133
-1160 -175 -41 -8 -138 -26 -215 -40 -382 -71 -645 -138 -860 -222 -127 -48
-318 -144 -392 -194 -24 -17 -81 -49 -126 -72 -66 -34 -77 -42 -57 -45 27 -3
137 29 350 102 289 100 694 199 1110 272 107 18 260 45 340 59 269 48 774 135
960 165 102 17 208 34 235 39 188 34 493 86 620 106 83 13 249 42 370 65 121
23 294 55 385 71 349 63 433 80 1405 284 165 34 399 86 520 114 121 28 240 55
265 61 133 29 343 82 358 90 28 16 124 51 129 47 2 -3 -16 -14 -39 -25 -47
-23 -28 -30 32 -11 132 40 176 42 219 10 23 -18 23 -18 -66 -34 -83 -16 -308
-74 -565 -146 -59 -16 -172 -44 -250 -61 -79 -17 -180 -44 -225 -60 -44 -15
-179 -50 -300 -75 -120 -26 -229 -52 -242 -57 -58 -22 -1 -15 180 22 217 45
320 71 394 100 28 11 115 33 195 50 80 17 235 55 345 84 110 30 234 61 275 70
41 9 145 32 230 52 85 20 174 38 198 41 41 5 54 17 30 26 -7 2 -11 7 -8 10 13
14 476 101 590 111 l55 5 -48 -20 c-49 -19 -269 -83 -412 -118 -159 -39 -544
-143 -660 -178 -27 -8 -75 -20 -105 -28 -30 -7 -199 -49 -375 -93 -438 -109
-858 -208 -1055 -248 -41 -8 -122 -26 -180 -39 -58 -13 -177 -40 -265 -60
-142 -33 -345 -76 -560 -120 -67 -14 -350 -66 -650 -120 -77 -14 -232 -43
-345 -65 -113 -22 -259 -49 -325 -60 -118 -20 -266 -47 -415 -75 -41 -8 -160
-30 -265 -49 -182 -33 -258 -45 -535 -86 -69 -11 -168 -28 -220 -39 -52 -11
-119 -26 -148 -32 -30 -6 -52 -13 -49 -15 2 -3 161 22 353 55 192 33 408 69
479 81 748 121 2102 376 2700 509 254 56 521 116 650 146 61 14 171 39 245 56
233 54 658 157 835 203 94 24 242 63 329 86 87 23 177 47 200 55 23 7 136 37
251 65 221 55 430 112 580 159 50 16 136 43 193 61 56 18 102 36 102 41 0 4
-30 23 -66 43 -53 28 -73 33 -102 29 -36 -6 -37 -5 -20 13 21 24 14 61 -15 87
-24 20 -88 21 -162 2z m-127 -104 c10 -6 7 -10 -11 -13 -14 -3 -32 -1 -39 3
-7 5 -24 8 -38 8 l-25 -1 25 -8 25 -8 -27 -1 c-29 -1 -46 14 -26 22 21 9 102
7 116 -2z m244 -29 c-9 -2 -33 -10 -52 -18 -39 -17 -142 -16 -138 1 2 6 9 9
17 8 18 -2 163 26 170 32 2 3 8 0 13 -7 5 -9 1 -14 -10 -16z m3 -62 c-3 -5
-12 -10 -18 -10 -7 0 -6 4 3 10 19 12 23 12 15 0z m85 5 c0 -2 -8 -8 -17 -14
-13 -6 -22 -5 -31 5 -11 12 -8 14 18 14 16 0 30 -2 30 -5z m-741 -59 c-10 -9
-79 -14 -79 -5 0 5 19 9 42 9 23 0 39 -2 37 -4z"/>
<path d="M13535 8774 c-26 -13 -27 -14 -5 -10 14 3 31 6 38 6 6 0 12 5 12 10
0 13 -8 12 -45 -6z"/>
<path d="M6008 8768 c6 -6 18 -8 28 -6 14 3 12 5 -9 10 -19 3 -25 2 -19 -4z"/>
<path d="M7570 8776 c0 -4 154 -125 184 -144 32 -21 -43 45 -101 89 -28 21
-54 43 -58 49 -6 9 -25 14 -25 6z"/>
<path d="M6470 8760 c0 -5 15 -10 33 -10 24 0 28 3 17 10 -20 13 -50 13 -50 0z"/>
<path d="M1370 8735 c-13 -14 -19 -25 -14 -25 12 0 59 50 47 50 -5 0 -20 -11
-33 -25z"/>
<path d="M6113 8753 c9 -2 23 -2 30 0 6 3 -1 5 -18 5 -16 0 -22 -2 -12 -5z"/>
<path d="M1990 8734 c-43 -13 -44 -13 -9 -10 20 2 45 8 55 14 25 15 10 13 -46
-4z"/>
<path d="M6215 8740 c-4 -6 6 -10 22 -10 22 0 25 2 13 10 -19 12 -27 12 -35 0z"/>
<path d="M5760 8730 c0 -5 7 -10 16 -10 8 0 12 5 9 10 -3 6 -10 10 -16 10 -5
0 -9 -4 -9 -10z"/>
<path d="M1455 8719 c-12 -19 5 -23 22 -6 16 16 16 17 1 17 -9 0 -20 -5 -23
-11z"/>
<path d="M6305 8722 c6 -5 24 -13 40 -16 19 -5 26 -4 20 2 -5 5 -23 13 -40 16
-19 5 -26 4 -20 -2z"/>
<path d="M5945 8700 c3 -5 16 -10 28 -10 18 0 19 2 7 10 -20 13 -43 13 -35 0z"/>
<path d="M2086 8685 c-11 -8 -15 -15 -10 -15 6 0 19 7 30 15 10 8 15 14 9 14
-5 0 -19 -6 -29 -14z"/>
<path d="M2225 8693 c-26 -7 -67 -34 -60 -41 6 -7 85 30 85 41 0 4 -1 6 -2 6
-2 -1 -12 -4 -23 -6z"/>
<path d="M6440 8691 c0 -6 21 -12 48 -16 26 -3 63 -10 83 -15 40 -11 75 -13
67 -4 -5 4 -180 44 -195 44 -1 0 -3 -4 -3 -9z"/>
<path d="M6050 8680 c8 -5 22 -9 30 -9 10 0 8 3 -5 9 -27 12 -43 12 -25 0z"/>
<path d="M2288 8662 c-30 -18 -39 -39 -10 -23 29 16 58 40 47 40 -5 0 -22 -7
-37 -17z"/>
<path d="M6150 8660 c20 -13 43 -13 35 0 -3 6 -16 10 -28 10 -18 0 -19 -2 -7
-10z"/>
<path d="M2357 8634 c-16 -9 -27 -18 -24 -21 6 -5 67 24 67 32 0 8 -14 5 -43
-11z"/>
<path d="M6250 8640 c20 -13 73 -13 65 0 -3 6 -23 10 -43 10 -28 0 -33 -3 -22
-10z"/>
<path d="M6675 8645 c25 -12 97 -23 87 -13 -5 5 -29 12 -53 14 -24 2 -39 2
-34 -1z"/>
<path d="M7795 8600 c10 -11 20 -20 23 -20 3 0 -3 9 -13 20 -10 11 -20 20 -23
20 -3 0 3 -9 13 -20z"/>
<path d="M13128 8613 c7 -3 16 -2 19 1 4 3 -2 6 -13 5 -11 0 -14 -3 -6 -6z"/>
<path d="M2418 8594 c-38 -20 -36 -28 2 -9 17 9 30 18 30 20 0 7 -1 6 -32 -11z"/>
<path d="M13725 8590 c-13 -5 -14 -9 -5 -9 8 0 24 4 35 9 13 5 14 9 5 9 -8 0
-24 -4 -35 -9z"/>
<path d="M2495 8569 l-40 -19 35 5 c19 3 39 10 44 15 18 18 1 17 -39 -1z"/>
<path d="M7870 8541 c25 -23 49 -41 53 -41 15 0 -1 15 -50 48 l-48 33 45 -40z"/>
<path d="M19148 8564 c-30 -16 -38 -27 -13 -18 9 4 15 0 15 -9 0 -8 -12 -20
-27 -25 -19 -7 -22 -11 -10 -11 38 -2 77 29 77 62 0 21 -7 21 -42 1z"/>
<path d="M2614 8560 c-24 -9 -41 -30 -25 -30 20 0 61 20 61 30 0 12 -7 12 -36
0z"/>
<path d="M6768 8533 c7 -3 16 -2 19 1 4 3 -2 6 -13 5 -11 0 -14 -3 -6 -6z"/>
<path d="M8205 8530 c3 -5 8 -10 11 -10 2 0 4 5 4 10 0 6 -5 10 -11 10 -5 0
-7 -4 -4 -10z"/>
<path d="M2669 8514 c-7 -8 -10 -16 -8 -18 10 -8 78 7 83 19 7 18 -60 17 -75
-1z"/>
<path d="M6879 8509 c16 -6 28 -6 35 1 7 7 -1 10 -24 9 -33 0 -34 -1 -11 -10z"/>
<path d="M8240 8512 c0 -6 -6 -9 -14 -6 -8 3 -16 -3 -19 -15 -4 -16 -1 -20 17
-18 16 1 21 -3 20 -20 0 -13 3 -23 8 -23 15 0 21 30 8 45 -8 10 -9 15 -2 15
17 0 34 -38 27 -60 -4 -14 -2 -20 9 -20 9 0 19 0 23 -1 4 0 9 5 12 12 2 7 -1
9 -9 4 -10 -6 -12 -4 -7 7 3 10 -9 29 -34 54 -21 21 -39 33 -39 26z"/>
<path d="M12845 8505 c-25 -12 -26 -14 -5 -9 14 4 29 10 35 15 12 12 5 11 -30
-6z"/>
<path d="M6966 8490 c14 -14 130 -39 143 -30 7 4 -12 14 -46 23 -67 19 -112
22 -97 7z"/>
<path d="M13390 8479 c-31 -13 -36 -18 -16 -14 37 8 95 33 76 34 -8 0 -35 -9
-60 -20z"/>
<path d="M7940 8487 c0 -3 12 -12 26 -22 15 -9 23 -12 20 -6 -7 11 -46 35 -46
28z"/>
<path d="M18955 8463 c-46 -18 -52 -22 -25 -18 19 3 62 14 95 24 53 17 56 19
25 18 -19 0 -62 -11 -95 -24z"/>
<path d="M2801 8469 c-13 -5 -22 -11 -20 -12 10 -8 108 6 103 14 -7 12 -52 11
-83 -2z"/>
<path d="M12728 8453 c7 -3 16 -2 19 1 4 3 -2 6 -13 5 -11 0 -14 -3 -6 -6z"/>
<path d="M2943 8433 c-46 -9 -21 -23 40 -23 40 0 70 -5 83 -15 10 -8 31 -15
45 -15 15 0 40 -7 55 -15 16 -8 38 -15 48 -15 11 0 49 -9 85 -19 133 -39 162
-43 221 -28 l55 14 -95 7 c-159 11 -200 17 -200 31 0 8 -22 15 -62 19 -75 9
-83 13 -66 33 12 14 9 15 -24 9 -25 -4 -54 -2 -83 9 -46 15 -60 16 -102 8z"/>
<path d="M13245 8430 c-13 -5 -14 -9 -5 -9 8 0 24 4 35 9 13 5 14 9 5 9 -8 0
-24 -4 -35 -9z"/>
<path d="M8026 8421 c27 -26 125 -101 130 -101 10 0 -37 42 -79 70 -20 14 -37
28 -37 33 0 4 -5 7 -12 7 -7 0 -8 -3 -2 -9z"/>
<path d="M18820 8420 c-13 -8 -13 -10 2 -10 9 0 20 5 23 10 8 13 -5 13 -25 0z"/>
<path d="M8328 8396 c-8 -20 -7 -28 5 -40 9 -9 19 -16 24 -16 13 -1 63 -48 63
-60 0 -5 11 -10 25 -10 19 0 23 -4 18 -17 -5 -13 -2 -15 11 -10 9 4 15 3 12
-2 -3 -5 7 -23 24 -40 l29 -32 22 22 23 23 -40 12 c-21 6 -31 12 -21 13 10 1
16 5 12 11 -3 5 -13 6 -22 3 -11 -5 -14 -3 -8 6 9 16 -46 69 -65 63 -8 -3 -10
0 -5 8 10 17 -16 32 -32 18 -9 -7 -13 -7 -13 1 0 6 5 11 10 11 18 0 10 15 -15
27 -23 10 -25 10 -19 -13 3 -13 2 -24 -3 -24 -18 0 -21 11 -13 41 11 36 -6 39
-22 5z"/>
<path d="M17688 8383 c7 -3 16 -2 19 1 4 3 -2 6 -13 5 -11 0 -14 -3 -6 -6z"/>
<path d="M12925 8314 l-30 -15 30 6 c17 4 34 11 40 16 13 13 -5 10 -40 -7z"/>
<path d="M16978 8323 c6 -2 18 -2 25 0 6 3 1 5 -13 5 -14 0 -19 -2 -12 -5z"/>
<path d="M8195 8290 c10 -11 20 -20 23 -20 3 0 -3 9 -13 20 -10 11 -20 20 -23
20 -3 0 3 -9 13 -20z"/>
<path d="M12775 8259 c-55 -22 -136 -53 -180 -71 -294 -114 -818 -364 -1085
-517 -171 -99 -410 -255 -570 -376 -63 -47 -136 -97 -162 -111 -27 -13 -48
-29 -48 -34 0 -16 23 -11 50 10 14 11 29 20 33 20 7 0 157 101 275 186 409
292 857 533 1462 786 118 50 240 99 270 110 51 19 87 39 65 37 -6 -1 -55 -19
-110 -40z"/>
<path d="M3562 8279 c-72 -14 -71 -24 3 -30 39 -3 97 -11 130 -17 32 -7 62 -8
65 -4 3 4 16 13 30 20 21 10 10 11 -69 6 -66 -4 -91 -2 -87 5 4 6 16 11 27 11
10 0 19 5 19 10 0 12 -57 11 -118 -1z"/>
<path d="M8259 8231 c34 -31 47 -39 36 -21 -3 5 -20 19 -38 31 l-32 21 34 -31z"/>
<path d="M3795 8210 c-25 -6 -27 -8 -12 -15 21 -9 113 0 149 14 18 8 8 10 -42
9 -36 0 -78 -4 -95 -8z"/>
<path d="M9878 8213 c7 -3 16 -2 19 1 4 3 -2 6 -13 5 -11 0 -14 -3 -6 -6z"/>
<path d="M8570 8180 c-11 -11 -20 -26 -20 -32 0 -10 2 -10 8 0 6 9 18 1 43
-31 20 -25 40 -42 48 -39 8 3 11 0 7 -7 -7 -10 66 -92 199 -227 53 -54 106
-115 127 -145 9 -13 29 -37 43 -54 15 -16 44 -50 64 -75 20 -25 41 -50 48 -57
6 -7 21 -29 34 -50 13 -20 30 -44 37 -53 8 -8 70 -94 139 -190 96 -134 130
-174 145 -173 10 2 17 -1 14 -6 -3 -5 1 -11 8 -14 26 -10 14 35 -27 103 -116
191 -343 497 -470 634 -16 17 -40 46 -54 64 -15 19 -32 31 -40 28 -8 -3 -11
-1 -8 5 8 12 -14 41 -26 33 -5 -3 -9 3 -9 13 0 10 -12 26 -25 36 -23 17 -24
17 -18 0 6 -15 5 -16 -9 -3 -8 8 -13 21 -10 29 3 9 1 12 -6 7 -8 -5 -12 0 -12
13 0 14 -5 19 -15 14 -9 -3 -15 -2 -13 3 4 13 -30 59 -38 51 -12 -12 -46 14
-40 30 5 11 2 13 -10 9 -11 -4 -15 -2 -11 8 4 10 1 13 -9 9 -7 -3 -14 -10 -14
-16 0 -6 -3 -7 -6 -4 -4 4 -1 13 6 22 7 9 11 16 9 18 -2 1 -13 7 -24 14 -11 6
-19 16 -17 22 3 15 -11 14 -27 -1 -11 -11 -11 -9 -2 10 14 27 7 28 -19 2z
m185 -151 c11 -16 1 -19 -13 -3 -7 8 -8 14 -3 14 5 0 13 -5 16 -11z"/>
<path d="M9975 8180 c-27 -11 -58 -19 -67 -20 -23 0 -23 -6 2 -37 11 -14 20
-32 20 -39 0 -26 20 -24 32 3 7 15 25 43 40 61 23 27 37 55 26 51 -2 0 -25 -9
-53 -19z"/>
<path d="M3927 8169 c7 -7 63 -15 125 -19 126 -9 181 -20 208 -45 11 -10 44
-18 89 -22 41 -3 76 -12 82 -19 7 -8 31 -14 56 -14 24 0 60 -7 80 -15 19 -8
54 -15 77 -15 22 0 66 -7 96 -15 67 -19 657 -118 1030 -175 151 -23 358 -57
460 -75 299 -55 669 -113 758 -119 111 -7 123 -18 37 -32 l-70 -12 111 -1 c87
-1 138 -8 231 -31 66 -16 173 -39 239 -50 188 -34 328 -66 474 -108 227 -67
612 -191 670 -216 94 -42 162 -67 156 -58 -21 34 -699 270 -1026 357 -74 20
-182 50 -240 68 -58 17 -124 31 -147 32 -22 0 -36 3 -30 7 16 10 -2 10 -39 -1
-33 -9 -51 -6 -237 48 -60 17 -170 40 -245 52 -75 11 -166 24 -201 30 -36 5
-90 16 -120 24 -31 7 -92 18 -136 24 -185 24 -380 52 -423 61 -26 5 -99 17
-162 26 -81 12 -108 20 -90 24 23 7 23 7 -10 13 -19 3 -83 9 -141 12 -59 3
-140 12 -180 19 -41 8 -114 20 -164 27 -87 12 -89 13 -60 25 28 12 24 13 -55
14 -47 0 -103 5 -126 10 -22 5 -89 14 -148 19 -60 6 -122 18 -139 26 -16 8
-38 15 -47 15 -10 0 -35 7 -56 16 -26 11 -53 14 -84 10 -58 -8 -113 2 -106 19
3 9 -19 14 -77 18 -44 4 -83 11 -86 15 -3 5 -28 12 -56 16 -27 3 -72 11 -100
16 -75 13 -192 13 -178 -1z m669 -99 c15 -6 24 -13 21 -16 -8 -9 -67 6 -67 17
0 12 12 11 46 -1z"/>
<path d="M12160 8130 c0 -5 5 -10 10 -10 6 0 10 5 10 10 0 6 -4 10 -10 10 -5
0 -10 -4 -10 -10z"/>
<path d="M4158 8113 c6 -2 18 -2 25 0 6 3 1 5 -13 5 -14 0 -19 -2 -12 -5z"/>
<path d="M12038 8103 c7 -3 16 -2 19 1 4 3 -2 6 -13 5 -11 0 -14 -3 -6 -6z"/>
<path d="M12030 8080 c-12 -8 -11 -10 8 -10 12 0 22 5 22 10 0 13 -11 13 -30
0z"/>
<path d="M11875 8050 c-3 -6 1 -7 9 -4 18 7 21 14 7 14 -6 0 -13 -4 -16 -10z"/>
<path d="M8470 8041 c0 -6 4 -13 10 -16 6 -3 7 1 4 9 -7 18 -14 21 -14 7z"/>
<path d="M11826 8025 c-11 -8 -15 -15 -9 -15 6 0 16 7 23 15 16 19 11 19 -14
0z"/>
<path d="M11851 8016 c-10 -12 -8 -13 8 -9 12 3 21 9 21 14 0 14 -16 11 -29
-5z"/>
<path d="M11880 8002 c-32 -15 -54 -52 -32 -52 15 0 33 26 24 35 -4 4 7 5 23
3 17 -3 24 -3 17 -1 -10 4 -10 8 -1 19 14 18 12 17 -31 -4z"/>
<path d="M8525 7985 c17 -14 140 -135 274 -268 244 -243 340 -345 461 -493 76
-94 110 -128 110 -111 0 13 -123 168 -199 252 -118 129 -642 637 -664 644 -7
1 2 -9 18 -24z"/>
<path d="M11626 7914 c-133 -73 -344 -209 -447 -287 -37 -29 -90 -68 -116 -87
-56 -41 -236 -181 -243 -190 -3 -3 -61 -48 -130 -100 -175 -131 -200 -150
-245 -190 -22 -20 -66 -51 -97 -70 -75 -45 -79 -58 -20 -55 47 1 162 53 198
89 21 22 51 20 66 -4 7 -11 17 -20 22 -20 5 0 0 10 -12 23 -12 13 -22 31 -22
41 0 16 6 18 44 14 35 -4 43 -2 39 8 -3 8 -9 14 -14 14 -5 0 -9 7 -9 15 0 17
35 21 45 5 3 -5 13 -10 22 -10 13 0 12 5 -6 24 l-23 24 24 8 c12 4 27 13 33
19 29 36 524 396 676 492 88 55 129 79 267 156 29 16 51 32 47 35 -3 3 -11 0
-17 -6 -18 -18 -32 -14 -17 4 8 10 22 14 41 10 31 -6 45 8 28 29 -8 10 -8 15
1 21 8 4 9 3 5 -4 -14 -23 21 -12 44 13 18 19 21 28 12 37 -8 8 -28 3 -78 -21
-77 -37 -99 -35 -27 3 26 14 44 25 38 25 -5 1 -64 -29 -129 -65z m14 -24 c-8
-5 -19 -10 -25 -10 -5 0 -3 5 5 10 8 5 20 10 25 10 6 0 3 -5 -5 -10z m120 0
c0 -5 -4 -10 -10 -10 -5 0 -10 5 -10 10 0 6 5 10 10 10 6 0 10 -4 10 -10z"/>
<path d="M16282 7944 c-29 -13 -106 -28 -412 -79 -164 -28 -295 -58 -311 -71
-8 -8 -27 -14 -41 -14 -14 0 -70 -9 -125 -21 -54 -11 -114 -23 -133 -26 -19
-2 -42 -11 -50 -20 -13 -13 -12 -14 10 -9 22 6 152 30 295 56 28 5 69 15 92
24 48 17 271 63 488 101 87 16 170 36 200 50 53 25 42 33 -13 9z"/>
<path d="M14688 7863 c6 -2 18 -2 25 0 6 3 1 5 -13 5 -14 0 -19 -2 -12 -5z"/>
<path d="M7648 7853 c7 -3 16 -2 19 1 4 3 -2 6 -13 5 -11 0 -14 -3 -6 -6z"/>
<path d="M14618 7853 c7 -3 16 -2 19 1 4 3 -2 6 -13 5 -11 0 -14 -3 -6 -6z"/>
<path d="M3998 7843 c7 -3 16 -2 19 1 4 3 -2 6 -13 5 -11 0 -14 -3 -6 -6z"/>
<path d="M4038 7833 c7 -3 16 -2 19 1 4 3 -2 6 -13 5 -11 0 -14 -3 -6 -6z"/>
<path d="M4080 7827 c8 -8 191 -48 203 -44 5 1 -28 11 -74 21 -46 9 -95 20
-109 23 -14 3 -23 3 -20 0z"/>
<path d="M4303 7774 c3 -3 34 -12 69 -19 34 -8 113 -26 173 -40 97 -23 385
-85 393 -85 2 0 1 4 -2 9 -4 5 -1 11 5 13 6 2 -60 17 -147 32 -88 16 -217 41
-289 56 -145 31 -210 42 -202 34z"/>
<path d="M5097 7744 c3 -9 15 -11 33 -8 17 4 31 1 35 -6 6 -10 1 -11 -21 -6
-26 7 -27 6 -14 -8 8 -8 65 -24 125 -36 61 -11 151 -30 200 -40 98 -21 217
-40 395 -65 63 -9 228 -36 365 -60 373 -66 790 -116 934 -113 42 0 60 3 41 5
-289 31 -519 66 -875 132 -88 17 -234 42 -325 56 -91 15 -304 54 -475 86 -381
73 -425 80 -418 63z"/>
<path d="M5030 7741 c0 -5 -8 -12 -17 -14 -14 -4 -13 -5 3 -6 12 0 24 6 28 14
3 8 1 15 -4 15 -6 0 -10 -4 -10 -9z"/>
<path d="M4957 7637 c-5 -15 4 -17 68 -17 30 0 36 -3 25 -10 -8 -5 -10 -10 -5
-10 6 0 107 -21 225 -45 266 -56 347 -71 480 -89 58 -8 166 -27 240 -41 186
-36 374 -69 575 -100 94 -14 226 -35 295 -46 69 -10 222 -31 340 -44 118 -14
251 -30 295 -36 44 -5 112 -14 150 -18 39 -5 129 -17 200 -26 178 -22 485 -71
570 -91 39 -9 138 -36 220 -59 83 -23 173 -45 200 -49 l50 -6 -50 20 c-140 57
-585 198 -760 241 -274 68 -394 91 -520 99 -177 12 -527 46 -1049 100 -365 38
-818 104 -1126 165 -190 37 -396 75 -407 75 -6 0 -13 -6 -16 -13z m46 -4 c-7
-2 -19 -2 -25 0 -7 3 -2 5 12 5 14 0 19 -2 13 -5z"/>
<path d="M14478 7583 c7 -3 16 -2 19 1 4 3 -2 6 -13 5 -11 0 -14 -3 -6 -6z"/>
<path d="M14325 7570 l-40 -7 40 -1 c22 0 60 3 85 7 l45 8 -45 0 c-25 0 -63
-3 -85 -7z"/>
<path d="M14233 7553 c9 -2 25 -2 35 0 9 3 1 5 -18 5 -19 0 -27 -2 -17 -5z"/>
<path d="M14058 7533 c12 -2 30 -2 40 0 9 3 -1 5 -23 4 -22 0 -30 -2 -17 -4z"/>
<path d="M13993 7523 c9 -2 23 -2 30 0 6 3 -1 5 -18 5 -16 0 -22 -2 -12 -5z"/>
<path d="M8630 6766 c0 -46 18 -76 45 -76 34 0 32 -24 -5 -52 -16 -12 -30 -25
-30 -30 0 -14 21 -9 47 12 14 11 29 20 33 20 15 0 19 -30 10 -56 -9 -23 -8
-25 6 -20 22 9 64 -20 64 -43 0 -12 11 -23 30 -30 22 -7 30 -16 30 -34 0 -26
29 -62 59 -72 12 -3 21 -17 23 -33 2 -15 8 -26 13 -25 17 2 32 -16 39 -47 4
-21 11 -30 26 -30 13 0 21 -9 26 -27 12 -59 22 -72 51 -70 24 2 28 -2 31 -27
2 -17 11 -30 21 -33 10 -2 23 -20 30 -39 7 -19 17 -34 23 -34 6 0 19 -10 29
-21 l19 -22 10 27 c14 39 48 35 53 -6 4 -32 4 -32 5 5 2 33 5 37 30 37 34 0
44 -8 60 -43 19 -44 15 -57 -15 -57 -46 0 -103 -12 -103 -21 0 -14 123 -10
240 6 58 9 212 18 343 22 133 3 240 10 244 15 5 9 -437 5 -631 -5 l-49 -2 -14
49 c-8 26 -12 50 -10 52 6 6 178 33 207 32 14 0 80 3 147 7 94 6 126 5 138 -5
10 -8 15 -9 15 -1 0 7 34 11 104 11 117 0 116 -1 116 80 0 29 -5 50 -13 53 -6
2 -95 5 -197 6 -102 0 -198 4 -215 7 -56 10 -301 -56 -360 -97 -67 -47 -89
-47 -133 -2 -79 82 -216 242 -242 284 -15 24 -39 55 -54 68 -14 13 -45 54 -68
90 -24 36 -51 75 -60 85 -24 26 -23 28 12 48 17 9 30 24 30 32 0 26 -35 36
-124 36 -84 0 -86 0 -86 -24z"/>
<path d="M11368 6785 c-3 -3 -31 -10 -63 -15 -70 -11 -85 -24 -136 -117 -22
-40 -56 -91 -75 -114 -18 -22 -34 -47 -34 -54 0 -7 17 -15 38 -19 33 -5 39 -2
56 22 11 15 50 57 88 94 38 38 68 76 68 87 0 11 25 41 57 70 52 46 55 51 32
51 -14 0 -28 -2 -31 -5z"/>
<path d="M10962 6392 c-41 -36 -50 -60 -36 -96 8 -21 19 -20 55 7 40 29 61 70
53 102 -8 34 -21 31 -72 -13z"/>
<path d="M10786 6238 c-73 -75 -155 -128 -199 -128 -34 0 -38 -2 -35 -22 3
-21 8 -23 52 -20 27 1 55 -3 62 -9 8 -6 21 -9 29 -5 21 7 55 66 55 94 0 28 13
28 31 1 9 -13 20 -18 30 -14 17 6 79 112 79 134 0 6 -14 11 -31 11 -24 0 -42
-10 -73 -42z"/>
<path d="M10160 6177 l0 -56 123 -3 c139 -3 163 2 146 34 -11 21 -39 21 -121
2 -27 -6 -28 -5 -22 24 7 36 2 40 -70 48 l-56 7 0 -56z"/>
<path d="M10460 6090 c12 -22 30 -18 30 6 0 8 -9 14 -20 14 -18 0 -19 -3 -10
-20z"/>
<path d="M10581 5974 c0 -11 3 -14 6 -6 3 7 2 16 -1 19 -3 4 -6 -2 -5 -13z"/>
<path d="M10640 5960 c0 -11 5 -20 10 -20 6 0 10 9 10 20 0 11 -4 20 -10 20
-5 0 -10 -9 -10 -20z"/>
<path d="M10220 5962 c0 -4 36 -8 81 -10 55 -2 79 0 74 7 -7 12 -155 15 -155
3z"/>
</g>
</svg>
