<?xml version="1.0" standalone="no"?>
<!DOCTYPE svg PUBLIC "-//W3C//DTD SVG 20010904//EN"
 "http://www.w3.org/TR/2001/REC-SVG-20010904/DTD/svg10.dtd">
<svg version="1.0" xmlns="http://www.w3.org/2000/svg"
 width="1335.000000pt" height="2000.000000pt" viewBox="0 0 1335.000000 2000.000000"
 preserveAspectRatio="xMidYMid meet">

<g transform="translate(0.000000,2000.000000) scale(0.100000,-0.100000)"
fill="#000000" stroke="none">
<path d="M5461 12916 c-7 -8 -16 -60 -20 -115 -9 -111 -10 -114 -113 -223 -36
-38 -77 -68 -128 -93 -41 -21 -77 -40 -80 -44 -3 -3 -22 -15 -43 -26 -21 -11
-46 -27 -56 -36 -10 -9 -33 -25 -51 -34 -30 -16 -105 -66 -201 -135 -53 -38
-133 -110 -128 -115 3 -2 27 16 54 40 28 25 53 45 57 45 4 0 13 6 21 14 37 37
306 200 453 274 33 17 90 58 127 91 37 34 73 61 80 61 7 0 17 -13 23 -29 l11
-28 124 -6 c68 -4 185 -11 259 -16 305 -23 664 -41 810 -41 261 1 924 42 967
60 12 5 25 21 29 35 3 14 11 25 16 25 5 0 35 -24 66 -53 62 -59 117 -97 202
-141 30 -16 67 -37 82 -48 14 -10 33 -18 42 -18 9 0 16 -4 16 -10 0 -5 7 -10
15 -10 29 0 -22 38 -147 109 -98 56 -135 84 -183 137 -88 97 -95 113 -95 216
0 65 -4 90 -16 102 -16 17 -49 22 -40 7 4 -5 -3 -7 -13 -4 -27 7 -57 -26 -53
-60 3 -25 1 -27 -22 -23 -14 3 -28 0 -31 -5 -4 -5 -17 -6 -29 -3 -15 3 -29 -1
-41 -12 -19 -19 -96 -26 -127 -11 -12 5 -18 4 -18 -4 0 -8 -4 -8 -12 -1 -7 6
-30 13 -50 17 -31 6 -38 4 -38 -9 0 -19 -26 -22 -33 -3 -4 8 -8 8 -14 2 -11
-14 -42 -18 -56 -8 -7 5 -40 10 -75 12 -57 3 -65 0 -87 -23 -13 -14 -28 -26
-34 -26 -5 0 -26 16 -47 35 -27 26 -43 34 -58 29 -32 -9 -67 -34 -62 -43 3 -4
-15 -5 -39 -1 -33 5 -48 3 -60 -9 -10 -10 -15 -11 -15 -3 0 7 -12 17 -26 22
-23 9 -24 12 -10 25 8 8 19 15 25 15 6 0 11 9 11 21 0 15 -4 19 -16 15 -10 -4
-18 0 -21 12 -7 28 -51 17 -59 -14 -9 -35 -38 -48 -76 -35 -24 9 -34 7 -54 -7
-13 -9 -24 -23 -24 -31 0 -7 -6 -11 -15 -7 -10 3 -15 -1 -15 -12 -1 -13 -8 -9
-30 16 -27 29 -35 32 -85 32 -40 0 -54 -3 -49 -12 5 -7 3 -8 -6 -3 -18 11
-110 14 -110 3 0 -5 -13 -2 -28 7 -25 15 -32 15 -63 2 -32 -13 -37 -13 -47 2
-10 15 -11 15 -11 0 -1 -13 -10 -15 -53 -11 -30 3 -57 11 -61 18 -13 22 -47
17 -47 -6 0 -24 -18 -26 -34 -4 -7 8 -31 18 -54 21 -34 5 -42 9 -38 22 5 13 4
13 -8 -1 -18 -24 -24 -22 -22 7 0 14 4 25 7 25 3 0 6 7 6 15 0 8 -4 15 -9 15
-4 0 -8 -5 -8 -12 0 -6 -10 -2 -23 10 -27 25 -69 29 -86 8z"/>
<path d="M6671 12863 c-1 -6 -4 -18 -7 -27 -4 -11 -1 -16 10 -16 18 0 19 6 6
35 -5 11 -9 15 -9 8z"/>
<path d="M8120 12327 c0 -10 113 -78 123 -74 7 3 3 8 -8 12 -11 4 -31 18 -45
30 -23 21 -70 42 -70 32z"/>
<path d="M8342 12174 c10 -10 20 -15 24 -12 3 4 -5 12 -18 18 -22 12 -22 12
-6 -6z"/>
<path d="M8370 12146 c0 -2 7 -7 16 -10 8 -3 12 -2 9 4 -6 10 -25 14 -25 6z"/>
<path d="M3402 9390 c0 -14 2 -19 5 -12 2 6 2 18 0 25 -3 6 -5 1 -5 -13z"/>
<path d="M5249 9366 c-2 -3 -150 -7 -329 -10 -582 -11 -1055 -39 -1219 -72
-88 -18 -110 -22 -133 -23 -11 -1 -18 -9 -18 -21 0 -12 -7 -20 -17 -20 -45 -1
18 -19 102 -29 153 -18 779 -60 990 -66 109 -3 201 -8 204 -10 9 -10 31 -4 31
8 0 6 4 18 9 26 8 13 12 13 27 0 13 -11 18 -11 21 -1 7 18 40 15 47 -5 5 -12
9 -14 18 -5 7 7 22 12 33 12 32 0 36 9 14 31 -20 20 -34 26 -24 9 3 -6 -5 -10
-19 -10 -14 0 -28 5 -31 10 -11 18 -104 5 -121 -16 -14 -18 -15 -18 -9 3 8 30
-24 48 -59 32 -38 -18 -83 4 -88 42 -3 15 -2 33 2 38 3 6 85 13 183 17 101 4
177 11 177 17 0 5 8 6 18 2 19 -8 506 -7 527 1 7 3 29 1 49 -4 22 -6 38 -7 42
-1 8 14 44 -9 38 -26 -4 -10 -12 -12 -29 -5 -16 6 -27 6 -31 -1 -3 -6 -12 -8
-19 -5 -7 2 -12 -2 -11 -12 0 -9 -8 -18 -19 -20 -11 -2 -25 -10 -32 -19 -9
-11 -16 -12 -32 -3 -17 9 -21 8 -21 -5 0 -21 -27 -19 -39 3 -10 16 -11 15 -17
-4 -4 -15 -11 -20 -25 -17 -27 7 -26 -33 2 -42 20 -7 22 -26 3 -32 -13 -4 -46
56 -37 69 3 6 1 8 -4 5 -12 -8 -73 11 -73 23 0 4 -11 5 -25 2 -14 -2 -25 -8
-25 -13 0 -5 -7 -9 -15 -9 -19 0 -20 -16 -1 -23 8 -3 17 -16 19 -29 4 -17 5
-15 4 7 -3 64 25 72 50 16 12 -28 21 -37 29 -30 7 6 16 4 24 -6 11 -13 10 -19
-5 -35 -18 -20 -17 -20 21 -20 29 0 35 3 24 10 -13 8 -12 10 3 10 10 0 27 -4
37 -10 31 -17 69 -19 620 -36 821 -25 1974 -14 2630 26 203 13 482 39 489 45
11 11 -37 34 -70 35 -19 0 -58 6 -85 14 -54 16 -135 31 -147 28 -4 -1 -21 5
-37 13 -28 15 -60 11 -60 -6 0 -5 -5 -9 -11 -9 -6 0 -9 7 -5 15 3 10 -1 15
-13 15 -11 0 -21 -5 -23 -12 -3 -9 -20 -8 -69 2 -35 7 -99 13 -141 14 -43 0
-78 4 -78 9 0 12 -28 8 -32 -4 -3 -9 -9 -9 -24 -1 -12 6 -43 8 -79 4 -66 -8
-95 -8 -205 1 -45 4 -79 2 -87 -4 -7 -6 -18 -7 -25 -2 -7 4 -60 9 -118 10
-120 3 -328 12 -380 17 -19 1 -42 -1 -51 -5 -9 -5 -54 -4 -100 2 -170 21 -445
33 -1019 45 -173 3 -344 7 -380 8 -57 1 -66 4 -75 24 l-10 22 -316 0 c-173 0
-318 -2 -320 -4z m601 -34 c0 -12 -23 -32 -37 -32 -7 0 -13 5 -13 10 0 6 7 10
15 10 8 0 15 5 15 10 0 6 5 10 10 10 6 0 10 -4 10 -8z m-85 -22 c8 -13 -5 -13
-25 0 -13 8 -13 10 2 10 9 0 20 -4 23 -10z m-255 -140 c0 -5 -4 -10 -10 -10
-5 0 -10 5 -10 10 0 6 5 10 10 10 6 0 10 -4 10 -10z m-735 -30 c3 -5 1 -10 -4
-10 -6 0 -11 5 -11 10 0 6 2 10 4 10 3 0 8 -4 11 -10z"/>
<path d="M5910 9359 c0 -5 5 -7 10 -4 6 3 10 8 10 11 0 2 -4 4 -10 4 -5 0 -10
-5 -10 -11z"/>
<path d="M3410 9329 c0 -36 6 -37 24 -1 13 26 13 28 -5 29 -15 1 -19 -5 -19
-28z"/>
<path d="M9651 9344 c0 -11 3 -14 6 -6 3 7 2 16 -1 19 -3 4 -6 -2 -5 -13z"/>
<path d="M9633 9312 c-10 -6 -10 -12 2 -28 14 -18 14 -18 15 9 0 30 0 30 -17
19z"/>
<path d="M5405 9280 c-7 -12 -7 -12 23 -15 25 -3 30 10 6 19 -21 8 -22 8 -29
-4z"/>
<path d="M5060 9193 c0 -5 4 -14 9 -22 7 -11 11 -9 20 8 10 18 9 21 -9 21 -11
0 -20 -3 -20 -7z"/>
<path d="M5165 9190 c-3 -6 -17 -7 -31 -4 -20 5 -24 3 -24 -18 0 -13 -5 -29
-12 -36 -7 -7 -8 -12 -2 -12 5 0 16 9 24 20 8 11 22 20 31 20 9 0 19 9 22 20
6 22 2 26 -8 10z"/>
<path d="M5163 9119 c1 -17 6 -20 30 -15 16 3 34 6 39 6 5 0 6 5 3 10 -4 7
-13 7 -26 0 -15 -9 -19 -7 -19 5 0 8 -6 15 -14 15 -9 0 -14 -9 -13 -21z"/>
<path d="M4928 9113 c6 -2 18 -2 25 0 6 3 1 5 -13 5 -14 0 -19 -2 -12 -5z"/>
<path d="M3345 9070 c-3 -5 -14 -10 -25 -10 -25 0 -34 -29 -12 -37 29 -12 44
-31 30 -39 -13 -8 8 -16 102 -39 44 -10 49 -13 24 -14 -31 -1 -32 -3 -36 -48
-5 -54 0 -83 13 -83 5 0 9 8 9 17 0 36 9 4 14 -50 3 -32 10 -65 14 -75 5 -9
17 -49 26 -89 10 -39 26 -80 36 -91 10 -10 18 -28 17 -38 -1 -10 3 -19 8 -20
33 -3 46 -17 40 -44 -3 -16 -1 -31 4 -35 6 -3 11 1 11 11 0 10 3 15 6 11 3 -3
3 -19 -1 -36 -5 -22 -11 -29 -25 -26 -12 2 -21 -3 -25 -15 -5 -15 -13 -18 -40
-13 -31 5 -35 3 -35 -16 0 -11 -4 -21 -10 -21 -23 0 -8 -52 25 -87 19 -20 35
-41 35 -45 0 -4 6 -8 14 -8 24 0 40 -69 43 -190 1 -63 3 -128 4 -145 1 -16 -2
-40 -6 -53 -5 -16 -4 -22 5 -20 15 4 54 -125 39 -130 -13 -5 -11 -62 2 -62 7
0 9 -11 6 -29 -4 -18 0 -37 10 -51 9 -13 11 -20 5 -16 -8 5 -12 -1 -12 -18 0
-13 5 -26 10 -28 6 -2 12 -41 14 -88 2 -47 9 -98 15 -113 7 -19 8 -42 2 -69
-10 -42 -6 -68 11 -68 5 0 6 -9 3 -20 -4 -12 -2 -26 3 -33 5 -7 15 -52 21
-101 10 -72 10 -91 -1 -97 -10 -7 -10 -9 2 -9 11 0 15 -12 16 -47 1 -38 -1
-42 -8 -24 -14 40 -18 18 -7 -48 5 -35 7 -71 4 -81 -6 -19 10 -71 25 -80 17
-11 38 -113 27 -131 -20 -33 -40 -10 -34 40 4 30 3 39 -3 26 -17 -40 -11 -85
16 -112 14 -14 19 -23 10 -20 -12 5 -16 0 -16 -16 0 -46 30 -249 46 -309 8
-34 17 -84 20 -111 2 -28 8 -64 13 -81 15 -49 29 -138 27 -171 -1 -16 0 -34 3
-39 2 -6 6 -19 7 -30 1 -12 11 -49 22 -83 12 -37 16 -63 10 -63 -13 0 -2 -78
13 -96 5 -7 9 -16 8 -20 -1 -5 3 -22 10 -38 6 -16 15 -50 18 -75 3 -25 11 -55
16 -66 6 -11 10 -26 8 -34 -1 -7 2 -10 8 -7 5 3 12 -7 16 -24 4 -16 11 -32 16
-35 5 -4 9 -15 9 -26 0 -10 6 -19 14 -19 8 0 17 -12 20 -26 4 -15 14 -33 22
-42 8 -8 14 -26 14 -41 -1 -14 -1 -28 0 -31 2 -3 4 -14 5 -26 1 -11 8 -50 15
-87 6 -36 9 -70 6 -76 -4 -5 2 -15 11 -21 13 -8 14 -13 6 -16 -20 -9 -15 -31
12 -58 28 -28 32 -46 10 -46 -22 0 -15 -154 9 -200 32 -60 36 -69 36 -85 0 -9
5 -13 10 -10 6 4 10 14 9 23 -3 38 0 45 16 32 13 -11 15 -8 15 19 0 17 5 31
10 31 6 0 10 -16 10 -36 0 -31 3 -36 19 -31 17 4 18 2 9 -24 -6 -16 -7 -36 -4
-45 3 -8 1 -25 -5 -36 -11 -21 3 -99 22 -124 5 -6 6 -14 3 -17 -4 -4 -1 -20 6
-38 10 -24 11 -33 1 -38 -7 -4 -16 -37 -21 -72 -12 -81 -12 -81 1 -73 8 4 9
-18 4 -79 -6 -71 -4 -89 9 -109 9 -13 21 -24 26 -24 6 -1 17 -2 25 -3 19 -1
19 -27 0 -35 -20 -7 -19 -33 3 -45 15 -9 15 -10 -4 -11 -30 0 -43 -19 -46 -71
-2 -24 -7 -47 -13 -51 -5 -4 -4 -16 4 -32 11 -19 11 -34 3 -66 -11 -45 -1 -99
23 -124 19 -19 18 -131 -1 -146 -8 -8 -10 -19 -6 -33 9 -26 7 -130 -2 -145 -3
-6 -2 -13 4 -17 18 -11 11 -27 -9 -20 -16 5 -20 -1 -25 -39 -8 -51 -20 -64
-41 -46 -13 10 -15 8 -15 -17 0 -26 11 -38 79 -89 194 -143 454 -254 746 -319
65 -15 127 -31 136 -35 19 -10 318 -67 424 -80 471 -60 1314 -57 1730 6 88 13
212 31 275 40 112 16 166 27 360 79 156 41 171 46 270 83 302 111 480 236 556
390 26 51 29 67 30 162 0 58 8 148 18 200 36 199 66 413 91 635 8 77 22 199
31 270 8 72 19 166 24 210 21 197 41 372 60 525 12 91 25 206 30 255 5 50 16
149 25 220 16 132 28 241 45 395 5 47 14 123 20 170 25 206 31 260 40 335 5
44 16 141 25 215 8 74 20 180 26 235 5 55 14 136 19 180 4 44 18 184 29 310
37 392 51 528 61 590 10 59 20 143 41 339 6 62 19 122 35 160 25 59 48 201 24
147 -8 -19 -13 -22 -22 -13 -7 7 -20 12 -30 12 -11 0 -18 7 -18 19 0 11 -5 23
-11 26 -6 4 -8 13 -5 21 3 8 -1 14 -9 14 -11 0 -15 -11 -15 -37 0 -40 -24 -75
-46 -66 -27 10 -14 -13 14 -24 l27 -12 -28 6 c-18 4 -34 0 -47 -12 -10 -9 -23
-14 -29 -11 -5 3 -12 0 -14 -6 -5 -12 -11 16 -8 35 3 20 -19 4 -25 -18 -7 -27
-12 -29 -34 -15 -9 5 -13 22 -12 44 2 21 -2 36 -9 36 -6 0 -9 6 -6 13 2 6 0
20 -5 30 -5 10 -6 26 -2 35 4 9 9 26 11 37 2 11 8 22 13 23 6 2 10 10 10 17 0
8 8 19 18 24 16 10 15 10 -3 11 -11 1 -14 4 -7 7 18 7 15 27 -8 48 -20 18 -26
46 -13 58 3 4 15 0 25 -10 26 -24 34 -8 15 32 -10 21 -12 37 -7 40 6 3 10 1
10 -4 0 -6 5 -11 10 -11 7 0 9 25 6 68 -3 37 -3 56 0 42 3 -14 9 -29 13 -33
10 -10 24 51 15 64 -10 17 7 49 26 49 14 0 21 -10 26 -35 6 -33 24 -50 24 -23
0 7 5 6 13 -4 6 -9 19 -18 27 -20 19 -6 30 -106 15 -140 -4 -11 -3 -18 4 -18
6 0 11 8 12 18 0 9 3 12 5 6 3 -7 14 -10 24 -7 16 4 20 0 20 -23 l0 -29 13 25
c8 15 20 24 30 22 11 -2 17 4 17 18 0 11 -6 20 -12 20 -8 0 -9 3 -3 8 22 16
34 61 38 141 l4 83 -71 -7 c-99 -11 -121 -12 -296 -20 -85 -3 -205 -13 -266
-21 -192 -25 -1073 -58 -1189 -45 l-70 8 73 2 c39 0 72 5 72 10 0 5 11 8 25 6
25 -2 25 -1 10 21 -17 27 -10 32 14 10 9 -8 32 -15 51 -16 62 -3 66 -2 42 20
-12 11 -25 20 -31 20 -5 0 -11 6 -14 13 -2 6 -8 9 -12 5 -4 -4 -2 -14 5 -23 7
-9 8 -15 2 -15 -6 0 -12 4 -14 8 -1 4 -18 19 -37 32 -19 13 -31 19 -27 12 5
-8 0 -12 -12 -12 -11 0 -22 6 -25 14 -3 8 -20 14 -39 15 -18 1 -55 3 -83 5
-27 2 -65 5 -82 5 -23 1 -33 6 -33 17 0 12 -7 15 -25 12 -14 -3 -28 -1 -31 4
-3 5 -11 5 -18 -1 -8 -7 -32 -4 -76 10 -56 17 -77 19 -150 11 -47 -5 -101 -5
-119 -1 -19 4 -39 5 -45 2 -5 -3 -65 -6 -132 -5 -70 1 -126 -3 -129 -8 -8 -13
-45 -13 -45 0 0 6 -21 11 -47 10 -27 0 -55 1 -63 1 -8 1 -24 -2 -34 -7 -14 -5
-17 -4 -12 5 7 10 -5 11 -50 6 -33 -4 -77 -11 -99 -15 -103 -22 -1454 -16
-1714 7 -43 4 -52 2 -45 -8 6 -11 5 -12 -7 -3 -8 6 -51 12 -96 13 -46 1 -94 6
-107 11 -22 8 -206 13 -336 8 -30 -1 -77 2 -105 6 -27 5 -58 9 -67 9 -10 1
-18 5 -18 10 0 4 -19 8 -42 8 -24 0 -94 3 -156 7 -62 4 -117 3 -121 -1 -4 -4
-21 -2 -37 4 -16 7 -35 11 -41 10 -7 -1 -21 3 -31 8 -13 7 -23 6 -30 -1 -9 -9
-12 -9 -12 1 0 8 -14 12 -42 10 -24 -1 -56 3 -71 10 -35 14 -54 14 -62 1z
m190 -140 c18 -8 17 -9 -7 -9 -16 -1 -28 4 -28 9 0 12 8 12 35 0z m405 -29
c43 -8 42 -9 -25 -9 -38 -1 -88 3 -110 7 -37 8 -35 9 25 9 36 0 85 -3 110 -7z
m617 -57 c-3 -3 -12 -4 -19 -1 -8 3 -5 6 6 6 11 1 17 -2 13 -5z m71 -1 c-10
-2 -26 -2 -35 0 -10 3 -2 5 17 5 19 0 27 -2 18 -5z m382 -23 c54 -6 24 -7
-105 -3 -99 2 -198 9 -220 13 -49 11 215 3 325 -10z m4164 -326 c5 -14 4 -15
-9 -4 -17 14 -19 20 -6 20 5 0 12 -7 15 -16z m6 -48 c0 -8 -4 -18 -10 -21 -5
-3 -10 3 -10 14 0 12 5 21 10 21 6 0 10 -6 10 -14z m-5542 -337 c15 -24 10
-35 -10 -22 -13 8 -21 43 -9 43 3 0 12 -9 19 -21z m547 -3381 c-1 -13 -7 -34
-13 -48 -11 -24 -11 -23 -9 10 4 48 24 84 22 38z m141 -421 c-9 -15 -12 -15
-14 -2 -2 8 -8 15 -13 15 -5 0 -9 9 -9 20 0 20 1 20 24 3 19 -14 21 -21 12
-36z m34 -433 c0 -14 -4 -23 -10 -19 -5 3 -10 15 -10 26 0 10 5 19 10 19 6 0
10 -12 10 -26z m15 -1145 c10 -15 2 -19 -23 -12 -12 3 -19 9 -16 14 7 12 31
11 39 -2z"/>
<path d="M8135 9013 c-27 -3 -53 -9 -57 -15 -4 -8 -10 -9 -20 -1 -14 11 -134
9 -359 -7 -3 0 -6 -7 -6 -16 0 -15 13 -16 121 -10 67 4 168 10 226 13 58 2
119 6 135 7 17 1 50 3 75 4 26 1 40 6 35 11 -13 12 -88 19 -150 14z"/>
<path d="M8310 9012 c0 -5 16 -9 35 -10 20 -1 40 -4 45 -7 11 -7 40 5 40 16 0
5 -27 9 -60 9 -33 0 -60 -4 -60 -8z"/>
<path d="M7655 8980 c-3 -5 -17 -10 -30 -10 -24 0 -42 -16 -30 -28 3 -3 9 -2
13 4 4 6 22 10 40 9 25 -1 32 2 32 17 0 19 -15 24 -25 8z"/>
<path d="M9337 8962 c-14 -3 -17 -10 -13 -25 3 -12 6 -25 6 -29 0 -18 36 -6
46 16 9 19 8 25 -5 33 -9 5 -24 7 -34 5z m20 -34 c-3 -7 -5 -2 -5 12 0 14 2
19 5 13 2 -7 2 -19 0 -25z"/>
<path d="M9193 8945 c-18 -8 -33 -19 -33 -25 0 -5 -8 -10 -17 -10 -12 0 -14
-3 -6 -11 8 -8 17 -8 30 0 11 5 29 8 40 5 11 -3 25 1 32 10 17 21 55 22 48 1
-7 -17 11 -31 24 -18 6 6 6 19 1 33 -10 28 -71 36 -119 15z"/>
<path d="M9107 8932 c-13 -14 -14 -21 -5 -30 8 -8 16 -5 29 13 11 13 19 26 19
29 0 13 -28 5 -43 -12z"/>
<path d="M9330 8686 c0 -9 5 -16 10 -16 6 0 10 4 10 9 0 6 -4 13 -10 16 -5 3
-10 -1 -10 -9z"/>
<path d="M9245 8529 c4 -13 14 -31 22 -39 14 -13 15 -13 8 5 -4 11 -8 27 -9
34 -2 8 -8 17 -15 19 -9 3 -11 -2 -6 -19z"/>
<path d="M9440 8384 c0 -8 4 -14 9 -14 5 0 11 -10 14 -22 7 -26 12 -23 20 13
6 23 3 27 -18 31 -17 4 -25 1 -25 -8z"/>
<path d="M9511 8334 c0 -11 3 -14 6 -6 3 7 2 16 -1 19 -3 4 -6 -2 -5 -13z"/>
<path d="M3671 7044 c0 -11 3 -14 6 -6 3 7 2 16 -1 19 -3 4 -6 -2 -5 -13z"/>
<path d="M3740 6321 c0 -12 5 -21 10 -21 6 0 10 6 10 14 0 8 -4 18 -10 21 -5
3 -10 -3 -10 -14z"/>
<path d="M4265 4221 c-11 -20 -11 -67 1 -96 l13 -30 1 45 c0 25 3 55 6 68 6
22 -9 31 -21 13z"/>
<path d="M4260 4079 c0 -23 21 -79 30 -79 19 0 16 40 -6 66 -16 21 -23 24 -24
13z"/>
<path d="M4284 3976 c-8 -21 3 -49 16 -41 5 3 10 15 10 25 0 25 -18 36 -26 16z"/>
<path d="M4285 3910 c3 -5 8 -10 11 -10 2 0 4 5 4 10 0 6 -5 10 -11 10 -5 0
-7 -4 -4 -10z"/>
<path d="M4311 3744 c0 -11 3 -14 6 -6 3 7 2 16 -1 19 -3 4 -6 -2 -5 -13z"/>
</g>
</svg>
