<svg width="130" height="120" viewBox="0 0 130 120" fill="none" xmlns="http://www.w3.org/2000/svg">
<path fill-rule="evenodd" clip-rule="evenodd" d="M49.931 23.0393C42.7368 15.7263 34.9799 8.62428 32.4023 9.09667C29.2901 9.66702 25.8932 24.329 23.6567 36.0813C15.7219 43.3087 10.9319 52.6832 10.9319 62.9268C10.9319 85.7865 34.7862 104.318 64.212 104.318C93.6378 104.318 117.492 85.7865 117.492 62.9268C117.492 52.5631 112.589 43.089 104.487 35.828C102.25 24.1194 98.8795 9.66292 95.7896 9.09667C93.2168 8.62516 85.4841 15.6998 78.3014 22.9983C73.8135 22.0447 69.0893 21.5356 64.212 21.5356C59.2653 21.5356 54.4759 22.0594 49.931 23.0393Z" fill="#CCCCCC"/>
<g style="mix-blend-mode:multiply">
<path fill-rule="evenodd" clip-rule="evenodd" d="M49.9397 23.0374C47.7938 28.9181 46.1248 35.9109 49.8034 36.962C54.6706 38.3526 56.4173 33.2423 56.9886 30.5781C56.6207 33.7112 56.6659 40.5749 64.2121 40.2156C71.0195 39.8914 71.4966 34.5933 71.1621 31.417C71.9154 34.2817 73.8585 38.5494 78.6207 36.962C82.5533 35.6511 80.7184 28.7206 78.3713 22.9273C78.348 22.9509 78.3247 22.9746 78.3014 22.9983C73.8135 22.0447 69.0893 21.5356 64.2121 21.5356C59.2685 21.5356 54.4821 22.0587 49.9397 23.0374Z" fill="#C4C4C4" fill-opacity="0.6"/>
</g>
<path d="M113.684 67.2463C120.01 64.9837 121.106 64.6051 127.881 63.3976" stroke="#333333" stroke-width="1.76133" stroke-linecap="round" stroke-linejoin="round"/>
<path d="M112.68 80.015C119.263 81.7523 122.006 82.9135 128.875 83.5455" stroke="#333333" stroke-width="1.76133" stroke-linecap="round" stroke-linejoin="round"/>
<path d="M113.48 73.8265C119.531 74.1826 121.541 73.4693 127.583 72.7121" stroke="#333333" stroke-width="1.76133" stroke-linecap="round" stroke-linejoin="round"/>
<path d="M16.3162 67.2463C9.98972 64.9837 8.8933 64.6051 2.1188 63.3976" stroke="#333333" stroke-width="1.76133" stroke-linecap="round" stroke-linejoin="round"/>
<path d="M17.3199 80.015C10.7368 81.7523 7.99377 82.9135 1.12467 83.5455" stroke="#333333" stroke-width="1.76133" stroke-linecap="round" stroke-linejoin="round"/>
<path d="M16.5195 73.8265C10.4688 74.1826 8.45912 73.4693 2.41681 72.7121" stroke="#333333" stroke-width="1.76133" stroke-linecap="round" stroke-linejoin="round"/>
<circle cx="41.4371" cy="58.1698" r="10.6903" fill="white"/>
<mask id="mask0_64_8331" style="mask-type:alpha" maskUnits="userSpaceOnUse" x="30" y="47" width="23" height="22">
<circle cx="41.4371" cy="58.1698" r="10.6903" fill="white"/>
</mask>
<g mask="url(#mask0_64_8331)">
<circle cx="43.2963" cy="55.381" r="9.76068" fill="#333333"/>
</g>
<circle cx="44.813" cy="52.2498" r="1.98149" fill="white"/>
<circle cx="10.6903" cy="10.6903" r="10.6903" transform="matrix(-1 0 0 1 99.5364 47.4795)" fill="white"/>
<mask id="mask1_64_8331" style="mask-type:alpha" maskUnits="userSpaceOnUse" x="78" y="47" width="22" height="22">
<circle cx="10.6903" cy="10.6903" r="10.6903" transform="matrix(-1 0 0 1 99.5364 47.4795)" fill="white"/>
</mask>
<g mask="url(#mask1_64_8331)">
<circle cx="9.76068" cy="9.76068" r="9.76068" transform="matrix(-1 0 0 1 96.7476 45.6204)" fill="#333333"/>
</g>
<circle cx="1.98149" cy="1.98149" r="1.98149" transform="matrix(-1 0 0 1 87.4517 50.2683)" fill="white"/>
<ellipse cx="64.5" cy="74.5" rx="18.5" ry="13.5" fill="white" fill-opacity="0.25"/>
<path d="M69.0068 69.3361C69.0068 71.0384 67.0354 72.4185 64.6035 72.4185C62.1716 72.4185 60.2002 71.0384 60.2002 69.3361C60.2002 67.6338 62.1716 65.8135 64.6035 65.8135C67.0354 65.8135 69.0068 67.6338 69.0068 69.3361Z" fill="#333333"/>
<path d="M64.6034 68.0151V74.1798C64.6034 76.1253 63.0263 77.7024 61.0808 77.7024H59.9799C58.6424 77.7024 57.5581 76.6181 57.5581 75.2806V75.2806" stroke="#323232" stroke-width="1.32099" stroke-linecap="round" stroke-linejoin="round"/>
<path d="M64.6034 68.0151V74.1798C64.6034 76.1253 66.1805 77.7024 68.126 77.7024H69.2269C70.5644 77.7024 71.6487 76.6181 71.6487 75.2806V75.2806" stroke="#323232" stroke-width="1.32099" stroke-linecap="round" stroke-linejoin="round"/>
<path d="M27.9867 32.5758C29.2869 26.1415 30.5456 21.8142 33.1519 15.159C33.3507 14.6513 33.9625 14.4463 34.4253 14.7344C39.4747 17.8776 42.2522 20.2855 46.0819 24.4084C46.5254 24.8859 46.3063 25.6621 45.6804 25.8438C39.0553 27.767 34.9386 29.0465 29.4599 33.4423C28.8054 33.9674 27.8205 33.3983 27.9867 32.5758Z" fill="#B0B0B0"/>
<path d="M99.3188 31.9495C98.655 25.3536 98.0239 21.432 95.2841 14.6819C95.08 14.179 94.4689 13.9834 94.011 14.2747C89.4331 17.1866 86.8201 19.3483 82.5328 23.3567C82.0353 23.8218 82.234 24.652 82.8866 24.8468C89.3907 26.7877 92.4689 28.1688 97.845 32.7092C98.4556 33.2249 99.3988 32.7448 99.3188 31.9495Z" fill="#B0B0B0"/>
<circle cx="1.82108" cy="1.82108" r="1.82108" transform="matrix(-0.993492 0.113903 0.113903 0.993492 79.365 7.23694)" fill="#FFC547"/>
<circle cx="1.82108" cy="1.82108" r="1.82108" transform="matrix(-0.993492 0.113903 0.113903 0.993492 68.5847 1.14087)" fill="#FFC547"/>
<circle cx="1.82108" cy="1.82108" r="1.82108" transform="matrix(-0.993492 0.113903 0.113903 0.993492 55.7568 3.83362)" fill="#FFC547"/>
<path d="M77.6647 13.9444L75.2449 25.6172C75.1303 26.1701 74.5433 26.4853 74.0159 26.2836C67.3487 23.7347 62.7757 22.8231 55.5976 23.6923C55.0414 23.7597 54.5463 23.3236 54.5573 22.7634L54.8047 10.1837C54.8208 9.36205 55.8312 8.98053 56.3864 9.58639L60.4391 14.0091C60.8638 14.4725 61.6192 14.3765 61.9143 13.8215L65.5479 6.99C65.9299 6.27193 66.99 6.37674 67.2239 7.15569L69.7169 15.4571C69.8854 16.0181 70.5321 16.2764 71.0407 15.9858L76.3215 12.969C77.0024 12.5799 77.8239 13.1764 77.6647 13.9444Z" fill="#FFC547"/>
<ellipse cx="37" cy="81" rx="6" ry="2" fill="#FFA787"/>
<ellipse cx="93" cy="81" rx="6" ry="2" fill="#FFA787"/>
<circle cx="36.789" cy="56.3105" r="19.9862" stroke="#323232" stroke-width="1.85918"/>
<circle cx="92.5644" cy="56.3105" r="19.9862" stroke="#323232" stroke-width="1.85918"/>
<path d="M56.7751 54.7739C62.7274 53.7146 66.2205 53.7337 72.5782 54.7739V58.6345C66.5071 57.669 63.0453 57.6555 56.7751 58.6345V54.7739Z" fill="#242424"/>
</svg>
