<svg width="532" height="309" viewBox="0 0 532 309" fill="none" xmlns="http://www.w3.org/2000/svg">
<path d="M187.577 62.8077C218.684 52.9445 217.293 100.427 212.709 125.401C247.799 77.5077 289.054 22.5013 309.444 7.32715C326.895 -8.60572 341.373 5.11426 346.431 13.9659C375.229 -1.42258 390.403 23.2354 384.841 36.7271C422.648 35.0903 411.238 70.2367 401.912 90.3109C426.949 89.9315 424.673 113.546 420.406 125.401C391.195 228.206 339.319 281.727 317.032 295.636C304.861 302.907 268 313.087 217.925 295.636C167.851 278.186 152.487 214.391 151.064 184.675C150.274 148.162 156.47 72.6709 187.577 62.8077Z" fill="#FF8E88"/>
<path d="M148.577 65.8077C179.684 55.9445 178.293 103.427 173.709 128.401C208.799 80.5077 250.054 25.5013 270.444 10.3272C287.895 -5.60572 302.373 8.11426 307.431 16.9659C342.711 1.03299 347.738 25.5013 345.841 39.7271C381.88 34.4161 372.238 73.2367 362.912 93.3109C387.949 92.9315 385.673 116.546 381.406 128.401C352.195 231.206 300.319 284.727 278.032 298.636C265.861 305.907 229 316.087 178.925 298.636C128.851 281.186 113.487 217.391 112.064 187.675C111.274 151.162 117.47 75.6709 148.577 65.8077Z" fill="#FFBDB8"/>
<path d="M307.133 17.9141C284.135 40.6753 237.569 111.235 237.19 120.34C236.716 131.72 307.133 25.7382 307.133 17.9141Z" fill="#FF8E88" stroke="#FF8E88" stroke-width="0.474193"/>
<path d="M345.716 39.4902C323.722 63.2231 280.246 135.728 280.26 144.84C280.278 156.23 346.054 47.3071 345.716 39.4902Z" fill="#FF8E88" stroke="#FF8E88" stroke-width="0.474193"/>
<path d="M362.605 93.5486C347.58 110.894 317.934 163.935 317.962 170.612C317.997 178.959 362.853 99.2773 362.605 93.5486Z" fill="#FF8E88" stroke="#FF8E88" stroke-width="0.474193"/>
<circle cx="3.5" cy="102.5" r="19.5" fill="#EDC8C9"/>
<circle cx="49.5" cy="150.5" r="14.5" fill="#FDEBEC"/>
<circle cx="474.5" cy="209.5" r="14.5" fill="#EDC8C9"/>
<circle cx="485.5" cy="132.5" r="10.5" fill="#FDEBEC"/>
<circle cx="537" cy="148" r="15" fill="#FDEBEC"/>
</svg>
