<svg width="360" height="417" viewBox="0 0 360 417" fill="none" xmlns="http://www.w3.org/2000/svg">
<path d="M224.077 10.1485C221.725 5.6164 215.437 4.90301 212.587 5.11283C174.006 2.13281 163.445 58.9163 162.906 88.8579C178.096 82.8368 195.765 85.7016 202.701 87.8867C189.662 43.5728 203.859 26.6193 212.587 23.6819C224.558 18.3944 225.234 12.4565 224.077 10.1485Z" fill="#F7DD9C"/>
<path d="M162.889 90.0897C162.893 89.6845 162.899 89.2738 162.906 88.8579M162.906 88.8579C163.445 58.9163 174.006 2.13281 212.587 5.11283C215.437 4.90301 221.725 5.6164 224.077 10.1485C225.234 12.4565 224.558 18.3944 212.587 23.6819C203.859 26.6193 189.662 43.5728 202.701 87.8867C195.765 85.7016 178.096 82.8368 162.906 88.8579Z" stroke="#161A3A" stroke-width="9.08457"/>
<path d="M355.458 255.22C355.458 294.429 345.77 329.708 330.346 355.035C314.873 380.442 294.112 395.178 272 395.178C249.888 395.178 229.127 380.442 213.654 355.035C198.23 329.708 188.542 294.429 188.542 255.22C188.542 216.012 198.23 180.733 213.654 155.406C229.127 129.999 249.888 115.263 272 115.263C294.112 115.263 314.873 129.999 330.346 155.406C345.77 180.733 355.458 216.012 355.458 255.22Z" fill="#7894CF" stroke="#161A3A" stroke-width="9.08457"/>
<path d="M315.458 253.22C315.458 296.647 305.737 335.737 290.248 363.81C274.671 392.043 253.886 408.178 232 408.178C210.114 408.178 189.329 392.043 173.752 363.81C158.263 335.737 148.542 296.647 148.542 253.22C148.542 209.794 158.263 170.704 173.752 142.631C189.329 114.398 210.114 98.2628 232 98.2628C253.886 98.2628 274.671 114.398 290.248 142.631C305.737 170.704 315.458 209.794 315.458 253.22Z" fill="#F7DD9C" stroke="#161A3A" stroke-width="9.08457"/>
<path d="M171.458 255.22C171.458 294.429 161.77 329.708 146.346 355.035C130.873 380.442 110.112 395.178 88 395.178C65.8884 395.178 45.127 380.442 29.6541 355.035C14.2301 329.708 4.54228 294.429 4.54228 255.22C4.54228 216.012 14.2301 180.733 29.6541 155.406C45.127 129.999 65.8884 115.263 88 115.263C110.112 115.263 130.873 129.999 146.346 155.406C161.77 180.733 171.458 216.012 171.458 255.22Z" fill="#7894CF" stroke="#161A3A" stroke-width="9.08457"/>
<path d="M216.458 251.721C216.458 295.523 206.137 334.957 189.687 363.284C173.169 391.726 151.023 408.178 127.5 408.178C103.977 408.178 81.831 391.726 65.3135 363.284C48.8627 334.957 38.5423 295.523 38.5423 251.721C38.5423 207.918 48.8627 168.484 65.3135 140.157C81.831 111.715 103.977 95.2628 127.5 95.2628C151.023 95.2628 173.169 111.715 189.687 140.157C206.137 168.484 216.458 207.918 216.458 251.721Z" fill="#F7DD9C" stroke="#161A3A" stroke-width="9.08457"/>
<path d="M276.458 249.221C276.458 294.828 265.853 335.895 248.941 365.402C231.957 395.036 209.183 412.178 185 412.178C160.817 412.178 138.043 395.036 121.059 365.402C104.147 335.895 93.5423 294.828 93.5423 249.221C93.5423 203.613 104.147 162.546 121.059 133.039C138.043 103.405 160.817 86.2628 185 86.2628C209.183 86.2628 231.957 103.405 248.941 133.039C265.853 162.546 276.458 203.613 276.458 249.221Z" fill="#C7CEF4" stroke="#161A3A" stroke-width="9.08457"/>
<ellipse cx="146" cy="221.221" rx="8" ry="9.5" fill="#161A3A"/>
<ellipse cx="224" cy="221.221" rx="8" ry="9.5" fill="#161A3A"/>
<path d="M167.967 230.774C174.023 238.852 186.67 250.602 201.633 230.774" stroke="#161A3A" stroke-width="6.41264" stroke-linecap="round" stroke-linejoin="round"/>
</svg>
