<svg width="346" height="319" viewBox="0 0 346 319" fill="none" xmlns="http://www.w3.org/2000/svg">
<path d="M181.057 12.7422L226.461 97.8062L227.908 100.518L230.955 100.927L331.47 114.432L259.069 179.687L256.574 181.936L257.187 185.238L274.383 277.945L183.68 233.854L181.057 232.579L178.434 233.854L87.7316 277.945L104.928 185.238L105.541 181.936L103.046 179.687L30.6448 114.432L131.16 100.927L134.206 100.518L135.654 97.8062L181.057 12.7422Z" fill="#F3CD6D" stroke="#F3CD6D" stroke-width="12"/>
<ellipse cx="140.415" cy="140.239" rx="8.41463" ry="9.23933" fill="#161A3A"/>
<ellipse cx="222.457" cy="140.239" rx="8.41463" ry="9.23933" fill="#161A3A"/>
<path d="M163.52 149.531C169.89 157.387 183.193 168.814 198.931 149.531" stroke="#161A3A" stroke-width="6.41264" stroke-linecap="round" stroke-linejoin="round"/>
</svg>
