<?xml version="1.0" standalone="no"?>
<!DOCTYPE svg PUBLIC "-//W3C//DTD SVG 20010904//EN"
 "http://www.w3.org/TR/2001/REC-SVG-20010904/DTD/svg10.dtd">
<svg version="1.0" xmlns="http://www.w3.org/2000/svg"
 width="2000.000000pt" height="1333.000000pt" viewBox="0 0 2000.000000 1333.000000"
 preserveAspectRatio="xMidYMid meet">

<g transform="translate(0.000000,1333.000000) scale(0.100000,-0.100000)"
fill="#000000" stroke="none">
<path d="M5088 9443 c6 -2 18 -2 25 0 6 3 1 5 -13 5 -14 0 -19 -2 -12 -5z"/>
<path d="M6340 9440 c98 -6 92 -6 -80 -9 -153 -3 -173 -5 -115 -11 39 -5 90
-13 115 -19 24 -5 47 -7 50 -3 8 11 90 15 90 4 0 -5 12 -10 28 -10 15 -1 72
-4 127 -6 55 -3 106 -6 113 -6 6 0 12 -5 12 -11 0 -6 -9 -9 -20 -6 -11 3 -18
1 -14 -4 8 -14 19 -11 72 14 37 18 55 21 73 15 13 -5 40 -8 59 -7 19 1 44 -2
55 -6 11 -4 33 -12 48 -17 19 -8 31 -8 38 -1 7 7 -1 13 -25 17 -20 4 -36 11
-36 16 0 5 15 4 33 -2 17 -5 42 -12 55 -15 27 -6 40 -23 17 -23 -9 0 -14 -4
-11 -8 3 -5 20 -7 38 -5 64 9 233 9 243 2 6 -5 82 -10 168 -12 87 -3 160 -7
163 -10 11 -11 -321 -6 -334 5 -14 12 -27 4 -18 -11 4 -5 34 -10 69 -10 34 0
116 -2 182 -4 120 -4 184 3 137 15 -30 8 -28 24 5 33 l28 7 -25 13 c-25 14
-25 14 15 15 35 1 38 2 22 14 -9 7 -29 11 -43 8 -24 -4 -25 -2 -19 18 l7 23
-603 -6 c-358 -3 -597 -2 -588 4 9 5 -34 8 -111 7 l-125 -2 105 -6z m-57 -27
c-7 -2 -21 -2 -30 0 -10 3 -4 5 12 5 17 0 24 -2 18 -5z m441 -11 c2 -4 -7 -9
-22 -10 -21 -1 -24 0 -12 8 18 12 27 12 34 2z m549 -9 c-7 -2 -19 -2 -25 0 -7
3 -2 5 12 5 14 0 19 -2 13 -5z m-64 -12 c12 -8 10 -11 -11 -16 -14 -4 -39 -5
-54 -2 -21 3 -16 4 16 6 33 1 41 4 30 11 -8 5 -10 10 -5 10 6 0 17 -4 24 -9z
m459 -28 c-10 -2 -26 -2 -35 0 -10 3 -2 5 17 5 19 0 27 -2 18 -5z"/>
<path d="M13756 9443 c-2 -2 -1274 -4 -2827 -5 -2931 -2 -3259 -4 -3259 -16 0
-4 31 -6 70 -4 62 3 70 2 70 -14 0 -14 -3 -15 -12 -6 -18 18 -28 15 -28 -9 0
-18 4 -20 28 -14 56 15 158 9 112 -7 -5 -1 101 -5 238 -6 136 -2 249 -6 251
-8 2 -2 -48 -4 -113 -4 -76 0 -115 -4 -111 -10 4 -6 87 -10 216 -10 138 0 208
-3 204 -10 -4 -6 -116 -10 -302 -10 -163 0 -294 -2 -292 -5 3 -2 101 -5 218
-6 138 -1 209 -5 203 -11 -10 -10 -5667 6 -6239 18 -288 7 -313 6 -319 -10 -4
-9 -5 -19 -2 -21 2 -3 164 -6 359 -7 l354 -3 7 -105 c10 -157 28 -1139 30
-1689 1 -382 3 -444 8 -291 7 187 5 478 -5 1083 -4 234 -2 277 9 277 8 0 17
10 19 23 3 18 5 17 6 -7 1 -28 2 -29 47 -22 26 3 70 6 98 7 34 0 45 3 32 8
-17 7 -18 8 -3 14 10 4 14 12 10 23 -3 9 0 20 8 25 9 5 10 9 2 9 -8 0 -10 19
-6 68 3 37 6 95 7 129 0 35 4 63 7 63 11 0 6 30 -5 30 -6 0 -4 5 4 10 13 9 13
10 0 11 -10 0 -8 3 5 9 l20 9 -20 0 c-15 1 -17 3 -6 10 9 6 10 11 2 15 -13 8
-15 46 -2 46 4 0 8 10 7 23 -1 12 3 25 9 29 6 5 6 8 -2 8 -7 0 -13 5 -13 11 0
15 26 39 44 39 25 0 28 18 4 23 -13 2 -6 5 18 6 22 0 45 6 51 12 15 15 593 21
693 8 88 -12 155 -17 302 -20 59 -2 105 -6 102 -10 -5 -8 27 -22 34 -14 3 3 0
5 -6 5 -7 0 -12 5 -12 10 0 7 8 6 22 -2 26 -14 138 -19 138 -7 0 5 6 7 13 5 6
-3 25 -7 40 -10 16 -4 25 -11 21 -17 -4 -8 -1 -8 12 -1 13 7 44 6 98 -4 44 -7
82 -11 85 -9 2 3 -4 5 -15 6 -16 0 -16 2 4 10 17 6 30 4 47 -7 19 -12 43 -15
100 -12 63 3 71 1 52 -9 -12 -7 -17 -12 -11 -13 5 0 19 6 29 14 16 11 24 11
53 -1 18 -8 31 -9 27 -4 -4 8 21 10 77 9 75 -1 78 -2 33 -8 l-50 -7 70 -3 70
-4 -95 -6 -95 -7 94 1 c63 1 96 5 98 13 2 6 -4 13 -14 16 -13 3 -12 3 2 1 11
-1 38 -9 60 -18 l40 -15 -35 0 c-35 0 -118 -18 -90 -20 8 0 55 4 105 9 70 7
95 6 116 -4 15 -8 39 -11 53 -9 14 3 33 0 41 -7 16 -13 136 -17 177 -6 33 10
101 -1 93 -15 -7 -10 42 -12 100 -2 31 5 35 8 20 14 -16 6 -12 8 15 8 19 1 46
4 59 8 16 4 22 3 17 -5 -3 -6 -2 -13 4 -17 5 -3 10 -2 10 4 0 5 33 13 73 17
60 7 66 9 37 14 -33 5 -32 6 19 13 30 3 57 4 60 2 2 -3 -5 -5 -17 -5 -12 0
-22 -4 -22 -10 0 -5 11 -10 24 -10 14 0 27 -4 30 -9 3 -5 -16 -7 -42 -5 -43 3
-44 2 -12 -5 19 -5 29 -9 21 -10 -8 0 -12 -3 -10 -6 3 -2 24 2 47 8 24 7 41
15 38 18 -7 7 203 -2 249 -11 36 -7 32 -8 -35 -10 l-75 -3 80 -10 c44 -5 82
-13 85 -17 3 -4 14 -10 25 -12 11 -3 -49 -5 -134 -6 -85 -1 -156 -4 -159 -7
-3 -3 39 -5 94 -5 73 0 95 -3 84 -11 -11 -8 -2 -9 34 -5 27 3 75 6 108 6 40 0
57 4 52 11 -4 7 10 9 47 4 30 -3 92 -8 139 -10 47 -1 99 -6 115 -9 23 -5 26
-4 10 3 -18 8 -16 10 10 10 17 0 89 -7 160 -14 l130 -13 -135 4 c-102 3 -129
1 -110 -7 14 -6 59 -11 100 -10 41 0 104 -4 139 -10 52 -9 65 -9 73 2 7 11 11
11 15 2 2 -7 12 -13 21 -13 15 0 15 2 2 10 -12 7 -8 10 15 10 39 0 118 -24
109 -33 -4 -4 -2 -7 5 -7 7 0 10 -3 8 -7 -3 -5 11 -9 31 -10 l37 -2 -33 16
c-18 9 -31 18 -28 20 2 3 13 0 24 -6 12 -6 46 -11 76 -11 31 0 56 -4 56 -9 0
-5 -9 -7 -19 -4 -11 3 -28 0 -38 -6 -13 -8 10 -10 95 -11 63 0 156 -5 208 -11
84 -10 97 -9 113 5 20 18 36 22 26 6 -3 -5 -1 -10 4 -10 6 0 11 5 11 10 0 15
33 12 56 -5 12 -8 40 -19 63 -24 36 -8 40 -7 30 6 -11 12 -8 13 17 9 l29 -6
-29 11 c-21 9 -30 9 -35 0 -9 -14 -54 0 -67 20 -5 9 4 10 42 4 27 -4 146 -9
264 -11 213 -3 277 -11 273 -33 -2 -6 3 -11 11 -11 8 0 16 -5 18 -11 4 -12 88
10 88 23 0 4 12 3 27 -3 15 -6 61 -8 103 -5 l75 5 -60 -10 c-33 -5 -78 -8
-100 -5 -30 4 -35 3 -20 -4 16 -8 13 -9 -17 -8 -20 1 -41 -1 -45 -6 -4 -4 28
-5 72 -2 163 12 319 17 311 9 -4 -4 -53 -11 -109 -14 l-102 -5 132 -2 c72 -1
143 2 158 8 14 5 24 6 21 1 -4 -5 11 -7 34 -4 26 4 40 2 40 -6 0 -6 5 -11 11
-11 5 0 8 4 5 9 -9 13 65 24 77 12 8 -8 6 -11 -6 -11 -9 0 -17 -5 -17 -10 0
-6 16 -4 37 5 43 18 185 14 209 -5 7 -7 19 -10 26 -7 8 4 7 6 -4 6 -9 1 -20 6
-24 12 -7 11 47 11 346 -4 47 -2 74 -1 60 3 -28 8 -208 23 -282 24 -25 1 -44
5 -41 10 3 5 35 5 72 2 36 -4 113 -11 170 -16 62 -6 108 -15 112 -22 5 -8 11
-9 21 -1 7 6 31 10 52 9 22 -1 45 4 53 12 7 8 22 11 33 7 11 -3 85 -7 165 -7
157 -2 200 -14 58 -17 -48 -1 -89 -4 -92 -7 -2 -2 52 -4 120 -3 90 0 117 3
100 10 -13 5 -22 11 -20 13 2 1 47 -1 99 -6 52 -5 117 -9 144 -8 27 1 52 -3
55 -8 3 -5 32 -12 64 -15 43 -4 57 -2 57 7 0 9 9 11 28 8 19 -4 22 -7 10 -10
-10 -2 -18 -7 -18 -12 0 -5 17 -4 37 2 25 7 70 7 142 -1 58 -6 133 -10 166 -9
59 2 59 2 -20 9 -63 5 -58 5 25 2 222 -11 296 -11 271 -2 -13 5 -39 7 -57 3
-20 -4 -34 -2 -34 3 0 6 59 10 143 11 78 1 201 2 272 3 72 0 155 -2 185 -5 33
-4 50 -3 42 2 -22 15 34 21 102 11 34 -5 85 -9 113 -9 34 0 52 -4 50 -11 -1
-6 4 -14 11 -16 7 -3 11 -1 10 4 -3 9 5 13 28 13 8 0 12 -4 9 -10 -4 -6 5 -10
20 -10 16 0 24 4 20 10 -8 12 83 3 123 -11 13 -5 28 -7 32 -4 5 3 27 1 49 -4
24 -5 39 -5 35 0 -5 9 5 10 141 11 73 0 76 1 30 8 -43 6 -45 7 -15 9 19 0 59
4 89 8 37 4 52 3 48 -4 -4 -6 0 -14 9 -17 22 -8 82 -7 87 2 3 4 -16 6 -41 5
-39 -2 -42 -1 -17 6 17 4 47 6 69 4 21 -1 47 2 57 8 14 7 19 7 17 -2 -2 -6 12
-12 30 -14 23 -2 32 1 32 12 0 12 9 14 45 9 27 -5 45 -3 45 3 0 13 153 3 161
-11 4 -7 9 -6 13 1 7 10 81 8 144 -5 12 -2 22 0 22 5 0 6 -19 12 -42 14 -24 2
22 3 102 2 80 -1 152 -5 159 -10 10 -5 12 -4 7 3 -7 11 42 18 84 12 7 -1 38 1
68 5 44 5 51 9 41 21 -9 11 -8 14 5 14 9 0 16 -7 16 -15 0 -11 11 -15 43 -15
23 0 53 -3 67 -7 14 -3 22 -3 18 2 -4 4 -31 11 -60 15 -52 7 -51 8 32 10 66 2
77 4 50 10 -25 5 -11 7 46 6 45 0 77 -4 71 -8 -6 -4 -8 -10 -4 -14 4 -4 35 5
68 19 44 19 66 24 78 17 13 -8 10 -9 -12 -10 -34 0 -67 -16 -67 -33 0 -8 3 -8
9 2 5 8 16 11 29 7 12 -4 30 -3 40 3 24 13 89 16 125 6 17 -5 27 -3 27 4 0 6
-12 11 -27 11 -20 0 -24 3 -15 9 10 6 7 10 -13 15 -15 4 -25 9 -22 13 3 3 20
-2 38 -11 18 -9 39 -16 48 -15 12 0 11 3 -4 9 -14 6 -16 9 -5 10 8 2 20 1 25
0 19 -5 155 -7 150 -2 -3 3 -22 8 -42 12 -31 6 -24 8 35 8 69 0 97 -12 50 -21
-13 -2 13 -4 57 -5 66 0 74 1 48 9 -18 5 -33 12 -33 15 0 4 15 4 33 1 17 -2
49 2 71 9 21 8 55 14 75 15 33 1 34 2 11 9 l-25 8 23 1 c16 1 26 -6 29 -19 6
-22 18 -26 28 -10 4 6 10 8 15 5 5 -3 34 1 65 9 38 10 66 11 86 6 18 -6 41 -5
56 1 14 5 50 8 79 6 53 -4 75 7 32 16 -13 2 -2 5 24 6 29 0 48 -4 50 -11 3 -9
9 -8 21 4 13 12 14 18 4 21 -6 2 -3 2 8 0 11 -2 44 -6 73 -10 41 -5 52 -3 50
7 -2 8 6 16 16 18 14 3 17 0 13 -12 -4 -10 -1 -16 7 -16 8 0 23 -2 33 -5 11
-3 9 -1 -4 6 -13 7 -23 15 -23 19 0 12 154 8 163 -4 6 -8 10 -7 14 2 6 15 143
17 143 2 0 -5 -12 -10 -27 -10 -14 0 -24 -3 -20 -6 3 -3 24 -3 47 1 l42 7 -27
14 c-15 8 -35 14 -44 15 -9 1 -5 4 9 8 23 6 81 -7 96 -22 4 -3 16 0 28 8 12 9
44 15 80 15 72 0 70 -9 -2 -11 -57 -2 -77 -14 -37 -21 13 -3 22 -2 20 2 -6 10
140 24 238 22 45 -1 77 3 77 9 0 10 228 6 378 -7 91 -8 95 -25 5 -19 -58 3
-55 2 17 -6 47 -5 103 -14 125 -18 l40 -9 -45 -2 c-46 -2 -46 -4 3 -14 15 -4
25 -11 22 -16 -3 -5 3 -15 15 -22 11 -7 20 -18 20 -25 0 -7 6 -13 13 -13 9 0
8 -3 -2 -9 -10 -6 -6 -11 15 -19 28 -10 28 -10 4 -11 -27 -1 -18 -16 15 -24
18 -4 18 -5 -2 -6 -32 -1 -29 -19 5 -24 24 -4 23 -4 -8 -6 l-35 -3 40 -13 c31
-10 35 -13 16 -14 -24 -1 -24 -1 -5 -16 19 -14 19 -14 -1 -15 -17 -1 -17 -3 5
-11 18 -7 21 -12 12 -18 -11 -6 -10 -11 3 -25 15 -15 15 -16 -2 -17 -17 0 -16
-1 1 -8 14 -5 16 -10 8 -15 -7 -4 -9 -12 -6 -18 4 -6 0 -14 -7 -19 -9 -5 20
-9 76 -11 82 -1 157 1 162 5 1 1 5 107 9 235 4 128 11 235 15 238 5 3 10 -5
10 -18 1 -13 7 9 14 47 l12 70 3 -65 c3 -90 17 -35 20 80 2 98 18 158 19 72 1
-33 5 -51 11 -47 6 3 10 15 10 26 0 25 17 24 25 -2 5 -15 10 -18 18 -10 15 15
57 14 57 -1 0 -10 2 -10 9 0 5 8 24 12 50 11 28 -2 46 2 52 12 8 12 12 11 24
-5 13 -17 15 -18 15 -3 0 19 20 24 20 5 1 -8 6 -6 14 5 13 16 14 16 21 -5 l8
-23 4 23 c4 21 23 32 23 13 0 -19 35 -22 48 -4 11 16 14 16 22 3 9 -13 11 -13
20 0 9 13 12 13 23 -1 11 -14 14 -14 32 3 19 18 19 18 32 -4 7 -13 12 -30 13
-38 0 -11 13 -16 46 -18 38 -2 45 0 41 12 -3 8 -1 16 4 18 6 2 12 29 15 61 2
32 6 64 7 70 1 9 -26 12 -93 12 -52 -1 -750 -3 -1550 -6 -800 -4 -1349 -3
-1220 0 199 6 214 7 94 9 l-140 2 0 58 1 59 73 0 c40 0 75 3 79 6 3 4 -90 7
-208 7 -118 0 -483 1 -812 2 -329 2 -600 2 -601 1z m894 -77 c0 -3 -8 -3 -17
-1 -10 2 -22 4 -26 4 -5 1 -5 6 -2 11 6 9 45 -4 45 -14z m-6157 -13 c-7 -2
-19 -2 -25 0 -7 3 -2 5 12 5 14 0 19 -2 13 -5z m210 0 c-34 -2 -93 -2 -130 0
-37 2 -9 3 62 3 72 0 102 -1 68 -3z m1610 0 c-7 -2 -19 -2 -25 0 -7 3 -2 5 12
5 14 0 19 -2 13 -5z m4304 -9 c-3 -3 -12 -4 -19 -1 -8 3 -5 6 6 6 11 1 17 -2
13 -5z m-5402 -20 c167 -3 226 -1 215 7 -13 9 -12 10 3 5 10 -3 31 -7 45 -7
21 -1 18 -3 -13 -10 -48 -9 -436 -12 -524 -3 -33 4 -61 11 -61 17 0 6 20 7 53
2 28 -3 156 -8 282 -11z m1242 -8 c5 -5 -13 -6 -42 -3 -30 3 -42 2 -30 -2 17
-7 14 -9 -15 -13 -19 -2 26 -2 100 0 74 1 252 -1 395 -6 200 -7 1 -9 -867 -10
-621 -1 -1128 1 -1128 6 0 4 327 7 727 6 473 0 714 3 688 9 -22 5 -65 11 -95
12 -73 4 -78 5 -58 13 24 10 315 -1 325 -12z m4206 17 c-7 -2 -19 -2 -25 0 -7
3 -2 5 12 5 14 0 19 -2 13 -5z m44 1 c-3 -3 -12 -4 -19 -1 -8 3 -5 6 6 6 11 1
17 -2 13 -5z m-5974 -11 c3 -5 -23 -8 -58 -8 -35 0 -61 3 -59 7 7 10 111 10
117 1z m1817 -3 c-19 -13 -30 -13 -30 0 0 6 10 10 23 10 18 0 19 -2 7 -10z
m68 3 c-10 -2 -26 -2 -35 0 -10 3 -2 5 17 5 19 0 27 -2 18 -5z m65 0 c-7 -2
-21 -2 -30 0 -10 3 -4 5 12 5 17 0 24 -2 18 -5z m714 1 c-3 -3 -12 -4 -19 -1
-8 3 -5 6 6 6 11 1 17 -2 13 -5z m151 -1 c-16 -2 -40 -2 -55 0 -16 2 -3 4 27
4 30 0 43 -2 28 -4z m315 -2 c10 -4 -41 -5 -115 -3 -182 4 -201 9 -38 10 74 0
143 -3 153 -7z m105 -8 c-10 -2 -26 -2 -35 0 -10 3 -2 5 17 5 19 0 27 -2 18
-5z m69 1 c-3 -3 -12 -4 -19 -1 -8 3 -5 6 6 6 11 1 17 -2 13 -5z m80 0 c-3 -3
-12 -4 -19 -1 -8 3 -5 6 6 6 11 1 17 -2 13 -5z m106 -1 c-13 -2 -35 -2 -50 0
-16 2 -5 4 22 4 28 0 40 -2 28 -4z m-3526 -19 c-11 -12 -234 -16 -241 -5 -5 8
30 11 120 11 70 0 125 -3 121 -6z m4346 -6 c-2 -5 -50 -8 -106 -7 -56 0 -94 3
-85 7 24 9 197 9 191 0z m64 6 c-3 -3 -12 -4 -19 -1 -8 3 -5 6 6 6 11 1 17 -2
13 -5z m86 -1 c-7 -2 -21 -2 -30 0 -10 3 -4 5 12 5 17 0 24 -2 18 -5z m75 0
c-10 -2 -28 -2 -40 0 -13 2 -5 4 17 4 22 1 32 -1 23 -4z m399 1 c-3 -3 -12 -4
-19 -1 -8 3 -5 6 6 6 11 1 17 -2 13 -5z m626 -1 c-62 -2 -165 -2 -230 0 -65 1
-14 3 112 3 127 0 180 -2 118 -3z m195 0 c-10 -2 -26 -2 -35 0 -10 3 -2 5 17
5 19 0 27 -2 18 -5z m165 0 c-24 -2 -62 -2 -85 0 -24 2 -5 4 42 4 47 0 66 -2
43 -4z m204 1 c-3 -3 -12 -4 -19 -1 -8 3 -5 6 6 6 11 1 17 -2 13 -5z m131 -1
c-21 -2 -55 -2 -75 0 -21 2 -4 4 37 4 41 0 58 -2 38 -4z m-2625 -10 c-200 -2
-526 -2 -725 0 -200 1 -37 2 362 2 399 0 562 -1 363 -2z m454 1 c-3 -3 -12 -4
-19 -1 -8 3 -5 6 6 6 11 1 17 -2 13 -5z m-8677 -128 c0 -3 -4 -8 -10 -11 -5
-3 -10 -1 -10 4 0 6 5 11 10 11 6 0 10 -2 10 -4z m445 -36 c-3 -5 -10 -10 -16
-10 -5 0 -9 5 -9 10 0 6 7 10 16 10 8 0 12 -4 9 -10z m563 -47 c-10 -2 -28 -2
-40 0 -13 2 -5 4 17 4 22 1 32 -1 23 -4z m360 0 c-10 -2 -28 -2 -40 0 -13 2
-5 4 17 4 22 1 32 -1 23 -4z m255 0 c-7 -2 -19 -2 -25 0 -7 3 -2 5 12 5 14 0
19 -2 13 -5z m70 0 c-7 -2 -19 -2 -25 0 -7 3 -2 5 12 5 14 0 19 -2 13 -5z
m-623 -13 c8 -5 11 -10 5 -10 -5 0 -17 5 -25 10 -8 5 -10 10 -5 10 6 0 17 -5
25 -10z m448 3 c-10 -2 -28 -2 -40 0 -13 2 -5 4 17 4 22 1 32 -1 23 -4z m160
-10 c-15 -2 -42 -2 -60 0 -18 2 -6 4 27 4 33 0 48 -2 33 -4z m367 -7 c11 -2
-13 -4 -53 -5 -40 0 -71 2 -68 7 4 7 73 6 121 -2z m-478 -2 c-3 -3 -12 -4 -19
-1 -8 3 -5 6 6 6 11 1 17 -2 13 -5z m-322 -13 c-6 -4 -32 -5 -60 -1 l-50 7 60
2 c34 0 55 -3 50 -8z m1478 -32 c21 -9 21 -9 -3 -4 -14 2 -46 5 -72 5 -29 0
-48 5 -48 11 0 13 85 5 123 -12z m-410 1 c94 0 77 -13 -21 -16 -86 -2 -112 2
-112 18 0 6 12 8 31 4 17 -3 63 -6 102 -6z m207 0 c-14 -4 -43 -8 -65 -8 l-40
1 45 7 c65 10 92 10 60 0z m293 -7 c-7 -2 -21 -2 -30 0 -10 3 -4 5 12 5 17 0
24 -2 18 -5z m194 -9 c-3 -3 -12 -4 -19 -1 -8 3 -5 6 6 6 11 1 17 -2 13 -5z
m-217 -22 c21 -5 -55 -7 -190 -4 -124 2 -228 7 -232 11 -11 10 380 3 422 -7z
m10055 -2 c4 -6 -6 -10 -22 -10 -22 0 -25 2 -13 10 19 12 27 12 35 0z m-9730
-10 c3 -5 1 -10 -4 -10 -6 0 -11 5 -11 10 0 6 2 10 4 10 3 0 8 -4 11 -10z m52
4 c-3 -3 -12 -4 -19 -1 -8 3 -5 6 6 6 11 1 17 -2 13 -5z m-182 -21 c-16 -3
-34 -8 -38 -13 -5 -4 -18 -5 -30 -2 -20 6 -19 7 8 13 17 4 44 6 60 6 l30 0
-30 -4z m8140 -13 c3 -5 1 -10 -4 -10 -6 0 -11 5 -11 10 0 6 2 10 4 10 3 0 8
-4 11 -10z m42 4 c-3 -3 -12 -4 -19 -1 -8 3 -5 6 6 6 11 1 17 -2 13 -5z
m-7417 -25 c0 -13 -13 -11 -35 5 -18 13 -18 14 8 9 15 -3 27 -9 27 -14z m-513
-5 c-3 -3 -12 -4 -19 -1 -8 3 -5 6 6 6 11 1 17 -2 13 -5z m841 -11 c-16 -2
-40 -2 -55 0 -16 2 -3 4 27 4 30 0 43 -2 28 -4z m-111 -9 c-3 -3 -12 -4 -19
-1 -8 3 -5 6 6 6 11 1 17 -2 13 -5z m-590 -10 c-3 -3 -12 -4 -19 -1 -8 3 -5 6
6 6 11 1 17 -2 13 -5z m506 -1 c-7 -2 -21 -2 -30 0 -10 3 -4 5 12 5 17 0 24
-2 18 -5z m190 0 c-18 -2 -48 -2 -65 0 -18 2 -4 4 32 4 36 0 50 -2 33 -4z
m100 0 c-7 -2 -21 -2 -30 0 -10 3 -4 5 12 5 17 0 24 -2 18 -5z m870 0 c-13 -2
-33 -2 -45 0 -13 2 -3 4 22 4 25 0 35 -2 23 -4z m5632 -3 c3 -5 1 -10 -4 -10
-6 0 -11 5 -11 10 0 6 2 10 4 10 3 0 8 -4 11 -10z m-7248 -6 c-3 -3 -12 -4
-19 -1 -8 3 -5 6 6 6 11 1 17 -2 13 -5z m1106 -1 c-7 -2 -19 -2 -25 0 -7 3 -2
5 12 5 14 0 19 -2 13 -5z m874 1 c-3 -3 -12 -4 -19 -1 -8 3 -5 6 6 6 11 1 17
-2 13 -5z m-1864 -11 c-7 -2 -19 -2 -25 0 -7 3 -2 5 12 5 14 0 19 -2 13 -5z
m1034 1 c-3 -3 -12 -4 -19 -1 -8 3 -5 6 6 6 11 1 17 -2 13 -5z m130 0 c-3 -3
-12 -4 -19 -1 -8 3 -5 6 6 6 11 1 17 -2 13 -5z m-1074 -11 c-7 -2 -21 -2 -30
0 -10 3 -4 5 12 5 17 0 24 -2 18 -5z m770 0 c-7 -2 -21 -2 -30 0 -10 3 -4 5
12 5 17 0 24 -2 18 -5z m460 0 c-7 -2 -21 -2 -30 0 -10 3 -4 5 12 5 17 0 24
-2 18 -5z m54 1 c-3 -3 -12 -4 -19 -1 -8 3 -5 6 6 6 11 1 17 -2 13 -5z m220 0
c-3 -3 -12 -4 -19 -1 -8 3 -5 6 6 6 11 1 17 -2 13 -5z m43 -4 c0 -5 -2 -10 -4
-10 -3 0 -8 5 -11 10 -3 6 -1 10 4 10 6 0 11 -4 11 -10z m4770 0 c-8 -5 -22
-9 -30 -9 -10 0 -8 3 5 9 27 12 43 12 25 0z m133 3 c-7 -2 -21 -2 -30 0 -10 3
-4 5 12 5 17 0 24 -2 18 -5z m220 0 c-7 -2 -19 -2 -25 0 -7 3 -2 5 12 5 14 0
19 -2 13 -5z m-5766 -9 c-3 -3 -12 -4 -19 -1 -8 3 -5 6 6 6 11 1 17 -2 13 -5z
m458 -4 c4 -6 -7 -10 -27 -9 -31 1 -32 1 -8 9 14 4 26 8 27 9 1 1 5 -3 8 -9z
m-132 -7 c-7 -2 -21 -2 -30 0 -10 3 -4 5 12 5 17 0 24 -2 18 -5z m2594 1 c-3
-3 -12 -4 -19 -1 -8 3 -5 6 6 6 11 1 17 -2 13 -5z m-2240 -18 c51 -1 93 -4 93
-8 0 -10 -130 -10 -222 -2 -37 4 -65 11 -62 15 3 5 26 6 52 2 26 -4 89 -7 139
-7z m2916 7 c-7 -2 -19 -2 -25 0 -7 3 -2 5 12 5 14 0 19 -2 13 -5z m234 1 c-3
-3 -12 -4 -19 -1 -8 3 -5 6 6 6 11 1 17 -2 13 -5z m148 -12 c-3 -3 -11 0 -18
7 -9 10 -8 11 6 5 10 -3 15 -9 12 -12z m-3618 2 c-3 -3 -12 -4 -19 -1 -8 3 -5
6 6 6 11 1 17 -2 13 -5z m73 -4 c0 -13 -20 -13 -40 0 -12 8 -9 10 13 10 15 0
27 -4 27 -10z m3217 4 c-3 -3 -12 -4 -19 -1 -8 3 -5 6 6 6 11 1 17 -2 13 -5z
m237 -3 c4 -5 -3 -7 -14 -4 -23 6 -26 13 -6 13 8 0 17 -4 20 -9z m153 3 c-3
-3 -12 -4 -19 -1 -8 3 -5 6 6 6 11 1 17 -2 13 -5z m-3570 -10 c-3 -3 -12 -4
-19 -1 -8 3 -5 6 6 6 11 1 17 -2 13 -5z m1376 -1 c-7 -2 -21 -2 -30 0 -10 3
-4 5 12 5 17 0 24 -2 18 -5z m304 1 c-3 -3 -12 -4 -19 -1 -8 3 -5 6 6 6 11 1
17 -2 13 -5z m1600 0 c-3 -3 -12 -4 -19 -1 -8 3 -5 6 6 6 11 1 17 -2 13 -5z
m66 -1 c-7 -2 -19 -2 -25 0 -7 3 -2 5 12 5 14 0 19 -2 13 -5z m1264 1 c-3 -3
-12 -4 -19 -1 -8 3 -5 6 6 6 11 1 17 -2 13 -5z m126 -1 c-7 -2 -19 -2 -25 0
-7 3 -2 5 12 5 14 0 19 -2 13 -5z m-2140 -10 c-7 -2 -19 -2 -25 0 -7 3 -2 5
12 5 14 0 19 -2 13 -5z m47 3 c0 -2 -7 -7 -16 -10 -8 -3 -12 -2 -9 4 6 10 25
14 25 6z m1067 -2 c-3 -3 -12 -4 -19 -1 -8 3 -5 6 6 6 11 1 17 -2 13 -5z m320
0 c-3 -3 -12 -4 -19 -1 -8 3 -5 6 6 6 11 1 17 -2 13 -5z m-2464 -11 c-7 -2
-19 -2 -25 0 -7 3 -2 5 12 5 14 0 19 -2 13 -5z m714 1 c-3 -3 -12 -4 -19 -1
-8 3 -5 6 6 6 11 1 17 -2 13 -5z m146 -1 c-7 -2 -19 -2 -25 0 -7 3 -2 5 12 5
14 0 19 -2 13 -5z m-490 -10 c-7 -2 -19 -2 -25 0 -7 3 -2 5 12 5 14 0 19 -2
13 -5z m95 0 c-10 -2 -26 -2 -35 0 -10 3 -2 5 17 5 19 0 27 -2 18 -5z m1340 2
c-3 -3 -18 -8 -34 -11 -22 -3 -25 -2 -14 6 15 10 58 14 48 5z m101 -11 c10 -9
-55 -3 -69 6 -10 6 -2 7 25 3 22 -3 42 -7 44 -9z m-1322 0 c-3 -3 -12 -4 -19
-1 -8 3 -5 6 6 6 11 1 17 -2 13 -5z m-8675 -132 c2 -28 0 -52 -4 -52 -5 0 -7
35 -7 78 2 78 6 69 11 -26z m25 -14 c-3 -8 -6 -5 -6 6 -1 11 2 17 5 13 3 -3 4
-12 1 -19z"/>
<path d="M15398 9428 c14 -14 336 -13 328 1 -3 5 -80 8 -170 8 -91 -1 -162 -5
-158 -9z"/>
<path d="M15775 9420 c27 -12 35 -12 35 0 0 6 -12 10 -27 9 -25 0 -26 -1 -8
-9z"/>
<path d="M16123 9423 c9 -2 23 -2 30 0 6 3 -1 5 -18 5 -16 0 -22 -2 -12 -5z"/>
<path d="M16220 9420 c-9 -6 -10 -10 -3 -10 6 0 15 5 18 10 8 12 4 12 -15 0z"/>
<path d="M16380 9420 c0 -5 5 -10 10 -10 6 0 10 5 10 10 0 6 -4 10 -10 10 -5
0 -10 -4 -10 -10z"/>
<path d="M15910 9410 c-9 -6 -10 -10 -3 -10 6 0 15 5 18 10 8 12 4 12 -15 0z"/>
<path d="M15244 9398 c-3 -4 4 -8 15 -8 11 0 22 4 26 9 3 6 -4 9 -16 8 -11 -1
-23 -5 -25 -9z"/>
<path d="M15310 9406 c0 -10 28 -13 41 -5 10 6 7 9 -13 9 -16 0 -28 -2 -28 -4z"/>
<path d="M15430 9399 c0 -5 5 -7 10 -4 6 3 10 8 10 11 0 2 -4 4 -10 4 -5 0
-10 -5 -10 -11z"/>
<path d="M15505 9401 c-3 -5 2 -11 10 -15 8 -3 17 -1 20 3 3 5 -2 11 -10 15
-8 3 -17 1 -20 -3z"/>
<path d="M15596 9401 c-13 -5 -16 -10 -8 -15 6 -4 20 -3 29 2 10 5 24 7 31 5
6 -3 12 0 12 6 0 12 -35 13 -64 2z"/>
<path d="M15759 9397 c5 -5 21 -7 37 -5 27 3 26 4 -8 9 -22 3 -34 1 -29 -4z"/>
<path d="M16067 9399 c-10 -6 -30 -8 -45 -5 -20 5 -23 4 -12 -4 21 -14 43 -12
66 5 22 17 17 19 -9 4z"/>
<path d="M15390 9390 c8 -5 20 -10 25 -10 6 0 3 5 -5 10 -8 5 -19 10 -25 10
-5 0 -3 -5 5 -10z"/>
<path d="M15695 9390 c11 -5 29 -9 40 -9 17 -1 17 1 5 9 -8 5 -26 9 -40 9 -23
0 -23 -1 -5 -9z"/>
<path d="M16407 9389 c8 -8 16 -8 30 0 16 9 14 10 -11 11 -22 0 -27 -3 -19
-11z"/>
<path d="M15888 9383 c7 -3 16 -2 19 1 4 3 -2 6 -13 5 -11 0 -14 -3 -6 -6z"/>
<path d="M6735 9364 c-24 -12 -25 -14 -5 -8 14 3 36 6 49 6 18 0 20 2 10 9
-17 11 -17 11 -54 -7z"/>
<path d="M6540 9360 c20 -13 33 -13 25 0 -3 6 -14 10 -23 10 -15 0 -15 -2 -2
-10z"/>
<path d="M6865 9360 c-18 -8 -17 -9 8 -9 15 -1 27 4 27 9 0 12 -8 12 -35 0z"/>
<path d="M15988 9363 c7 -3 16 -2 19 1 4 3 -2 6 -13 5 -11 0 -14 -3 -6 -6z"/>
<path d="M8008 9333 c7 -3 16 -2 19 1 4 3 -2 6 -13 5 -11 0 -14 -3 -6 -6z"/>
<path d="M7105 9310 l-100 -6 107 -2 c63 -1 109 2 113 8 3 6 0 9 -7 8 -7 -1
-58 -5 -113 -8z"/>
<path d="M15538 9303 c12 -2 32 -2 45 0 12 2 2 4 -23 4 -25 0 -35 -2 -22 -4z"/>
<path d="M3510 9170 c0 -5 5 -10 11 -10 5 0 7 5 4 10 -3 6 -8 10 -11 10 -2 0
-4 -4 -4 -10z"/>
<path d="M3585 9170 c-3 -5 -1 -10 4 -10 6 0 11 5 11 10 0 6 -2 10 -4 10 -3 0
-8 -4 -11 -10z"/>
<path d="M3648 9163 c12 -2 30 -2 40 0 9 3 -1 5 -23 4 -22 0 -30 -2 -17 -4z"/>
<path d="M4028 9133 c7 -3 16 -2 19 1 4 3 -2 6 -13 5 -11 0 -14 -3 -6 -6z"/>
<path d="M4058 9103 c7 -3 16 -2 19 1 4 3 -2 6 -13 5 -11 0 -14 -3 -6 -6z"/>
<path d="M5100 9040 c-20 -6 -21 -8 -5 -8 11 0 29 3 40 8 25 11 -1 11 -35 0z"/>
<path d="M5153 9023 c9 -2 23 -2 30 0 6 3 -1 5 -18 5 -16 0 -22 -2 -12 -5z"/>
<path d="M5810 9015 l-35 -13 52 -1 c28 -1 64 -6 79 -11 24 -9 25 -9 14 5 -7
8 -29 15 -49 15 -27 0 -32 3 -21 10 21 13 2 11 -40 -5z"/>
<path d="M5473 9013 c9 -2 25 -2 35 0 9 3 1 5 -18 5 -19 0 -27 -2 -17 -5z"/>
<path d="M5698 9013 c7 -3 16 -2 19 1 4 3 -2 6 -13 5 -11 0 -14 -3 -6 -6z"/>
<path d="M5275 9000 c-7 -12 2 -12 30 0 19 8 19 9 -2 9 -12 1 -25 -3 -28 -9z"/>
<path d="M5380 9000 l-45 -7 58 -1 c32 -1 57 2 57 8 0 11 -1 11 -70 0z"/>
<path d="M5645 8990 c3 -5 10 -10 16 -10 5 0 9 5 9 10 0 6 -7 10 -16 10 -8 0
-12 -4 -9 -10z"/>
<path d="M5548 8983 c6 -2 18 -2 25 0 6 3 1 5 -13 5 -14 0 -19 -2 -12 -5z"/>
<path d="M5703 8983 c15 -2 37 -2 50 0 12 2 0 4 -28 4 -27 0 -38 -2 -22 -4z"/>
<path d="M5515 8960 c-3 -6 1 -7 9 -4 18 7 21 14 7 14 -6 0 -13 -4 -16 -10z"/>
<path d="M5941 8966 c2 -2 24 -6 49 -9 30 -4 38 -3 25 3 -19 8 -83 14 -74 6z"/>
<path d="M16548 8963 c17 -2 47 -2 65 0 17 2 3 4 -33 4 -36 0 -50 -2 -32 -4z"/>
<path d="M5568 8953 c7 -3 16 -2 19 1 4 3 -2 6 -13 5 -11 0 -14 -3 -6 -6z"/>
<path d="M5665 8950 c-3 -6 5 -10 19 -10 14 0 28 5 31 10 3 6 -5 10 -19 10
-14 0 -28 -4 -31 -10z"/>
<path d="M5848 8953 c7 -3 16 -2 19 1 4 3 -2 6 -13 5 -11 0 -14 -3 -6 -6z"/>
<path d="M16363 8953 c9 -2 23 -2 30 0 6 3 -1 5 -18 5 -16 0 -22 -2 -12 -5z"/>
<path d="M15758 8933 c7 -3 16 -2 19 1 4 3 -2 6 -13 5 -11 0 -14 -3 -6 -6z"/>
<path d="M5773 8923 c9 -2 25 -2 35 0 9 3 1 5 -18 5 -19 0 -27 -2 -17 -5z"/>
<path d="M6488 8923 c6 -2 18 -2 25 0 6 3 1 5 -13 5 -14 0 -19 -2 -12 -5z"/>
<path d="M15520 8920 c0 -5 12 -10 28 -10 21 0 24 2 12 10 -20 13 -40 13 -40
0z"/>
<path d="M15928 8903 c7 -3 16 -2 19 1 4 3 -2 6 -13 5 -11 0 -14 -3 -6 -6z"/>
<path d="M7178 8893 c7 -3 16 -2 19 1 4 3 -2 6 -13 5 -11 0 -14 -3 -6 -6z"/>
<path d="M6918 8883 c7 -3 16 -2 19 1 4 3 -2 6 -13 5 -11 0 -14 -3 -6 -6z"/>
<path d="M15185 8880 c3 -5 8 -10 11 -10 2 0 4 5 4 10 0 6 -5 10 -11 10 -5 0
-7 -4 -4 -10z"/>
<path d="M7147 8873 c18 -2 50 -2 70 0 21 2 7 4 -32 4 -38 0 -55 -2 -38 -4z"/>
<path d="M14978 8873 c12 -2 32 -2 45 0 12 2 2 4 -23 4 -25 0 -35 -2 -22 -4z"/>
<path d="M15128 8863 c7 -3 16 -2 19 1 4 3 -2 6 -13 5 -11 0 -14 -3 -6 -6z"/>
<path d="M7018 8843 c7 -3 16 -2 19 1 4 3 -2 6 -13 5 -11 0 -14 -3 -6 -6z"/>
<path d="M7218 8843 c7 -3 16 -2 19 1 4 3 -2 6 -13 5 -11 0 -14 -3 -6 -6z"/>
<path d="M7928 8843 c6 -2 18 -2 25 0 6 3 1 5 -13 5 -14 0 -19 -2 -12 -5z"/>
<path d="M7281 8836 c10 -9 79 -14 79 -5 0 5 -19 9 -42 9 -23 0 -39 -2 -37 -4z"/>
<path d="M7855 8820 c4 -6 11 -8 16 -5 14 9 11 15 -7 15 -8 0 -12 -5 -9 -10z"/>
<path d="M8315 8820 c-8 -13 3 -30 18 -30 8 0 7 3 -2 9 -7 5 -10 14 -7 20 4 6
5 11 2 11 -3 0 -8 -4 -11 -10z"/>
<path d="M14600 8820 c0 -5 5 -10 11 -10 5 0 7 5 4 10 -3 6 -8 10 -11 10 -2 0
-4 -4 -4 -10z"/>
<path d="M7468 8813 c6 -2 18 -2 25 0 6 3 1 5 -13 5 -14 0 -19 -2 -12 -5z"/>
<path d="M7018 8803 c7 -3 16 -2 19 1 4 3 -2 6 -13 5 -11 0 -14 -3 -6 -6z"/>
<path d="M8390 8790 c8 -5 22 -10 30 -10 13 0 13 1 0 10 -8 5 -22 10 -30 10
-13 0 -13 -1 0 -10z"/>
<path d="M14470 8790 c8 -5 20 -10 25 -10 6 0 3 5 -5 10 -8 5 -19 10 -25 10
-5 0 -3 -5 5 -10z"/>
<path d="M14188 8783 c6 -2 18 -2 25 0 6 3 1 5 -13 5 -14 0 -19 -2 -12 -5z"/>
<path d="M8478 8773 c7 -3 16 -2 19 1 4 3 -2 6 -13 5 -11 0 -14 -3 -6 -6z"/>
<path d="M13998 8763 c7 -3 16 -2 19 1 4 3 -2 6 -13 5 -11 0 -14 -3 -6 -6z"/>
<path d="M8478 8753 c6 -2 18 -2 25 0 6 3 1 5 -13 5 -14 0 -19 -2 -12 -5z"/>
<path d="M9600 8749 c0 -5 9 -9 20 -9 11 0 20 2 20 4 0 2 -9 6 -20 9 -11 3
-20 1 -20 -4z"/>
<path d="M9900 8749 c0 -5 23 -9 51 -9 27 0 48 -4 45 -9 -3 -4 7 -6 22 -3 l27
6 -30 7 c-55 13 -115 17 -115 8z"/>
<path d="M10420 8750 c20 -13 43 -13 35 0 -3 6 -16 10 -28 10 -18 0 -19 -2 -7
-10z"/>
<path d="M13813 8752 c-7 -4 6 -8 29 -9 44 -2 47 1 8 10 -14 3 -31 3 -37 -1z"/>
<path d="M9280 8739 c0 -5 5 -7 10 -4 6 3 10 8 10 11 0 2 -4 4 -10 4 -5 0 -10
-5 -10 -11z"/>
<path d="M10065 8740 c3 -5 8 -10 11 -10 2 0 4 5 4 10 0 6 -5 10 -11 10 -5 0
-7 -4 -4 -10z"/>
<path d="M10603 8743 c9 -2 23 -2 30 0 6 3 -1 5 -18 5 -16 0 -22 -2 -12 -5z"/>
<path d="M12010 8740 c8 -5 22 -10 30 -10 13 0 13 1 0 10 -8 5 -22 10 -30 10
-13 0 -13 -1 0 -10z"/>
<path d="M10317 8729 c7 -7 15 -10 18 -7 3 3 -2 9 -12 12 -14 6 -15 5 -6 -5z"/>
<path d="M11645 8730 c11 -5 29 -6 40 -4 39 9 217 -13 226 -27 6 -10 9 -11 9
-1 0 8 15 12 43 12 33 0 39 -3 27 -11 -12 -9 -12 -10 3 -5 10 3 26 6 34 6 43
0 -5 13 -84 22 -107 13 -326 19 -298 8z"/>
<path d="M12077 8733 c-13 -13 -7 -21 13 -16 11 3 17 9 14 14 -6 11 -18 12
-27 2z"/>
<path d="M12808 8733 c6 -2 18 -2 25 0 6 3 1 5 -13 5 -14 0 -19 -2 -12 -5z"/>
<path d="M13185 8730 c-12 -5 1 -6 35 -3 30 3 57 7 59 9 9 8 -75 2 -94 -6z"/>
<path d="M10398 8723 c6 -2 18 -2 25 0 6 3 1 5 -13 5 -14 0 -19 -2 -12 -5z"/>
<path d="M11466 8722 c-3 -6 7 -10 27 -11 17 -1 55 -3 82 -5 28 -2 55 -5 62
-5 6 -1 19 -8 27 -17 15 -14 16 -14 16 1 0 9 -12 18 -30 22 -17 3 -33 10 -36
14 -3 5 -15 9 -27 8 -21 0 -21 -1 -2 -10 16 -7 14 -8 -10 -4 -86 15 -103 17
-109 7z"/>
<path d="M13608 8723 c7 -3 16 -2 19 1 4 3 -2 6 -13 5 -11 0 -14 -3 -6 -6z"/>
<path d="M13843 8723 c9 -2 23 -2 30 0 6 3 -1 5 -18 5 -16 0 -22 -2 -12 -5z"/>
<path d="M9578 8713 c7 -3 16 -2 19 1 4 3 -2 6 -13 5 -11 0 -14 -3 -6 -6z"/>
<path d="M9618 8713 c6 -2 18 -2 25 0 6 3 1 5 -13 5 -14 0 -19 -2 -12 -5z"/>
<path d="M11718 8713 c7 -3 16 -2 19 1 4 3 -2 6 -13 5 -11 0 -14 -3 -6 -6z"/>
<path d="M12175 8700 c76 -27 82 -34 25 -27 -100 13 -185 19 -178 12 11 -12
201 -24 248 -15 25 4 47 5 50 0 3 -4 32 -10 65 -13 33 -3 69 -9 79 -13 15 -6
17 -4 11 7 -6 11 -5 12 6 2 7 -7 27 -12 44 -12 20 1 24 3 10 6 -11 3 -24 9
-29 14 -6 5 -43 9 -83 9 -40 0 -73 4 -73 9 0 5 -30 8 -66 8 -39 0 -68 4 -73
11 -3 6 -27 14 -51 17 -45 6 -44 6 15 -15z"/>
<path d="M12355 8710 c3 -5 16 -10 28 -10 18 0 19 2 7 10 -20 13 -43 13 -35 0z"/>
<path d="M13050 8707 c-25 -5 -39 -12 -32 -14 24 -9 12 -25 -15 -20 -16 3 -46
1 -68 -3 l-40 -8 50 -1 c28 0 72 -3 99 -6 33 -5 46 -3 41 4 -3 6 -15 11 -25
11 -33 0 -11 29 23 32 18 2 28 6 22 9 -5 3 -30 1 -55 -4z"/>
<path d="M10358 8703 c7 -3 16 -2 19 1 4 3 -2 6 -13 5 -11 0 -14 -3 -6 -6z"/>
<path d="M10428 8703 c7 -3 16 -2 19 1 4 3 -2 6 -13 5 -11 0 -14 -3 -6 -6z"/>
<path d="M11148 8703 c7 -3 16 -2 19 1 4 3 -2 6 -13 5 -11 0 -14 -3 -6 -6z"/>
<path d="M11388 8703 c6 -2 18 -2 25 0 6 3 1 5 -13 5 -14 0 -19 -2 -12 -5z"/>
<path d="M11768 8703 c7 -3 16 -2 19 1 4 3 -2 6 -13 5 -11 0 -14 -3 -6 -6z"/>
<path d="M12645 8699 c18 -5 33 -5 39 1 7 7 -4 10 -29 9 -40 -1 -40 -1 -10
-10z"/>
<path d="M12712 8704 c3 -3 64 -6 136 -7 72 -1 125 1 119 5 -14 9 -263 11
-255 2z"/>
<path d="M13370 8700 c8 -5 24 -10 34 -10 26 0 18 6 -19 14 -22 5 -26 4 -15
-4z"/>
<path d="M13798 8703 c7 -3 16 -2 19 1 4 3 -2 6 -13 5 -11 0 -14 -3 -6 -6z"/>
<path d="M11785 8690 l-30 -8 30 -1 c17 0 37 4 45 9 13 9 13 10 0 9 -8 -1 -28
-5 -45 -9z"/>
<path d="M12468 8693 c6 -2 18 -2 25 0 6 3 1 5 -13 5 -14 0 -19 -2 -12 -5z"/>
<path d="M13158 8693 c6 -2 18 -2 25 0 6 3 1 5 -13 5 -14 0 -19 -2 -12 -5z"/>
<path d="M9483 8683 c9 -2 23 -2 30 0 6 3 -1 5 -18 5 -16 0 -22 -2 -12 -5z"/>
<path d="M9728 8683 c7 -3 16 -2 19 1 4 3 -2 6 -13 5 -11 0 -14 -3 -6 -6z"/>
<path d="M10243 8683 c9 -2 25 -2 35 0 9 3 1 5 -18 5 -19 0 -27 -2 -17 -5z"/>
<path d="M10430 8686 c0 -2 14 -6 30 -8 17 -3 30 -1 30 4 0 4 -13 8 -30 8 -16
0 -30 -2 -30 -4z"/>
<path d="M11098 8683 c7 -3 16 -2 19 1 4 3 -2 6 -13 5 -11 0 -14 -3 -6 -6z"/>
<path d="M11328 8683 c6 -2 18 -2 25 0 6 3 1 5 -13 5 -14 0 -19 -2 -12 -5z"/>
<path d="M11395 8680 c-28 -7 -28 -8 -5 -9 14 0 32 4 40 9 17 11 8 11 -35 0z"/>
<path d="M11520 8678 c0 -11 32 -10 50 2 11 7 6 9 -17 7 -18 -1 -33 -5 -33 -9z"/>
<path d="M11735 8680 c3 -5 8 -10 11 -10 2 0 4 5 4 10 0 6 -5 10 -11 10 -5 0
-7 -4 -4 -10z"/>
<path d="M12518 8683 c6 -2 18 -2 25 0 6 3 1 5 -13 5 -14 0 -19 -2 -12 -5z"/>
<path d="M12554 8676 c-25 -27 13 -36 143 -34 114 2 118 3 36 5 -60 3 -93 8
-93 15 0 8 28 9 94 4 64 -4 97 -3 101 5 8 11 -171 8 -235 -5 -22 -4 -30 -3
-22 2 11 8 11 10 0 14 -7 3 -18 0 -24 -6z"/>
<path d="M13098 8683 c7 -3 16 -2 19 1 4 3 -2 6 -13 5 -11 0 -14 -3 -6 -6z"/>
<path d="M13493 8683 c9 -2 23 -2 30 0 6 3 -1 5 -18 5 -16 0 -22 -2 -12 -5z"/>
<path d="M10628 8673 c12 -2 30 -2 40 0 9 3 -1 5 -23 4 -22 0 -30 -2 -17 -4z"/>
<path d="M10728 8673 c7 -3 16 -2 19 1 4 3 -2 6 -13 5 -11 0 -14 -3 -6 -6z"/>
<path d="M10780 8669 c-19 -5 -14 -7 23 -8 26 -1 47 1 47 3 0 8 -46 12 -70 5z"/>
<path d="M11018 8673 c7 -3 16 -2 19 1 4 3 -2 6 -13 5 -11 0 -14 -3 -6 -6z"/>
<path d="M11603 8673 c9 -2 23 -2 30 0 6 3 -1 5 -18 5 -16 0 -22 -2 -12 -5z"/>
<path d="M11895 8671 c31 -9 102 -14 94 -7 -2 2 -31 6 -64 9 -39 4 -50 3 -30
-2z"/>
<path d="M13130 8670 c0 -5 5 -10 10 -10 6 0 10 5 10 10 0 6 -4 10 -10 10 -5
0 -10 -4 -10 -10z"/>
<path d="M13823 8673 c9 -2 23 -2 30 0 6 3 -1 5 -18 5 -16 0 -22 -2 -12 -5z"/>
<path d="M10880 8660 c25 -8 87 -13 79 -6 -2 2 -26 6 -54 9 -34 4 -42 3 -25
-3z"/>
<path d="M10118 8653 c7 -3 16 -2 19 1 4 3 -2 6 -13 5 -11 0 -14 -3 -6 -6z"/>
<path d="M10351 8656 c2 -2 20 -6 39 -10 25 -4 31 -3 20 4 -14 9 -69 15 -59 6z"/>
<path d="M11213 8653 c9 -2 23 -2 30 0 6 3 -1 5 -18 5 -16 0 -22 -2 -12 -5z"/>
<path d="M11323 8653 c9 -2 23 -2 30 0 6 3 -1 5 -18 5 -16 0 -22 -2 -12 -5z"/>
<path d="M11793 8653 c9 -2 25 -2 35 0 9 3 1 5 -18 5 -19 0 -27 -2 -17 -5z"/>
<path d="M12038 8653 c7 -3 16 -2 19 1 4 3 -2 6 -13 5 -11 0 -14 -3 -6 -6z"/>
<path d="M13245 8646 c17 -7 32 -11 35 -9 8 7 -24 23 -45 22 -15 0 -13 -3 10
-13z"/>
<path d="M13358 8653 c7 -3 16 -2 19 1 4 3 -2 6 -13 5 -11 0 -14 -3 -6 -6z"/>
<path d="M9838 8643 c7 -3 16 -2 19 1 4 3 -2 6 -13 5 -11 0 -14 -3 -6 -6z"/>
<path d="M10598 8643 c6 -2 18 -2 25 0 6 3 1 5 -13 5 -14 0 -19 -2 -12 -5z"/>
<path d="M12161 8646 c2 -2 33 -6 69 -9 38 -3 57 -1 45 3 -19 8 -123 14 -114
6z"/>
<path d="M13100 8646 c0 -2 7 -7 16 -10 8 -3 12 -2 9 4 -6 10 -25 14 -25 6z"/>
<path d="M13820 8646 c0 -2 7 -7 16 -10 8 -3 12 -2 9 4 -6 10 -25 14 -25 6z"/>
<path d="M12008 8633 c6 -2 18 -2 25 0 6 3 1 5 -13 5 -14 0 -19 -2 -12 -5z"/>
<path d="M12350 8636 c0 -2 13 -6 29 -8 17 -2 28 -1 25 4 -5 8 -54 12 -54 4z"/>
<path d="M11258 8623 c7 -3 16 -2 19 1 4 3 -2 6 -13 5 -11 0 -14 -3 -6 -6z"/>
<path d="M11793 8623 c9 -2 25 -2 35 0 9 3 1 5 -18 5 -19 0 -27 -2 -17 -5z"/>
<path d="M12073 8623 c9 -2 25 -2 35 0 9 3 1 5 -18 5 -19 0 -27 -2 -17 -5z"/>
<path d="M11520 8610 c0 -5 5 -10 11 -10 5 0 7 5 4 10 -3 6 -8 10 -11 10 -2 0
-4 -4 -4 -10z"/>
<path d="M12500 8616 c0 -2 7 -7 16 -10 8 -3 12 -2 9 4 -6 10 -25 14 -25 6z"/>
<path d="M12590 8610 c-12 -8 -10 -10 8 -10 13 0 20 4 17 10 -7 12 -6 12 -25
0z"/>
<path d="M10893 8603 c9 -2 23 -2 30 0 6 3 -1 5 -18 5 -16 0 -22 -2 -12 -5z"/>
<path d="M11133 8603 c9 -2 25 -2 35 0 9 3 1 5 -18 5 -19 0 -27 -2 -17 -5z"/>
<path d="M11628 8603 c6 -2 18 -2 25 0 6 3 1 5 -13 5 -14 0 -19 -2 -12 -5z"/>
<path d="M11708 8603 c7 -3 16 -2 19 1 4 3 -2 6 -13 5 -11 0 -14 -3 -6 -6z"/>
<path d="M12238 8603 c12 -2 32 -2 45 0 12 2 2 4 -23 4 -25 0 -35 -2 -22 -4z"/>
<path d="M12343 8603 c9 -2 23 -2 30 0 6 3 -1 5 -18 5 -16 0 -22 -2 -12 -5z"/>
<path d="M12409 8597 c5 -5 24 -7 42 -5 33 3 33 4 -8 8 -23 3 -39 2 -34 -3z"/>
<path d="M12760 8600 c0 -5 5 -10 10 -10 6 0 10 5 10 10 0 6 -4 10 -10 10 -5
0 -10 -4 -10 -10z"/>
<path d="M11018 8593 c7 -3 16 -2 19 1 4 3 -2 6 -13 5 -11 0 -14 -3 -6 -6z"/>
<path d="M12818 8593 c12 -2 32 -2 45 0 12 2 2 4 -23 4 -25 0 -35 -2 -22 -4z"/>
<path d="M12998 8593 c6 -2 18 -2 25 0 6 3 1 5 -13 5 -14 0 -19 -2 -12 -5z"/>
<path d="M12560 8581 c0 -6 -8 -11 -17 -12 -10 0 -13 -3 -6 -5 18 -8 49 11 34
20 -6 4 -11 2 -11 -3z"/>
<path d="M12305 8570 c-3 -5 -1 -10 4 -10 6 0 11 5 11 10 0 6 -2 10 -4 10 -3
0 -8 -4 -11 -10z"/>
<path d="M10518 8563 c17 -2 47 -2 65 0 17 2 3 4 -33 4 -36 0 -50 -2 -32 -4z"/>
<path d="M10768 8563 c6 -2 18 -2 25 0 6 3 1 5 -13 5 -14 0 -19 -2 -12 -5z"/>
<path d="M10898 8563 c18 -2 45 -2 60 0 15 2 0 4 -33 4 -33 0 -45 -2 -27 -4z"/>
<path d="M11003 8563 c9 -2 23 -2 30 0 6 3 -1 5 -18 5 -16 0 -22 -2 -12 -5z"/>
<path d="M11088 8563 c12 -2 30 -2 40 0 9 3 -1 5 -23 4 -22 0 -30 -2 -17 -4z"/>
<path d="M9998 8538 c6 -6 18 -8 28 -6 14 3 12 5 -9 10 -19 3 -25 2 -19 -4z"/>
<path d="M9578 8533 c7 -3 16 -2 19 1 4 3 -2 6 -13 5 -11 0 -14 -3 -6 -6z"/>
<path d="M9928 8533 c7 -3 16 -2 19 1 4 3 -2 6 -13 5 -11 0 -14 -3 -6 -6z"/>
<path d="M10258 8533 c7 -3 16 -2 19 1 4 3 -2 6 -13 5 -11 0 -14 -3 -6 -6z"/>
<path d="M10788 8533 c17 -2 47 -2 65 0 17 2 3 4 -33 4 -36 0 -50 -2 -32 -4z"/>
<path d="M10918 8533 c7 -3 16 -2 19 1 4 3 -2 6 -13 5 -11 0 -14 -3 -6 -6z"/>
<path d="M11138 8533 c12 -2 32 -2 45 0 12 2 2 4 -23 4 -25 0 -35 -2 -22 -4z"/>
<path d="M11768 8533 c18 -2 45 -2 60 0 15 2 0 4 -33 4 -33 0 -45 -2 -27 -4z"/>
<path d="M11878 8533 c6 -2 18 -2 25 0 6 3 1 5 -13 5 -14 0 -19 -2 -12 -5z"/>
<path d="M11938 8533 c12 -2 30 -2 40 0 9 3 -1 5 -23 4 -22 0 -30 -2 -17 -4z"/>
<path d="M12098 8533 c6 -2 18 -2 25 0 6 3 1 5 -13 5 -14 0 -19 -2 -12 -5z"/>
<path d="M12198 8533 c7 -3 16 -2 19 1 4 3 -2 6 -13 5 -11 0 -14 -3 -6 -6z"/>
<path d="M12483 8533 c15 -2 37 -2 50 0 12 2 0 4 -28 4 -27 0 -38 -2 -22 -4z"/>
<path d="M12608 8533 c29 -2 74 -2 100 0 26 2 2 3 -53 3 -55 0 -76 -1 -47 -3z"/>
<path d="M12813 8533 c9 -2 23 -2 30 0 6 3 -1 5 -18 5 -16 0 -22 -2 -12 -5z"/>
<path d="M12928 8533 c7 -3 16 -2 19 1 4 3 -2 6 -13 5 -11 0 -14 -3 -6 -6z"/>
<path d="M12988 8533 c6 -2 18 -2 25 0 6 3 1 5 -13 5 -14 0 -19 -2 -12 -5z"/>
<path d="M13073 8533 c9 -2 25 -2 35 0 9 3 1 5 -18 5 -19 0 -27 -2 -17 -5z"/>
<path d="M13148 8533 c12 -2 30 -2 40 0 9 3 -1 5 -23 4 -22 0 -30 -2 -17 -4z"/>
<path d="M17410 7383 c0 -330 10 -573 23 -573 5 0 7 13 4 29 -4 17 -9 205 -13
418 -4 213 -8 390 -10 392 -2 2 -4 -117 -4 -266z"/>
<path d="M2603 6850 c0 -47 2 -66 4 -42 2 23 2 61 0 85 -2 23 -4 4 -4 -43z"/>
<path d="M17433 6730 c0 -25 2 -35 4 -22 2 12 2 32 0 45 -2 12 -4 2 -4 -23z"/>
<path d="M2593 6645 c0 -44 2 -61 4 -37 2 23 2 59 0 80 -2 20 -4 1 -4 -43z"/>
<path d="M2583 6430 c0 -41 2 -58 4 -37 2 20 2 54 0 75 -2 20 -4 3 -4 -38z"/>
<path d="M17512 6280 c3 -22 0 -39 -8 -48 -8 -7 -15 -34 -15 -60 -5 -159 -4
-191 3 -230 9 -45 11 -332 3 -482 -2 -54 -1 -76 5 -60 5 16 6 -2 3 -50 -5 -80
3 -295 41 -1115 14 -286 32 -682 41 -880 8 -198 20 -448 25 -555 14 -287 20
-429 61 -1475 6 -159 15 -294 20 -300 5 -5 99 -11 214 -13 l205 -4 -2 2358
c-1 2227 -9 2946 -30 2804 -6 -39 -22 -754 -23 -1007 0 -50 -4 -95 -8 -100 -5
-4 -8 42 -7 102 3 141 3 144 -10 125 -7 -11 -10 4 -10 50 -2 161 -10 374 -15
378 -3 3 -5 -56 -5 -130 0 -163 -10 -279 -21 -233 -4 17 -6 -19 -6 -80 0 -78
2 -97 7 -65 4 25 6 -47 4 -160 -1 -113 1 -394 6 -624 7 -365 6 -422 -7 -442
-8 -13 -13 -31 -10 -41 4 -14 5 -13 6 5 2 45 17 21 17 -27 -1 -27 -4 -45 -7
-39 -13 20 -19 -45 -14 -130 3 -48 2 -125 -2 -172 -9 -97 -6 -170 7 -170 5 0
8 25 5 55 -2 31 0 66 5 78 6 16 9 5 9 -43 1 -36 3 -90 6 -120 3 -37 2 -45 -3
-25 l-8 30 -6 -40 c-5 -35 -2 -272 4 -285 1 -3 5 36 8 85 5 72 7 51 8 -102 2
-191 2 -192 -23 -220 -13 -15 -25 -22 -25 -15 0 7 -4 11 -9 8 -4 -3 -9 -36 -9
-73 -1 -37 -5 -101 -8 -140 -6 -63 -4 -73 10 -73 18 0 21 -17 6 -40 -6 -10
-10 -11 -10 -2 0 6 -4 12 -9 12 -5 0 -8 -29 -8 -65 1 -36 5 -65 9 -65 4 0 7
-11 6 -25 -1 -14 -6 -25 -10 -25 -11 0 -10 -117 1 -138 11 -21 2 -212 -10
-212 -5 0 -9 15 -9 33 -1 30 -1 31 -15 13 -14 -19 -15 -17 -15 20 0 22 -5 45
-10 50 -6 6 -13 35 -17 65 -3 30 -10 57 -15 60 -5 3 -4 25 2 50 6 24 14 117
17 206 5 148 4 165 -14 205 -15 31 -21 67 -22 127 -1 47 -6 92 -10 100 -5 9
-5 41 -1 71 7 50 5 202 -4 340 -4 44 -2 52 7 37 10 -15 14 -3 23 65 l11 83 3
-85 3 -85 8 100 c7 95 2 270 -8 289 -3 4 0 11 6 15 8 6 9 15 2 34 -6 15 -9 32
-6 39 8 27 14 212 5 188 -4 -14 -9 -61 -10 -105 -1 -48 -4 -72 -9 -61 -5 13
-7 0 -7 -34 1 -34 -3 -55 -11 -57 -9 -3 -13 -30 -13 -86 0 -46 -7 -100 -15
-122 -8 -22 -14 -57 -15 -77 0 -22 -5 -38 -11 -38 -15 0 -5 113 11 118 5 2 10
22 10 45 0 23 7 96 15 162 8 66 15 156 15 201 0 50 5 85 13 93 10 11 9 14 -1
18 -9 3 -10 9 -3 17 11 13 2 98 -9 91 -5 -3 -11 -31 -15 -62 -4 -32 -15 -74
-26 -93 l-19 -35 6 40 c8 51 12 70 26 125 13 57 22 188 12 177 -5 -4 -12 -34
-16 -65 -12 -101 -23 -137 -38 -137 -17 0 -49 141 -54 238 -4 69 -16 88 -17
26 0 -24 -4 -53 -8 -64 -4 -11 -6 18 -4 65 3 61 1 81 -6 70 -6 -8 -11 -45 -11
-82 0 -39 -4 -68 -10 -68 -6 0 -10 43 -10 108 0 59 -3 123 -6 142 -6 37 21 89
32 63 8 -20 26 -15 20 5 -3 9 -1 33 3 52 9 35 9 35 11 -15 2 -48 2 -48 10 -17
6 27 27 548 24 614 0 9 3 15 8 12 15 -10 7 81 -10 114 -15 28 -17 45 -9 115 8
79 2 156 -11 143 -3 -4 -7 -25 -8 -49 0 -23 -3 -71 -4 -107 l-3 -65 -9 80 c-5
44 -10 91 -12 105 -2 14 -4 27 -6 30 -8 14 -13 75 -14 168 0 56 -5 102 -9 102
-5 0 -7 10 -5 23 2 14 9 21 19 19 20 -3 29 35 29 126 0 54 -4 71 -25 98 -14
18 -25 39 -25 46 -1 7 -7 2 -14 -11 -10 -18 -15 -20 -19 -10 -3 8 -6 -4 -7
-26 -2 -40 -2 -40 -11 -10 -5 17 -6 38 -3 48 3 9 1 17 -5 17 -6 0 -11 -9 -11
-21 0 -11 -4 -17 -10 -14 -5 3 -10 30 -10 59 0 38 -5 58 -16 67 -15 13 -17 11
-12 -21z m15 -107 c-3 -10 -5 -4 -5 12 0 17 2 24 5 18 2 -7 2 -21 0 -30z m67
-119 c3 -8 2 -12 -4 -9 -6 3 -10 10 -10 16 0 14 7 11 14 -7z m-67 -66 c-2 -13
-4 -3 -4 22 0 25 2 35 4 23 2 -13 2 -33 0 -45z m80 10 c-3 -8 -6 -5 -6 6 -1
11 2 17 5 13 3 -3 4 -12 1 -19z m-13 -38 c7 -46 -2 -120 -15 -120 -5 0 -9 -7
-9 -16 0 -8 4 -13 9 -10 5 4 7 -4 3 -16 -3 -14 -2 -19 6 -14 7 4 12 2 12 -3 0
-6 -4 -11 -10 -11 -5 0 -10 -10 -10 -22 0 -19 -2 -20 -10 -8 -5 8 -10 13 -10
10 -4 -121 -12 -255 -16 -259 -3 -4 -4 89 -2 206 2 152 7 216 16 225 6 6 12
27 12 45 0 46 16 41 24 -7z m62 13 c-10 -10 -19 5 -10 18 6 11 8 11 12 0 2 -7
1 -15 -2 -18z m-129 -80 c-3 -10 -5 -4 -5 12 0 17 2 24 5 18 2 -7 2 -21 0 -30z
m0 -55 c-3 -7 -5 -2 -5 12 0 14 2 19 5 13 2 -7 2 -19 0 -25z m55 -280 c-10
-22 -11 -21 -11 12 -1 26 2 31 11 22 8 -8 8 -17 0 -34z m148 -252 c0 -30 -15
-42 -24 -20 -10 27 -7 44 9 44 9 0 15 -9 15 -24z m-123 -208 c-3 -8 -6 -5 -6
6 -1 11 2 17 5 13 3 -3 4 -12 1 -19z m80 -295 c-2 -21 -4 -6 -4 32 0 39 2 55
4 38 2 -18 2 -50 0 -70z m-30 -95 c-2 -13 -4 -3 -4 22 0 25 2 35 4 23 2 -13 2
-33 0 -45z m-50 -243 c4 -56 2 -68 -8 -58 -16 15 -21 43 -8 43 5 0 9 19 8 43
-1 36 -2 38 -9 17 -6 -18 -8 -7 -8 40 0 63 1 64 10 25 6 -22 12 -71 15 -110z
m-40 73 c-3 -7 -5 -2 -5 12 0 14 2 19 5 13 2 -7 2 -19 0 -25z m-20 -30 c-3 -8
-6 -5 -6 6 -1 11 2 17 5 13 3 -3 4 -12 1 -19z m10 -120 c-2 -13 -4 -3 -4 22 0
25 2 35 4 23 2 -13 2 -33 0 -45z m30 -115 c-3 -10 -5 -4 -5 12 0 17 2 24 5 18
2 -7 2 -21 0 -30z m219 -370 c-4 -36 -12 -74 -17 -82 -9 -14 -10 -14 -5 2 3 9
8 46 12 82 4 36 9 65 12 65 3 0 2 -30 -2 -67z m191 -115 c-3 -8 -6 -5 -6 6 -1
11 2 17 5 13 3 -3 4 -12 1 -19z m-226 -164 c-5 -35 -9 -46 -10 -28 -1 34 9 97
15 91 2 -2 0 -30 -5 -63z m66 -51 c-2 -16 -4 -3 -4 27 0 30 2 43 4 28 2 -16 2
-40 0 -55z m-11 -161 c-12 -11 -18 7 -10 30 l8 23 4 -23 c2 -13 1 -26 -2 -30z
m186 -757 c3 -79 2 -110 -3 -80 -7 51 -12 222 -5 214 2 -2 5 -62 8 -134z m8
-329 c0 -20 -4 -36 -10 -36 -5 0 -10 15 -10 34 0 19 -3 43 -7 53 -6 17 -6 17
10 1 10 -9 17 -32 17 -52z m-173 -298 c-3 -8 -6 -5 -6 6 -1 11 2 17 5 13 3 -3
4 -12 1 -19z"/>
<path d="M17550 5785 c0 -8 5 -15 10 -15 6 0 10 7 10 15 0 8 -4 15 -10 15 -5
0 -10 -7 -10 -15z"/>
<path d="M2573 6215 c0 -44 2 -61 4 -37 2 23 2 59 0 80 -2 20 -4 1 -4 -43z"/>
<path d="M17592 6235 c0 -16 2 -22 5 -12 2 9 2 23 0 30 -3 6 -5 -1 -5 -18z"/>
<path d="M18072 6240 c0 -14 2 -19 5 -12 2 6 2 18 0 25 -3 6 -5 1 -5 -13z"/>
<path d="M17466 6143 c-8 -50 -8 -128 0 -120 7 6 16 157 10 157 -2 0 -6 -17
-10 -37z"/>
<path d="M2562 5950 c0 -14 2 -19 5 -12 2 6 2 18 0 25 -3 6 -5 1 -5 -13z"/>
<path d="M2551 5724 c0 -11 3 -14 6 -6 3 7 2 16 -1 19 -3 4 -6 -2 -5 -13z"/>
<path d="M2543 5565 c0 -33 2 -45 4 -27 2 18 2 45 0 60 -2 15 -4 0 -4 -33z"/>
<path d="M17801 5524 c0 -11 3 -14 6 -6 3 7 2 16 -1 19 -3 4 -6 -2 -5 -13z"/>
<path d="M17791 5474 c0 -11 3 -14 6 -6 3 7 2 16 -1 19 -3 4 -6 -2 -5 -13z"/>
<path d="M17968 5456 c-7 -39 -4 -55 8 -44 3 3 4 23 2 44 l-3 39 -7 -39z"/>
<path d="M17771 5424 c0 -11 3 -14 6 -6 3 7 2 16 -1 19 -3 4 -6 -2 -5 -13z"/>
<path d="M16153 5310 c0 -30 2 -43 4 -27 2 15 2 39 0 55 -2 15 -4 2 -4 -28z"/>
<path d="M2523 5145 c0 -33 2 -45 4 -27 2 18 2 45 0 60 -2 15 -4 0 -4 -33z"/>
<path d="M2513 4945 c0 -38 2 -53 4 -32 2 20 2 52 0 70 -2 17 -4 1 -4 -38z"/>
<path d="M2504 4705 c0 -55 1 -76 3 -47 2 29 2 74 0 100 -2 26 -3 2 -3 -53z"/>
<path d="M2493 4485 c0 -44 2 -61 4 -37 2 23 2 59 0 80 -2 20 -4 1 -4 -43z"/>
<path d="M2483 4260 c0 -41 2 -58 4 -37 2 20 2 54 0 75 -2 20 -4 3 -4 -38z"/>
<path d="M17842 4215 c0 -16 2 -22 5 -12 2 9 2 23 0 30 -3 6 -5 -1 -5 -18z"/>
<path d="M17857 4150 c-3 -11 -2 -20 3 -20 4 0 10 9 13 20 3 11 2 20 -3 20 -4
0 -10 -9 -13 -20z"/>
<path d="M2473 4070 c0 -25 2 -35 4 -22 2 12 2 32 0 45 -2 12 -4 2 -4 -23z"/>
<path d="M17850 4065 c0 -8 5 -15 10 -15 6 0 10 7 10 15 0 8 -4 15 -10 15 -5
0 -10 -7 -10 -15z"/>
<path d="M17897 3976 c-4 -44 -5 -82 -2 -84 12 -12 16 11 13 84 l-3 79 -8 -79z"/>
<path d="M17932 3940 c0 -19 2 -27 5 -17 2 9 2 25 0 35 -3 9 -5 1 -5 -18z"/>
<path d="M17923 3830 c0 -36 2 -50 4 -32 2 17 2 47 0 65 -2 17 -4 3 -4 -33z"/>
<path d="M17892 3830 c0 -14 2 -19 5 -12 2 6 2 18 0 25 -3 6 -5 1 -5 -13z"/>
<path d="M17911 3744 c0 -11 3 -14 6 -6 3 7 2 16 -1 19 -3 4 -6 -2 -5 -13z"/>
<path d="M2451 3664 c0 -11 3 -14 6 -6 3 7 2 16 -1 19 -3 4 -6 -2 -5 -13z"/>
<path d="M17922 3570 c0 -19 2 -27 5 -17 2 9 2 25 0 35 -3 9 -5 1 -5 -18z"/>
<path d="M16238 3318 c-2 -29 0 -59 5 -65 7 -9 48 -13 146 -13 166 0 181 3
181 39 0 34 -10 45 -24 27 -11 -14 -51 -20 -113 -17 -26 1 -32 6 -38 31 -9 42
-24 47 -36 11 -9 -24 -13 -28 -24 -18 -7 7 -11 16 -8 21 3 4 -4 5 -17 1 -16
-5 -26 -1 -36 14 -23 33 -32 25 -36 -31z"/>
<path d="M17913 3295 c0 -22 2 -30 4 -17 2 12 2 30 0 40 -3 9 -5 -1 -4 -23z"/>
<path d="M3857 3274 c-4 -4 -7 -14 -7 -23 0 -11 3 -12 11 -4 6 6 10 16 7 23
-2 6 -7 8 -11 4z"/>
<path d="M17833 3170 c0 -47 2 -66 4 -42 2 23 2 61 0 85 -2 23 -4 4 -4 -43z"/>
<path d="M17855 3014 c-6 -137 -4 -178 9 -163 7 9 14 319 6 319 -4 0 -11 -70
-15 -156z"/>
<path d="M17913 3050 c0 -25 2 -35 4 -22 2 12 2 32 0 45 -2 12 -4 2 -4 -23z"/>
<path d="M17820 2921 c0 -6 5 -13 10 -16 6 -3 10 1 10 9 0 9 -4 16 -10 16 -5
0 -10 -4 -10 -9z"/>
<path d="M17897 2633 c-18 -35 -23 -103 -7 -103 6 0 10 18 10 39 0 22 5 41 11
43 6 2 9 15 7 28 -4 25 -4 25 -21 -7z"/>
<path d="M17906 2115 c4 -8 8 -15 10 -15 2 0 4 7 4 15 0 8 -4 15 -10 15 -5 0
-7 -7 -4 -15z"/>
<path d="M2225 1091 c-3 -5 2 -11 10 -15 8 -3 17 -1 20 3 3 5 -2 11 -10 15 -8
3 -17 1 -20 -3z"/>
</g>
</svg>
