<?xml version="1.0" standalone="no"?>
<!DOCTYPE svg PUBLIC "-//W3C//DTD SVG 20010904//EN"
 "http://www.w3.org/TR/2001/REC-SVG-20010904/DTD/svg10.dtd">
<svg version="1.0" xmlns="http://www.w3.org/2000/svg"
 width="1026.000000pt" height="243.000000pt" viewBox="0 0 1026.000000 243.000000"
 preserveAspectRatio="xMidYMid meet">

<g transform="translate(0.000000,243.000000) scale(0.100000,-0.100000)"
fill="#000000" stroke="none">
<path d="M7535 1610 c-106 -34 -158 -105 -158 -216 -1 -49 5 -70 26 -107 35
-60 83 -92 182 -122 90 -28 145 -58 145 -79 0 -24 -27 -44 -67 -50 -34 -6
-175 13 -214 28 -12 5 -21 -10 -42 -70 -15 -42 -24 -80 -22 -85 3 -5 36 -18
73 -30 95 -30 254 -30 334 0 64 25 119 78 138 136 7 20 10 65 8 100 -7 114
-76 182 -234 230 -108 33 -138 63 -98 96 22 18 117 15 189 -6 32 -9 61 -13 65
-8 4 4 18 39 30 77 26 78 26 76 -55 102 -83 26 -229 28 -300 4z"/>
<path d="M1160 1535 l0 -74 78 -3 77 -3 3 -292 2 -293 120 0 120 0 2 293 3
292 78 3 77 3 0 74 0 75 -280 0 -280 0 0 -75z"/>
<path d="M1830 1240 l0 -370 260 0 260 0 0 80 0 80 -130 0 -130 0 0 75 0 75
120 0 120 0 0 65 0 65 -120 0 -120 0 0 75 0 75 130 0 130 0 0 75 0 75 -260 0
-260 0 0 -370z"/>
<path d="M2480 1240 l0 -370 110 0 110 0 2 198 3 197 69 -128 68 -128 45 3 45
3 64 120 c35 66 67 121 71 122 4 2 7 -85 5 -192 l-3 -195 110 0 111 0 0 370 0
370 -110 0 -110 0 -87 -175 c-48 -96 -91 -174 -96 -172 -4 1 -48 79 -96 172
l-89 170 -111 3 -111 3 0 -371z"/>
<path d="M3570 1568 c-12 -45 -76 -279 -140 -508 -20 -74 -40 -147 -44 -162
l-6 -28 119 0 119 0 6 38 c4 20 12 54 17 75 l10 37 94 0 c61 0 96 -4 101 -12
4 -6 12 -39 18 -72 l11 -61 123 -3 c75 -2 122 1 122 7 0 6 -18 72 -40 148 -22
76 -69 237 -103 358 l-64 220 -166 3 -166 2 -11 -42z m219 -265 c17 -83 31
-154 31 -157 0 -9 -138 -7 -144 2 -7 12 66 324 75 315 4 -4 21 -76 38 -160z"/>
<path d="M4200 1240 l0 -370 95 0 95 0 0 190 c0 105 4 190 8 190 5 0 75 -85
156 -190 l147 -190 104 0 105 0 0 370 0 370 -95 0 -95 0 -2 -197 -3 -198 -125
169 c-188 255 -153 226 -281 226 l-109 0 0 -370z"/>
<path d="M5388 1553 c-9 -32 -37 -134 -63 -228 -26 -93 -62 -226 -81 -295 -19
-69 -37 -133 -40 -142 -5 -16 5 -18 114 -18 l119 0 12 58 c22 100 11 92 116
92 105 0 107 -1 119 -75 14 -80 4 -75 142 -75 69 0 123 3 120 8 -4 7 -159 537
-195 667 l-16 60 -166 3 -166 2 -15 -57z m221 -246 c17 -81 31 -152 31 -157 0
-12 -137 -14 -143 -2 -6 12 66 323 74 315 4 -5 21 -74 38 -156z"/>
<path d="M6030 1240 l0 -370 110 0 109 0 3 148 3 147 133 3 133 3 -3 62 -3 62
-133 3 -133 3 3 77 3 77 143 3 142 3 0 74 0 75 -255 0 -255 0 0 -370z"/>
<path d="M6747 1473 c-50 -183 -152 -552 -161 -580 -7 -23 -7 -23 113 -23
l120 0 12 58 c20 94 17 92 119 92 101 0 103 -2 115 -81 4 -25 10 -51 14 -58 5
-8 43 -11 128 -9 l120 3 -106 365 -107 365 -165 3 -165 2 -37 -137z m243 -162
c16 -79 30 -150 30 -158 0 -10 -18 -13 -69 -13 -39 0 -72 3 -74 8 -4 7 57 279
70 312 7 20 8 18 43 -149z"/>
<path d="M8050 1240 l0 -370 125 0 125 0 0 370 0 370 -125 0 -125 0 0 -370z"/>
<path d="M8567 1543 c-9 -38 -42 -158 -73 -268 -31 -110 -68 -246 -83 -302
l-28 -103 118 0 118 0 12 58 c20 95 17 92 124 92 105 0 95 8 115 -92 l11 -58
124 0 c95 0 123 3 120 13 -8 23 -157 541 -183 635 l-25 92 -167 0 -166 0 -17
-67z m228 -250 c14 -67 25 -129 25 -138 0 -12 -14 -15 -70 -15 -58 0 -70 3
-70 16 0 19 57 282 66 304 8 19 16 -8 49 -167z"/>
<path d="M6600 660 c0 -5 5 -10 11 -10 5 0 7 5 4 10 -3 6 -8 10 -11 10 -2 0
-4 -4 -4 -10z"/>
<path d="M5685 550 c-3 -6 1 -7 9 -4 18 7 21 14 7 14 -6 0 -13 -4 -16 -10z"/>
<path d="M3705 541 c-3 -5 -2 -12 3 -15 5 -3 9 1 9 9 0 17 -3 19 -12 6z"/>
<path d="M5681 404 c0 -11 3 -14 6 -6 3 7 2 16 -1 19 -3 4 -6 -2 -5 -13z"/>
</g>
</svg>
