<svg width="141" height="138" viewBox="0 0 141 138" fill="none" xmlns="http://www.w3.org/2000/svg">
<path d="M50.5739 123.4C49.9755 123.4 49.4017 123.167 48.9786 122.753C48.5556 122.339 48.3179 121.777 48.3179 121.192V16.8083C48.3179 16.2227 48.5556 15.6611 48.9786 15.247C49.4017 14.833 49.9755 14.6003 50.5739 14.6003C51.1722 14.6003 51.746 14.833 52.1691 15.247C52.5922 15.6611 52.8299 16.2227 52.8299 16.8083V121.192C52.8299 121.777 52.5922 122.339 52.1691 122.753C51.746 123.167 51.1722 123.4 50.5739 123.4Z" fill="#24285B"/>
<path d="M90.4262 123.4C89.8278 123.4 89.254 123.167 88.8309 122.753C88.4078 122.339 88.1702 121.777 88.1702 121.192V16.8083C88.1702 16.2227 88.4078 15.6611 88.8309 15.247C89.254 14.833 89.8278 14.6003 90.4262 14.6003C91.0245 14.6003 91.5983 14.833 92.0214 15.247C92.4445 15.6611 92.6822 16.2227 92.6822 16.8083V121.192C92.6822 121.777 92.4445 122.339 92.0214 122.753C91.5983 123.167 91.0245 123.4 90.4262 123.4Z" fill="#24285B"/>
<path d="M123.826 51.5954H17.1737C16.5754 51.5954 16.0016 51.3628 15.5785 50.9487C15.1554 50.5347 14.9177 49.973 14.9177 49.3874C14.9177 48.8018 15.1554 48.2402 15.5785 47.8261C16.0016 47.4121 16.5754 47.1794 17.1737 47.1794H123.826C124.424 47.1794 124.998 47.4121 125.421 47.8261C125.844 48.2402 126.082 48.8018 126.082 49.3874C126.082 49.973 125.844 50.5347 125.421 50.9487C124.998 51.3628 124.424 51.5954 123.826 51.5954Z" fill="#24285B"/>
<path d="M123.826 90.5997H17.1737C16.5754 90.5997 16.0016 90.3671 15.5785 89.953C15.1554 89.5389 14.9177 88.9773 14.9177 88.3917C14.9177 87.8061 15.1554 87.2445 15.5785 86.8304C16.0016 86.4163 16.5754 86.1837 17.1737 86.1837H123.826C124.424 86.1837 124.998 86.4163 125.421 86.8304C125.844 87.2445 126.082 87.8061 126.082 88.3917C126.082 88.9773 125.844 89.5389 125.421 89.953C124.998 90.3671 124.424 90.5997 123.826 90.5997Z" fill="#24285B"/>
<path d="M70.4999 77.6829C68.7229 77.6829 66.9859 77.1672 65.5084 76.201C64.0309 75.2347 62.8793 73.8614 62.1993 72.2546C61.5193 70.6479 61.3414 68.8798 61.688 67.1741C62.0347 65.4683 62.8904 63.9015 64.1469 62.6717C65.4034 61.4419 67.0043 60.6045 68.7471 60.2652C70.4899 59.9259 72.2964 60.1 73.9381 60.7655C75.5798 61.4311 76.983 62.5582 77.9703 64.0042C78.9575 65.4503 79.4844 67.1504 79.4844 68.8896C79.4822 71.221 78.5349 73.4564 76.8504 75.105C75.166 76.7536 72.8821 77.6807 70.4999 77.6829ZM70.4999 63.0908C69.3286 63.0908 68.1837 63.4307 67.2098 64.0676C66.2359 64.7045 65.4769 65.6097 65.0287 66.6688C64.5805 67.7278 64.4632 68.8932 64.6917 70.0175C64.9202 71.1418 65.4842 72.1746 66.3124 72.9852C67.1406 73.7958 68.1958 74.3478 69.3446 74.5714C70.4933 74.7951 71.6841 74.6803 72.7662 74.2416C73.8483 73.8029 74.7732 73.06 75.4239 72.1069C76.0746 71.1537 76.4219 70.0331 76.4219 68.8868C76.4219 67.3496 75.798 65.8754 74.6874 64.7884C73.5768 63.7014 72.0705 63.0908 70.4999 63.0908Z" fill="#FFD44D"/>
<path d="M65.2294 113.676C64.9272 113.675 64.632 113.586 64.381 113.421C64.13 113.256 63.9344 113.023 63.8187 112.749C63.703 112.476 63.6724 112.175 63.7307 111.885C63.7891 111.595 63.9337 111.328 64.1466 111.118L74.6905 100.798C74.831 100.651 75.0001 100.534 75.1879 100.453C75.3756 100.371 75.5782 100.328 75.7835 100.324C75.9888 100.321 76.1927 100.358 76.383 100.434C76.5733 100.509 76.7461 100.622 76.8912 100.764C77.0363 100.906 77.1507 101.075 77.2276 101.262C77.3045 101.448 77.3423 101.648 77.3388 101.849C77.3353 102.05 77.2905 102.248 77.2071 102.431C77.1237 102.615 77.0035 102.78 76.8535 102.918L66.3095 113.235C66.1687 113.375 66.0006 113.486 65.8151 113.562C65.6296 113.638 65.4305 113.677 65.2294 113.676Z" fill="#F0457D"/>
<path d="M75.7707 113.676C75.5697 113.677 75.3705 113.638 75.185 113.562C74.9995 113.486 74.8314 113.375 74.6906 113.235L64.1467 102.918C63.9967 102.78 63.8764 102.615 63.793 102.431C63.7097 102.248 63.6649 102.05 63.6614 101.849C63.6578 101.648 63.6956 101.448 63.7725 101.262C63.8494 101.075 63.9638 100.906 64.1089 100.764C64.254 100.622 64.4269 100.509 64.6172 100.434C64.8075 100.358 65.0113 100.321 65.2167 100.324C65.422 100.328 65.6245 100.371 65.8123 100.453C66 100.534 66.1692 100.651 66.3096 100.798L76.8536 111.118C77.0664 111.328 77.2111 111.595 77.2694 111.885C77.3277 112.175 77.2971 112.476 77.1814 112.749C77.0658 113.023 76.8701 113.256 76.6192 113.421C76.3682 113.586 76.073 113.675 75.7707 113.676Z" fill="#F0457D"/>
<path d="M105 75.6571C104.698 75.6561 104.403 75.5676 104.152 75.4029C103.901 75.2381 103.706 75.0044 103.59 74.7312C103.475 74.4581 103.445 74.1575 103.503 73.8675C103.562 73.5775 103.707 73.3109 103.92 73.1014L114.461 62.7817C114.601 62.6349 114.77 62.5172 114.958 62.4356C115.146 62.354 115.348 62.3102 115.553 62.3067C115.759 62.3033 115.963 62.3403 116.153 62.4156C116.343 62.4908 116.516 62.6028 116.662 62.7448C116.807 62.8868 116.922 63.056 116.999 63.2422C117.076 63.4285 117.114 63.628 117.111 63.8289C117.107 64.0299 117.063 64.2281 116.98 64.4119C116.897 64.5957 116.777 64.7612 116.627 64.8986L106.083 75.2183C105.941 75.3577 105.772 75.4682 105.586 75.5435C105.4 75.6188 105.201 75.6574 105 75.6571Z" fill="#F0457D"/>
<path d="M115.544 75.6571C115.343 75.6574 115.144 75.6188 114.958 75.5435C114.772 75.4682 114.603 75.3577 114.461 75.2183L103.92 64.8986C103.633 64.6179 103.472 64.2371 103.472 63.8401C103.472 63.4432 103.633 63.0624 103.92 62.7817C104.207 62.501 104.596 62.3433 105.001 62.3433C105.407 62.3433 105.796 62.501 106.083 62.7817L116.627 73.1013C116.84 73.3111 116.985 73.5779 117.044 73.8682C117.102 74.1584 117.072 74.4592 116.956 74.7325C116.84 75.0058 116.644 75.2394 116.393 75.404C116.142 75.5685 115.846 75.6566 115.544 75.6571Z" fill="#F0457D"/>
<path d="M25.38 75.5468C25.0773 75.5463 24.7816 75.458 24.5302 75.2931C24.2788 75.1282 24.0829 74.8941 23.9674 74.6204C23.8518 74.3466 23.8217 74.0455 23.8809 73.755C23.9401 73.4645 24.0859 73.1977 24.2999 72.9882L34.8411 62.6714C35.131 62.4054 35.5152 62.2601 35.9125 62.2663C36.3099 62.2725 36.6892 62.4296 36.9703 62.7044C37.2515 62.9792 37.4125 63.3502 37.4193 63.7391C37.4261 64.128 37.2782 64.5042 37.0069 64.7883L26.4572 75.1079C26.1718 75.3881 25.7843 75.546 25.38 75.5468Z" fill="#F0457D"/>
<path d="M35.9184 75.5467C35.7173 75.5471 35.5181 75.5085 35.3322 75.4332C35.1464 75.3578 34.9776 75.2473 34.8356 75.1079L24.2944 64.7883C24.1524 64.6493 24.0397 64.4842 23.9629 64.3026C23.886 64.121 23.8464 63.9264 23.8464 63.7298C23.8464 63.5332 23.886 63.3386 23.9629 63.157C24.0397 62.9754 24.1524 62.8103 24.2944 62.6713C24.4364 62.5323 24.605 62.4221 24.7906 62.3469C24.9761 62.2716 25.175 62.2329 25.3759 62.2329C25.5767 62.2329 25.7756 62.2716 25.9612 62.3469C26.1467 62.4221 26.3153 62.5323 26.4573 62.6713L37.0013 72.9882C37.2155 73.1978 37.3614 73.4649 37.4205 73.7556C37.4796 74.0464 37.4493 74.3477 37.3334 74.6216C37.2174 74.8955 37.0211 75.1296 36.7693 75.2942C36.5174 75.4589 36.2213 75.5468 35.9184 75.5467Z" fill="#F0457D"/>
<path d="M65.2295 36.5423C64.9266 36.5424 64.6305 36.4545 64.3786 36.2898C64.1268 36.1252 63.9305 35.8911 63.8146 35.6172C63.6987 35.3433 63.6683 35.042 63.7274 34.7512C63.7865 34.4605 63.9324 34.1934 64.1466 33.9838L74.6906 23.6669C74.8326 23.5279 75.0012 23.4177 75.1868 23.3425C75.3723 23.2672 75.5712 23.2285 75.7721 23.2285C75.9729 23.2285 76.1718 23.2672 76.3573 23.3425C76.5429 23.4177 76.7115 23.5279 76.8535 23.6669C76.9955 23.8059 77.1082 23.971 77.1851 24.1526C77.2619 24.3342 77.3015 24.5288 77.3015 24.7254C77.3015 24.922 77.2619 25.1166 77.1851 25.2982C77.1082 25.4798 76.9955 25.6449 76.8535 25.7839L66.3095 36.1035C66.1682 36.2431 66 36.3537 65.8145 36.4291C65.6291 36.5044 65.4303 36.5429 65.2295 36.5423Z" fill="#F0457D"/>
<path d="M75.7705 36.5423C75.5697 36.5429 75.3708 36.5044 75.1854 36.4291C75 36.3537 74.8317 36.2431 74.6904 36.1035L64.1464 25.7839C63.8596 25.5031 63.6985 25.1224 63.6985 24.7254C63.6985 24.3284 63.8596 23.9477 64.1464 23.6669C64.4333 23.3862 64.8223 23.2285 65.2279 23.2285C65.6335 23.2285 66.0226 23.3862 66.3094 23.6669L76.8534 33.9838C77.0676 34.1934 77.2134 34.4605 77.2725 34.7512C77.3316 35.042 77.3013 35.3433 77.1854 35.6172C77.0695 35.8911 76.8732 36.1252 76.6213 36.2898C76.3695 36.4545 76.0734 36.5424 75.7705 36.5423Z" fill="#F0457D"/>
<path d="M110.262 115.812C108.484 115.813 106.746 115.297 105.268 114.331C103.79 113.365 102.637 111.991 101.957 110.384C101.276 108.777 101.098 107.008 101.444 105.302C101.791 103.595 102.646 102.028 103.903 100.797C105.16 99.567 106.761 98.7289 108.505 98.3893C110.248 98.0497 112.055 98.2237 113.698 98.8894C115.34 99.5551 116.744 100.682 117.732 102.129C118.719 103.576 119.246 105.276 119.246 107.016C119.243 109.348 118.296 111.583 116.612 113.232C114.928 114.881 112.644 115.809 110.262 115.812ZM110.262 101.22C109.091 101.22 107.946 101.56 106.972 102.197C105.998 102.834 105.239 103.739 104.791 104.798C104.342 105.857 104.225 107.023 104.454 108.147C104.682 109.271 105.246 110.304 106.074 111.115C106.903 111.925 107.958 112.477 109.107 112.701C110.255 112.924 111.446 112.81 112.528 112.371C113.61 111.932 114.535 111.189 115.186 110.236C115.837 109.283 116.184 108.163 116.184 107.016C116.184 105.479 115.56 104.005 114.449 102.918C113.339 101.831 111.833 101.22 110.262 101.22Z" fill="#FFD44D"/>
<path d="M30.6479 115.812C28.8702 115.813 27.1323 115.297 25.654 114.331C24.1757 113.365 23.0233 111.991 22.3426 110.384C21.662 108.777 21.4836 107.008 21.8301 105.302C22.1765 103.595 23.0323 102.028 24.2891 100.797C25.5458 99.567 27.1472 98.7289 28.8907 98.3893C30.6341 98.0497 32.4413 98.2237 34.0837 98.8894C35.7261 99.5551 37.1299 100.682 38.1176 102.129C39.1052 103.576 39.6324 105.276 39.6324 107.016C39.6294 109.348 38.682 111.583 36.9978 113.232C35.3136 114.881 33.0301 115.809 30.6479 115.812ZM30.6479 101.22C29.4766 101.22 28.3317 101.56 27.3578 102.197C26.3839 102.834 25.6249 103.739 25.1767 104.798C24.7284 105.857 24.6112 107.023 24.8397 108.147C25.0682 109.271 25.6322 110.304 26.4604 111.115C27.2886 111.925 28.3438 112.477 29.4926 112.701C30.6413 112.924 31.832 112.81 32.9141 112.371C33.9962 111.932 34.9211 111.189 35.5718 110.236C36.2226 109.283 36.5699 108.163 36.5699 107.016C36.5699 105.479 35.946 104.005 34.8354 102.918C33.7248 101.831 32.2185 101.22 30.6479 101.22Z" fill="#FFD44D"/>
<path d="M110.313 38.6787C108.534 38.6814 106.795 38.1678 105.315 37.2028C103.836 36.2378 102.681 34.8648 101.999 33.2576C101.317 31.6504 101.137 29.8812 101.482 28.174C101.828 26.4667 102.683 24.8981 103.94 23.6667C105.196 22.4352 106.798 21.5963 108.542 21.2561C110.286 20.9159 112.094 21.0897 113.737 21.7555C115.38 22.4212 116.784 23.5491 117.772 24.9963C118.76 26.4434 119.287 28.1449 119.286 29.8853C119.284 32.2149 118.338 34.4485 116.656 36.0968C114.974 37.7451 112.693 38.6735 110.313 38.6787ZM110.313 24.0865C109.141 24.0865 107.997 24.4265 107.023 25.0633C106.049 25.7002 105.29 26.6054 104.842 27.6645C104.393 28.7236 104.276 29.889 104.505 31.0133C104.733 32.1376 105.297 33.1703 106.125 33.9809C106.953 34.7915 108.009 35.3435 109.157 35.5672C110.306 35.7908 111.497 35.676 112.579 35.2373C113.661 34.7987 114.586 34.0558 115.237 33.1026C115.887 32.1495 116.235 31.0289 116.235 29.8825C116.235 28.3453 115.611 26.8711 114.5 25.7841C113.39 24.6972 111.883 24.0865 110.313 24.0865Z" fill="#FFD44D"/>
<path d="M30.6872 38.6787C28.9094 38.6792 27.1714 38.1637 25.693 37.1974C24.2146 36.2311 23.0623 34.8573 22.3817 33.25C21.7011 31.6426 21.5229 29.8737 21.8696 28.1672C22.2163 26.4607 23.0723 24.8931 24.3294 23.6628C25.5864 22.4324 27.1881 21.5946 28.9317 21.2553C30.6754 20.916 32.4826 21.0904 34.125 21.7565C35.7673 22.4226 37.1709 23.5505 38.1582 24.9974C39.1456 26.4443 39.6723 28.1454 39.6717 29.8853C39.6695 32.2168 38.7222 34.4521 37.0377 36.1007C35.3533 37.7493 33.0693 38.6765 30.6872 38.6787ZM30.6872 24.0865C29.5159 24.0865 28.371 24.4265 27.3971 25.0634C26.4232 25.7002 25.6642 26.6054 25.216 27.6645C24.7677 28.7236 24.6505 29.889 24.879 31.0133C25.1075 32.1376 25.6715 33.1704 26.4997 33.9809C27.3279 34.7915 28.3831 35.3435 29.5319 35.5672C30.6806 35.7908 31.8713 35.676 32.9534 35.2374C34.0355 34.7987 34.9604 34.0558 35.6111 33.1026C36.2619 32.1495 36.6092 31.0289 36.6092 29.8825C36.6092 28.3454 35.9853 26.8711 34.8747 25.7842C33.7641 24.6972 32.2578 24.0865 30.6872 24.0865Z" fill="#FFD44D"/>
</svg>
