<?xml version="1.0" standalone="no"?>
<!DOCTYPE svg PUBLIC "-//W3C//DTD SVG 20010904//EN"
 "http://www.w3.org/TR/2001/REC-SVG-20010904/DTD/svg10.dtd">
<svg version="1.0" xmlns="http://www.w3.org/2000/svg"
 width="1280.000000pt" height="1179.000000pt" viewBox="0 0 1280.000000 1179.000000"
 preserveAspectRatio="xMidYMid meet">

<g transform="translate(0.000000,1179.000000) scale(0.100000,-0.100000)"
fill="#000000" stroke="none">
<path d="M2948 8938 c-28 -24 -10 -29 62 -17 69 11 80 15 80 30 0 16 -120 6
-142 -13z"/>
<path d="M2805 8922 c-16 -10 -46 -24 -65 -32 -48 -18 -74 -41 -59 -51 16 -10
41 0 33 13 -10 15 16 28 57 28 38 0 63 15 72 43 8 22 0 22 -38 -1z"/>
<path d="M2561 8790 c-22 -23 -41 -46 -41 -50 0 -5 -7 -13 -17 -18 -22 -13
-53 -116 -53 -180 0 -29 9 -81 21 -115 25 -75 84 -189 109 -212 17 -16 19 -15
36 21 10 21 18 56 19 78 0 23 5 44 10 48 6 4 -11 8 -36 8 -42 0 -48 3 -53 25
-4 14 -11 25 -16 25 -6 0 -10 7 -10 15 0 8 5 15 10 15 6 0 10 17 10 39 0 67
13 161 21 155 4 -2 11 11 15 31 3 19 9 35 13 35 4 0 13 16 21 35 8 19 19 35
26 35 35 0 21 35 -17 45 -22 5 -34 0 -68 -35z"/>
<path d="M2291 8128 c-19 -53 -25 -199 -12 -270 13 -62 76 -216 86 -206 3 2
-4 22 -14 44 -55 115 -73 246 -52 380 14 82 10 104 -8 52z"/>
<path d="M10190 7740 c0 -17 3 -18 25 -8 14 6 25 15 25 20 0 4 -11 8 -25 8
-18 0 -25 -5 -25 -20z"/>
<path d="M2173 7540 c3 -71 -10 -122 -36 -141 -11 -8 6 -101 32 -169 28 -74
81 -164 90 -154 10 11 51 172 51 197 0 10 -22 64 -50 120 -27 56 -54 125 -61
152 -19 79 -29 76 -26 -5z m27 -140 c0 -5 -4 -10 -10 -10 -5 0 -10 5 -10 10 0
6 5 10 10 10 6 0 10 -4 10 -10z m17 -40 c9 -13 9 -21 2 -26 -13 -7 -15 -5 -23
24 -9 27 5 29 21 2z"/>
<path d="M5828 7575 c-16 -79 -20 -92 -39 -118 -25 -35 -15 -51 11 -19 20 24
44 120 38 150 -3 11 -6 7 -10 -13z"/>
<path d="M9670 7524 c-14 -2 -234 -10 -490 -19 -256 -8 -499 -17 -540 -20 -41
-2 -325 -11 -630 -19 -305 -9 -604 -18 -665 -21 -60 -2 -254 -7 -430 -11 -176
-3 -417 -9 -535 -14 -118 -4 -343 -8 -500 -9 -157 -1 -306 -4 -332 -7 -45 -6
-46 -7 -37 -31 14 -36 -5 -53 -57 -53 -33 0 -44 -4 -44 -16 0 -13 11 -15 61
-13 77 3 81 -3 87 -131 3 -73 -1 -113 -16 -175 -11 -44 -19 -81 -19 -82 1 -1
53 3 116 8 116 9 159 19 83 19 -22 0 -43 4 -47 9 -8 13 52 19 255 26 306 9
452 18 439 25 -16 10 -1 33 17 26 8 -3 14 1 14 9 0 8 6 15 13 15 6 0 4 5 -6
11 -10 6 -25 8 -34 5 -8 -4 -22 -1 -29 5 -11 9 -12 15 -2 26 10 13 9 15 -7 11
-11 -2 -19 -11 -19 -20 1 -13 -14 -17 -80 -20 -44 -3 -88 -7 -96 -9 -9 -3 -16
4 -18 18 -3 18 2 22 30 26 26 3 23 4 -15 5 -39 2 -53 -3 -75 -23 -26 -24 -27
-24 -36 -6 -10 23 -42 33 -75 24 -17 -4 -22 -3 -17 5 4 7 23 12 42 12 21 0 33
4 29 10 -3 6 -22 10 -42 10 -26 0 -36 -5 -40 -20 -5 -19 -6 -19 -36 2 -26 18
-30 19 -24 5 5 -13 0 -20 -19 -27 -37 -14 -39 -12 -13 9 l24 20 -25 10 c-14 5
-19 10 -10 11 28 3 -35 18 -85 20 -27 1 -63 6 -80 11 -24 6 -19 7 25 6 37 -1
54 2 53 9 -1 7 7 14 17 17 11 3 20 0 20 -5 0 -7 4 -7 13 0 6 5 30 10 51 10 29
0 45 -7 64 -26 21 -23 23 -23 13 -5 -15 29 -14 33 8 33 11 0 22 6 25 13 4 9 7
9 12 0 3 -7 15 -9 32 -4 15 4 67 6 116 4 64 -2 94 1 105 10 21 18 209 12 241
-8 5 -3 11 -1 14 3 3 5 24 7 46 5 24 -2 40 0 40 7 0 14 43 13 59 -2 10 -10 15
-10 18 -2 3 8 47 12 134 13 71 1 135 4 142 6 7 2 59 6 117 10 58 3 155 10 215
15 61 5 177 10 258 11 81 1 150 6 153 11 6 9 69 10 362 8 93 0 161 3 158 8 -6
9 334 7 417 -3 29 -4 47 -2 47 5 0 7 6 7 18 -1 12 -8 25 -7 47 2 17 7 35 11
40 9 6 -1 71 -2 145 -1 246 4 334 4 387 0 30 -3 55 0 57 6 3 5 5 4 5 -2 1 -18
21 -16 21 2 0 8 7 15 15 15 8 0 15 -7 15 -15 0 -8 5 -15 10 -15 6 0 10 8 10
18 0 12 3 13 8 5 6 -10 17 -10 46 -2 21 6 45 7 54 3 10 -4 22 -8 27 -9 6 0 23
-5 38 -9 21 -6 25 -11 16 -17 -8 -4 -24 -6 -37 -2 -18 4 -21 2 -16 -11 4 -11
12 -15 23 -10 9 3 22 7 28 7 7 0 21 9 30 20 10 11 12 17 6 13 -8 -4 -13 -1
-13 9 0 14 9 16 53 15 73 -3 75 -3 79 22 3 20 4 21 20 5 22 -23 38 -21 38 3 0
25 16 26 29 1 6 -10 20 -21 32 -24 19 -5 20 -3 15 31 -4 20 -17 61 -29 89
l-22 53 -65 -2 c-36 0 -76 -2 -90 -4z m-1145 -184 c3 -5 1 -10 -4 -10 -6 0
-11 5 -11 10 0 6 2 10 4 10 3 0 8 -4 11 -10z m1062 4 c-3 -3 -12 -4 -19 -1 -8
3 -5 6 6 6 11 1 17 -2 13 -5z m-3900 -140 c-3 -3 -12 -4 -19 -1 -8 3 -5 6 6 6
11 1 17 -2 13 -5z m-70 -30 c-3 -3 -12 -4 -19 -1 -8 3 -5 6 6 6 11 1 17 -2 13
-5z m111 -41 c-21 -2 -55 -2 -75 0 -21 2 -4 4 37 4 41 0 58 -2 38 -4z m522
-103 c12 -8 10 -10 -10 -10 -14 0 -32 5 -40 10 -12 8 -10 10 10 10 14 0 32 -5
40 -10z m75 -7 c6 -17 7 -17 21 1 15 21 18 18 8 -8 -3 -9 -13 -16 -21 -16 -18
0 -44 25 -36 34 11 11 21 7 28 -11z m-697 -80 c-10 -2 -28 -2 -40 0 -13 2 -5
4 17 4 22 1 32 -1 23 -4z"/>
<path d="M5318 7348 c-15 -22 -21 -23 -119 -21 -57 1 -122 3 -143 5 -34 3 -42
-1 -55 -23 -24 -44 -11 -58 46 -47 79 16 282 21 298 8 11 -9 16 -7 25 10 13
25 7 51 -19 74 -17 16 -19 15 -33 -6z"/>
<path d="M9330 7299 c-22 -8 -21 -8 7 -4 24 3 36 -1 46 -15 8 -11 17 -17 20
-13 4 3 7 1 7 -5 0 -7 -4 -12 -10 -12 -5 0 -10 -7 -10 -15 0 -8 -4 -15 -9 -15
-6 0 -8 9 -6 20 3 15 -2 20 -16 20 -11 0 -18 -4 -15 -9 3 -5 -5 -11 -19 -13
-28 -6 -35 8 -7 15 9 2 -14 3 -53 1 -38 -2 -91 -3 -117 -4 -39 0 -49 -4 -59
-22 -9 -19 -9 -21 2 -10 18 17 40 15 33 -3 -4 -8 -17 -15 -31 -15 -20 0 -23
-4 -18 -21 5 -16 3 -20 -6 -17 -8 3 -14 11 -14 19 0 7 -7 15 -16 17 -11 2 -16
-3 -15 -15 1 -15 -8 -19 -53 -21 -50 -3 -53 -2 -41 14 13 14 12 16 -5 12 -11
-2 -19 -10 -17 -16 1 -7 -8 -12 -20 -12 -15 0 -19 -3 -11 -8 7 -4 -16 -9 -50
-9 -39 -2 -64 2 -69 10 -5 9 -11 7 -20 -6 -10 -13 -34 -20 -93 -26 -44 -5 -87
-4 -95 0 -10 6 -3 8 22 9 20 0 40 4 43 10 4 6 -43 9 -130 8 -75 -1 -138 -5
-141 -10 -6 -9 -3 -10 96 -9 52 0 69 -2 55 -9 -11 -5 -32 -9 -47 -9 -14 -1
-28 -6 -30 -12 -2 -7 -12 -7 -32 1 -16 6 -42 8 -58 5 -21 -5 -28 -3 -28 8 0 9
8 17 18 19 14 3 13 6 -7 17 -20 11 -26 11 -39 -3 -14 -14 -14 -16 2 -22 33
-13 -32 -34 -105 -34 -55 0 -71 -3 -76 -16 -5 -15 -8 -15 -17 -2 -12 16 -84
29 -88 16 -2 -4 -16 -9 -33 -11 -16 -2 -38 -7 -49 -12 -11 -5 -21 -4 -25 3 -5
9 -53 16 -88 13 -7 -1 -13 -9 -13 -18 0 -16 -1 -16 -12 0 -11 14 -22 16 -63
10 -46 -7 -48 -8 -20 -14 25 -5 20 -7 -25 -9 -112 -5 -375 -2 -427 5 -56 7
-68 1 -30 -15 17 -8 14 -8 -15 -4 -25 4 -38 2 -38 -5 0 -6 15 -11 34 -11 19 0
41 -3 50 -6 11 -4 16 -1 16 10 0 9 5 16 10 16 6 0 10 -4 10 -8 0 -5 32 -9 70
-10 42 0 68 3 65 9 -7 11 7 12 21 1 5 -4 81 -6 169 -3 88 4 152 9 142 13 -10
5 -15 12 -12 18 4 6 12 5 21 -5 19 -18 51 -20 57 -2 4 9 7 9 17 0 11 -10 16
-9 27 5 14 16 14 16 9 0 -7 -22 -20 -22 390 -3 367 16 759 32 1019 40 242 8
417 26 413 43 -3 16 15 42 31 43 9 0 -2 7 -23 15 -22 8 -44 10 -50 6 -6 -5
-22 -5 -36 -1 l-25 7 25 2 c23 1 23 2 5 9 -11 5 -28 4 -38 -1 -22 -11 -60 -1
-51 14 5 8 -7 9 -37 6 -24 -3 -39 -4 -32 -1 17 6 4 33 -16 34 -9 0 0 5 19 11
34 10 35 10 11 19 -17 7 -27 6 -32 -3 -7 -10 -12 -11 -29 0 -22 14 -34 14 -70
1z m-103 -95 c-3 -3 -12 -4 -19 -1 -8 3 -5 6 6 6 11 1 17 -2 13 -5z m435 -29
c0 -5 -5 -11 -11 -13 -6 -2 -11 4 -11 13 0 9 5 15 11 13 6 -2 11 -8 11 -13z
m-707 -35 c3 -5 -1 -10 -10 -10 -9 0 -13 5 -10 10 3 6 8 10 10 10 2 0 7 -4 10
-10z m-210 -40 c-3 -5 -10 -10 -16 -10 -5 0 -9 5 -9 10 0 6 7 10 16 10 8 0 12
-4 9 -10z"/>
<path d="M9480 7270 c0 -5 15 -10 33 -10 24 0 28 3 17 10 -20 13 -50 13 -50 0z"/>
<path d="M9550 7260 c-8 -16 -8 -20 4 -20 16 0 29 27 16 35 -5 3 -14 -4 -20
-15z"/>
<path d="M9585 7250 c-3 -5 -2 -10 4 -10 5 0 13 5 16 10 3 6 2 10 -4 10 -5 0
-13 -4 -16 -10z"/>
<path d="M8910 7230 c0 -10 13 -14 43 -11 9 1 17 -3 17 -9 0 -7 8 -5 22 4 12
9 32 13 44 10 12 -3 25 -1 28 5 5 8 -18 11 -73 11 -47 0 -81 -4 -81 -10z"/>
<path d="M4370 7220 c0 -13 30 -13 50 0 11 7 7 10 -17 10 -18 0 -33 -4 -33
-10z"/>
<path d="M8525 7220 c-3 -5 -1 -10 4 -10 6 0 11 5 11 10 0 6 -2 10 -4 10 -3 0
-8 -4 -11 -10z"/>
<path d="M8627 7223 c-4 -3 -7 -13 -7 -22 1 -13 3 -13 11 2 11 19 8 33 -4 20z"/>
<path d="M8738 7223 c7 -3 16 -2 19 1 4 3 -2 6 -13 5 -11 0 -14 -3 -6 -6z"/>
<path d="M8283 7203 c9 -2 23 -2 30 0 6 3 -1 5 -18 5 -16 0 -22 -2 -12 -5z"/>
<path d="M8810 7206 c0 -10 28 -13 41 -5 10 6 7 9 -13 9 -16 0 -28 -2 -28 -4z"/>
<path d="M8068 7193 c6 -2 18 -2 25 0 6 3 1 5 -13 5 -14 0 -19 -2 -12 -5z"/>
<path d="M8660 7189 c-11 -7 -1 -9 37 -6 29 1 55 6 59 10 11 11 -79 8 -96 -4z"/>
<path d="M8450 7180 l-45 -7 45 -1 c25 -1 52 3 60 8 18 11 13 11 -60 0z"/>
<path d="M8540 7181 c0 -10 57 -8 67 3 3 3 -10 6 -30 6 -20 0 -37 -4 -37 -9z"/>
<path d="M8978 7178 c9 -9 15 -9 24 0 9 9 7 12 -12 12 -19 0 -21 -3 -12 -12z"/>
<path d="M5810 7170 c0 -6 7 -10 15 -10 8 0 15 2 15 4 0 2 -7 6 -15 10 -8 3
-15 1 -15 -4z"/>
<path d="M8680 7150 c0 -5 5 -10 10 -10 6 0 10 5 10 10 0 6 -4 10 -10 10 -5 0
-10 -4 -10 -10z"/>
<path d="M6111 7136 c2 -2 26 -7 53 -10 33 -5 46 -4 41 3 -3 6 -27 11 -52 11
-26 0 -44 -2 -42 -4z"/>
<path d="M6225 7130 c-4 -6 11 -10 39 -10 25 0 48 5 51 10 4 6 -11 10 -39 10
-25 0 -48 -4 -51 -10z"/>
<path d="M6395 7130 c4 -6 11 -8 16 -5 14 9 11 15 -7 15 -8 0 -12 -5 -9 -10z"/>
<path d="M6443 7129 c14 -8 22 -8 30 0 8 8 3 11 -18 11 -26 -1 -28 -2 -12 -11z"/>
<path d="M8020 7124 c0 -10 7 -14 22 -12 32 5 35 28 4 28 -17 0 -26 -5 -26
-16z"/>
<path d="M8113 7133 c-48 -9 -20 -22 40 -19 80 5 77 4 77 16 0 10 -73 12 -117
3z"/>
<path d="M6048 7123 c12 -2 30 -2 40 0 9 3 -1 5 -23 4 -22 0 -30 -2 -17 -4z"/>
<path d="M6620 7110 c0 -5 5 -10 11 -10 5 0 7 5 4 10 -3 6 -8 10 -11 10 -2 0
-4 -4 -4 -10z"/>
<path d="M6887 7112 c-15 -2 -25 -8 -22 -13 8 -12 42 -11 50 2 9 14 5 15 -28
11z"/>
<path d="M7884 7109 c-7 -11 27 -11 45 0 9 6 5 9 -13 9 -15 0 -29 -4 -32 -9z"/>
<path d="M6202 7103 c-6 -2 -10 -9 -6 -14 3 -5 -9 -9 -27 -9 -23 0 -30 -3 -22
-11 12 -12 63 -2 63 13 0 5 16 8 34 7 19 -2 38 0 42 4 4 4 -4 7 -19 7 -14 0
-31 2 -39 4 -7 3 -19 2 -26 -1z"/>
<path d="M6550 7102 c0 -4 9 -8 20 -9 11 -1 20 2 20 8 0 5 -9 9 -20 9 -11 0
-20 -4 -20 -8z"/>
<path d="M7384 7094 c3 -9 6 -18 6 -20 0 -2 5 -4 10 -4 6 0 10 9 10 20 0 12
-7 20 -16 20 -11 0 -14 -5 -10 -16z"/>
<path d="M7625 7100 c-30 -8 -30 -8 8 -9 23 -1 36 3 32 9 -3 6 -7 9 -8 9 -1
-1 -15 -5 -32 -9z"/>
<path d="M6370 7090 c0 -5 5 -10 11 -10 5 0 7 5 4 10 -3 6 -8 10 -11 10 -2 0
-4 -4 -4 -10z"/>
<path d="M6730 7090 c0 -5 7 -7 15 -4 8 4 15 8 15 10 0 2 -7 4 -15 4 -8 0 -15
-4 -15 -10z"/>
<path d="M11047 7075 c-20 -14 -40 -25 -44 -26 -4 0 -28 -15 -53 -34 -25 -18
-76 -55 -115 -82 -38 -26 -71 -51 -73 -55 -2 -5 -9 -8 -14 -8 -6 0 -34 -17
-62 -38 -77 -56 -132 -95 -174 -119 -28 -17 -32 -23 -16 -23 11 0 24 4 30 8
21 20 84 53 84 45 0 -4 -12 -14 -27 -20 -16 -7 -40 -24 -55 -38 -15 -14 -30
-25 -33 -25 -4 0 -13 -7 -21 -15 -9 -9 -25 -13 -38 -9 -14 3 -31 -2 -47 -15
-19 -16 -20 -20 -8 -21 9 0 19 7 23 15 3 8 12 15 21 15 14 0 14 -3 -2 -24 -10
-13 -27 -27 -38 -32 -13 -6 -19 -17 -17 -33 2 -19 0 -21 -12 -12 -11 9 -21 4
-47 -24 -21 -23 -41 -34 -51 -31 -10 2 -18 -1 -18 -6 0 -6 -12 -22 -26 -35
-26 -24 -27 -24 -21 -3 l6 22 -25 -23 c-13 -12 -24 -32 -24 -43 -1 -21 -1 -21
-15 -2 -8 11 -15 16 -15 10 0 -5 -14 -17 -32 -27 -19 -11 -28 -21 -21 -25 7
-4 1 -14 -15 -26 -14 -11 -22 -14 -17 -6 5 8 3 11 -6 8 -9 -3 -13 -16 -11 -34
2 -23 1 -26 -8 -14 -8 13 -11 12 -16 -7 -4 -14 -19 -26 -40 -33 -18 -6 -47
-24 -63 -39 -17 -16 -44 -34 -61 -41 -16 -7 -30 -16 -30 -21 0 -4 -21 -18 -47
-31 -27 -12 -51 -24 -55 -26 -5 -2 -8 0 -8 5 0 4 19 18 41 31 22 13 39 26 36
28 -5 5 -117 -63 -117 -71 0 -2 18 -2 39 0 38 3 39 3 22 -14 -22 -22 -81 -44
-81 -30 0 5 9 9 20 9 11 0 20 5 20 10 0 15 -50 0 -71 -21 -16 -16 -16 -18 -1
-22 13 -3 9 -7 -12 -16 -17 -7 -44 -25 -60 -42 -17 -16 -33 -28 -36 -27 -3 2
-18 -7 -34 -19 -36 -29 -55 -30 -30 -2 19 22 19 22 -2 11 -29 -15 -29 -58 0
-66 11 -3 25 -1 30 4 7 7 4 10 -7 10 -15 0 -16 2 -5 14 7 7 19 11 25 9 7 -3
16 2 19 11 3 9 11 16 18 16 6 0 32 18 56 40 24 22 45 38 47 36 7 -6 -9 -36
-20 -36 -5 0 -19 -9 -31 -20 -98 -92 -120 -110 -126 -100 -4 6 -20 8 -38 5
-33 -6 -40 3 -20 23 26 26 -10 10 -38 -16 -31 -31 -187 -142 -198 -142 -4 0
-12 -5 -19 -11 -7 -5 -27 -19 -44 -29 -22 -13 -31 -24 -27 -35 4 -9 -1 -22
-12 -30 -31 -23 -39 -17 -14 10 38 41 7 28 -44 -17 -101 -92 -130 -114 -122
-94 7 19 6 19 -13 2 -11 -10 -18 -23 -14 -29 3 -5 1 -7 -5 -4 -16 11 -42 -3
-42 -23 0 -11 -4 -22 -10 -25 -5 -3 -10 -11 -10 -17 0 -7 6 -6 15 2 9 8 15 8
15 2 0 -6 -12 -20 -27 -32 -16 -12 -31 -29 -34 -38 -4 -13 -10 -8 -23 20 -27
57 -107 133 -177 168 -52 27 -71 31 -112 27 -27 -2 -56 -12 -65 -21 -16 -16
-15 -17 11 -7 43 17 107 13 155 -9 66 -30 145 -115 171 -184 24 -64 22 -86 -4
-37 -8 17 -23 31 -33 31 -15 0 -15 2 -2 10 9 6 10 10 3 10 -14 0 -27 -19 -28
-39 0 -23 -23 -24 -30 -2 -3 12 -11 21 -16 21 -14 0 -11 -30 5 -36 8 -3 16
-18 20 -34 3 -17 14 -37 25 -46 11 -10 17 -24 13 -32 -4 -12 1 -14 20 -10 21
4 24 1 20 -14 -5 -20 13 -25 21 -5 3 7 6 6 6 -5 1 -9 -8 -20 -19 -23 -11 -3
-20 -11 -20 -16 0 -5 -6 -9 -14 -9 -8 0 -16 -6 -19 -12 -2 -7 -7 1 -11 18 -4
18 -16 40 -28 50 -11 11 -24 29 -29 42 -8 20 -11 21 -29 10 -11 -7 -20 -16
-20 -20 0 -5 -8 -8 -18 -8 -10 0 -25 -12 -34 -27 -13 -22 -23 -28 -50 -27 -45
1 -52 -5 -33 -26 9 -10 14 -23 11 -28 -8 -13 20 -35 34 -27 5 3 10 -2 10 -14
0 -11 13 -29 29 -40 l28 -20 34 25 c18 13 39 22 46 20 7 -3 20 8 28 24 9 17
20 30 24 30 5 0 24 12 41 26 40 35 52 22 15 -16 -16 -16 -26 -33 -22 -36 4 -4
26 13 49 37 24 24 46 42 50 41 10 -3 109 119 103 128 -3 4 2 11 11 14 8 3 12
2 9 -4 -3 -6 -3 -10 2 -10 13 1 53 37 53 48 0 6 24 27 53 48 28 21 54 41 57
44 3 3 17 11 31 19 15 7 44 28 65 47 22 18 50 39 64 46 14 7 28 18 33 25 4 7
34 31 67 53 32 23 61 49 64 57 4 8 -16 -1 -44 -21 -28 -20 -52 -36 -55 -36 -3
0 -13 -8 -23 -17 -10 -10 -29 -25 -42 -33 -13 -8 -41 -30 -64 -48 -23 -17 -70
-52 -106 -76 -36 -24 -76 -56 -89 -70 -14 -14 -31 -26 -39 -26 -8 0 -12 -6 -9
-14 4 -10 1 -13 -9 -9 -8 3 -40 -13 -74 -36 -61 -43 -66 -43 -74 2 -3 15 -7
35 -10 45 -3 12 8 27 37 49 23 17 44 30 46 27 6 -6 -29 -38 -57 -53 -13 -7
-20 -16 -17 -22 4 -5 19 0 36 12 17 12 32 19 34 17 2 -2 -9 -12 -25 -23 -19
-13 -29 -27 -28 -42 l2 -22 47 27 c26 15 73 47 106 72 32 25 87 64 122 85 35
22 73 49 85 60 12 12 34 29 51 40 16 10 34 22 40 27 5 5 44 34 85 65 41 31
110 85 152 120 43 34 82 63 88 63 5 0 10 7 10 15 0 8 7 15 16 15 13 0 104 58
104 66 0 1 -7 10 -16 18 -8 9 -11 16 -5 16 5 0 14 -7 19 -16 7 -13 35 4 163
95 85 60 168 119 184 131 17 12 60 43 97 71 36 27 69 49 71 49 3 0 65 43 138
95 73 52 137 95 142 95 15 0 -14 -24 -139 -113 -67 -48 -128 -95 -135 -104
-14 -18 70 38 105 70 11 9 25 17 31 17 6 0 22 11 34 24 12 13 39 32 59 42 20
11 39 21 42 24 3 3 12 10 22 15 43 26 143 99 146 107 2 4 9 8 16 8 7 0 34 16
59 35 25 19 53 35 61 35 8 0 18 4 21 10 3 5 21 17 39 25 18 9 50 31 70 50 21
19 46 37 56 40 10 3 30 21 45 40 14 19 31 35 38 35 7 0 23 12 36 25 13 14 27
25 33 25 5 0 6 5 3 10 -3 6 -2 10 3 10 16 0 52 37 52 53 0 8 19 30 42 48 39
31 40 34 19 39 -27 6 -28 26 -1 22 21 -3 27 12 10 23 -6 4 -8 11 -5 16 4 5 1
9 -4 9 -6 0 -11 -4 -11 -9 0 -12 -63 -9 -72 3 -3 5 -14 2 -23 -8 -10 -9 -24
-15 -32 -12 -8 3 -19 6 -24 6 -5 0 -9 5 -9 10 0 6 6 10 14 10 8 0 18 5 21 11
13 20 -2 18 -38 -6z m3 -245 c0 -5 -5 -10 -11 -10 -5 0 -7 5 -4 10 3 6 8 10
11 10 2 0 4 -4 4 -10z m-370 -34 c0 -2 -8 -10 -17 -17 -16 -13 -17 -12 -4 4
13 16 21 21 21 13z m-225 -206 c-3 -5 -12 -10 -18 -10 -7 0 -6 4 3 10 19 12
23 12 15 0z m181 -57 c-10 -10 -19 5 -10 18 6 11 8 11 12 0 2 -7 1 -15 -2 -18z
m-687 -352 c-27 -23 -35 -25 -44 -11 -3 6 3 10 13 10 11 0 25 7 32 15 7 9 15
13 18 10 3 -2 -6 -13 -19 -24z m-99 -55 c-22 -22 -116 -61 -101 -42 7 8 25 18
41 21 16 3 34 13 41 21 6 8 16 14 22 14 7 0 5 -6 -3 -14z m-25 -56 c-3 -5 -12
-10 -18 -10 -7 0 -6 4 3 10 19 12 23 12 15 0z m-35 -18 c0 -13 -39 -32 -45
-22 -3 6 1 10 9 10 9 0 16 5 16 10 0 6 5 10 10 10 6 0 10 -3 10 -8z m-104 -58
c-4 -9 -9 -15 -11 -12 -3 3 -3 13 1 22 4 9 9 15 11 12 3 -3 3 -13 -1 -22z m34
11 c-7 -9 -15 -13 -19 -10 -3 3 1 10 9 15 21 14 24 12 10 -5z m-77 -35 c-5
-19 -23 -29 -23 -12 0 7 20 32 26 32 1 0 0 -9 -3 -20z m-43 -64 c0 -2 -7 -9
-15 -16 -13 -11 -14 -10 -9 4 5 14 24 23 24 12z m-50 -39 c0 -2 -14 -13 -31
-26 l-31 -23 17 26 c10 14 24 26 31 26 8 0 14 -1 14 -3z m50 -11 c0 -2 -25
-22 -55 -44 -54 -41 -76 -45 -33 -7 44 39 88 65 88 51z m-256 -51 c-4 -8 -9
-15 -13 -15 -3 0 -19 -11 -35 -25 -47 -40 -49 -29 -3 15 44 42 60 50 51 25z
m16 -19 c0 -2 -8 -10 -17 -17 -16 -13 -17 -12 -4 4 13 16 21 21 21 13z m70
-26 c0 -5 -5 -10 -11 -10 -5 0 -7 5 -4 10 3 6 8 10 11 10 2 0 4 -4 4 -10z m45
-10 c-3 -5 -10 -10 -16 -10 -5 0 -9 5 -9 10 0 6 7 10 16 10 8 0 12 -4 9 -10z
m-275 -44 c0 -2 -8 -10 -17 -17 -16 -13 -17 -12 -4 4 13 16 21 21 21 13z m-50
-39 c-18 -17 -98 -64 -87 -51 9 10 89 62 97 63 2 1 -2 -5 -10 -12z m-174 -125
c-18 -16 -18 -16 -6 6 6 13 14 21 18 18 3 -4 -2 -14 -12 -24z m-134 -174 c-7
-7 -12 -8 -12 -2 0 14 12 26 19 19 2 -3 -1 -11 -7 -17z m-112 -142 c0 -2 -7
-9 -15 -16 -13 -11 -14 -10 -9 4 5 14 24 23 24 12z m44 -77 c-3 -5 -10 -7 -15
-3 -5 3 -7 10 -3 15 3 5 10 7 15 3 5 -3 7 -10 3 -15z m-202 -24 c4 -20 3 -23
-8 -14 -16 13 -19 39 -5 39 5 0 11 -11 13 -25z"/>
<path d="M7055 7079 c55 -11 77 -11 70 1 -3 6 -30 9 -58 9 l-52 -1 40 -9z"/>
<path d="M7150 7080 c0 -5 6 -10 14 -10 8 0 18 5 21 10 3 6 -3 10 -14 10 -12
0 -21 -4 -21 -10z"/>
<path d="M7267 7078 c2 -5 18 -8 34 -8 17 0 28 4 24 10 -3 5 -19 8 -34 7 -16
-1 -27 -5 -24 -9z"/>
<path d="M9310 7075 l-115 -13 123 0 c68 0 126 -2 128 -5 3 -3 -27 -8 -65 -12
-39 -4 -71 -12 -71 -18 0 -10 266 -4 343 9 68 12 38 24 -59 23 -53 0 -98 2
-102 5 -3 3 5 6 17 6 12 0 19 4 16 10 -7 12 -63 11 -215 -5z"/>
<path d="M9573 7083 c9 -2 25 -2 35 0 9 3 1 5 -18 5 -19 0 -27 -2 -17 -5z"/>
<path d="M4830 7015 c-104 -159 -258 -244 -525 -289 -51 -9 -67 -14 -44 -15
55 -2 217 29 286 54 133 48 259 153 312 259 34 70 20 66 -29 -9z"/>
<path d="M7218 7073 c7 -3 16 -2 19 1 4 3 -2 6 -13 5 -11 0 -14 -3 -6 -6z"/>
<path d="M7423 7073 c12 -11 77 -14 77 -3 0 5 -19 10 -42 10 -23 0 -38 -3 -35
-7z"/>
<path d="M7538 7073 c7 -3 16 -2 19 1 4 3 -2 6 -13 5 -11 0 -14 -3 -6 -6z"/>
<path d="M6670 7060 c8 -5 20 -10 25 -10 6 0 3 5 -5 10 -8 5 -19 10 -25 10 -5
0 -3 -5 5 -10z"/>
<path d="M6920 7060 c0 -5 5 -10 11 -10 5 0 7 5 4 10 -3 6 -8 10 -11 10 -2 0
-4 -4 -4 -10z"/>
<path d="M7578 7063 c6 -2 18 -2 25 0 6 3 1 5 -13 5 -14 0 -19 -2 -12 -5z"/>
<path d="M11080 7060 c0 -5 5 -10 10 -10 6 0 10 5 10 10 0 6 -4 10 -10 10 -5
0 -10 -4 -10 -10z"/>
<path d="M10939 7043 c-13 -16 -12 -17 4 -4 9 7 17 15 17 17 0 8 -8 3 -21 -13z"/>
<path d="M6525 7043 c-11 -3 -24 -10 -30 -15 -7 -8 -4 -9 8 -4 10 3 30 6 43 6
13 0 24 5 24 10 0 10 -11 11 -45 3z"/>
<path d="M6970 7020 c0 -5 5 -10 11 -10 5 0 7 5 4 10 -3 6 -8 10 -11 10 -2 0
-4 -4 -4 -10z"/>
<path d="M6629 7016 c-2 -3 -46 -6 -97 -8 -50 -1 -92 -6 -92 -10 0 -5 41 -8
91 -8 67 0 94 4 105 15 9 8 11 15 6 15 -5 0 -11 -2 -13 -4z"/>
<path d="M6735 7010 c-3 -5 1 -10 10 -10 9 0 13 5 10 10 -3 6 -8 10 -10 10 -2
0 -7 -4 -10 -10z"/>
<path d="M7068 7013 c12 -2 30 -2 40 0 9 3 -1 5 -23 4 -22 0 -30 -2 -17 -4z"/>
<path d="M8098 7013 c6 -2 18 -2 25 0 6 3 1 5 -13 5 -14 0 -19 -2 -12 -5z"/>
<path d="M8198 7013 c6 -2 18 -2 25 0 6 3 1 5 -13 5 -14 0 -19 -2 -12 -5z"/>
<path d="M2948 6998 c26 -27 245 -146 362 -198 167 -74 201 -92 209 -111 6
-19 8 -19 29 4 l23 25 -27 21 c-14 11 -45 26 -68 32 -101 26 -303 111 -411
174 -86 50 -136 73 -117 53z"/>
<path d="M7873 7003 c15 -2 39 -2 55 0 15 2 2 4 -28 4 -30 0 -43 -2 -27 -4z"/>
<path d="M7993 7003 c15 -2 37 -2 50 0 12 2 0 4 -28 4 -27 0 -38 -2 -22 -4z"/>
<path d="M10811 6994 c0 -11 3 -14 6 -6 3 7 2 16 -1 19 -3 4 -6 -2 -5 -13z"/>
<path d="M10864 6996 c-10 -8 -17 -17 -14 -19 3 -3 14 1 24 9 11 7 17 16 15
19 -3 3 -14 -2 -25 -9z"/>
<path d="M7818 6993 c7 -3 16 -2 19 1 4 3 -2 6 -13 5 -11 0 -14 -3 -6 -6z"/>
<path d="M7228 6973 c12 -2 30 -2 40 0 9 3 -1 5 -23 4 -22 0 -30 -2 -17 -4z"/>
<path d="M10798 6944 c-16 -8 -28 -17 -28 -19 0 -11 19 -4 41 15 29 23 24 25
-13 4z"/>
<path d="M10740 6900 c-9 -6 -10 -10 -3 -10 6 0 15 5 18 10 8 12 4 12 -15 0z"/>
<path d="M3891 6871 c-18 -11 -5 -31 20 -31 21 0 22 1 13 24 -7 18 -13 19 -33
7z"/>
<path d="M3636 6739 c16 -17 62 -47 103 -67 66 -33 85 -37 160 -40 73 -3 91 0
120 18 41 26 36 36 -7 15 -52 -26 -101 -23 -170 13 -33 18 -70 32 -81 32 -18
0 -62 18 -123 51 -32 16 -32 10 -2 -22z"/>
<path d="M4430 6675 c-36 -7 -123 -17 -193 -21 -112 -6 -129 -9 -138 -26 -6
-11 -34 -30 -62 -42 -73 -32 -152 -33 -252 -2 -43 14 -81 23 -84 21 -2 -3 4
-7 13 -11 39 -15 44 -121 5 -131 -9 -3 -20 -17 -24 -31 -7 -29 -40 -65 -67
-75 -10 -3 -18 -13 -18 -21 0 -9 -14 -18 -35 -22 -28 -5 -35 -11 -35 -29 0
-12 7 -28 15 -35 19 -16 19 -49 1 -56 -8 -3 -17 -16 -20 -30 -4 -15 -14 -24
-26 -24 -15 0 -20 -7 -20 -30 0 -19 -7 -33 -19 -40 -19 -10 -26 -50 -9 -50 4
0 8 -7 8 -15 0 -12 -4 -13 -19 -6 -15 8 -20 7 -25 -5 -9 -25 -7 -64 4 -64 15
0 12 -31 -4 -44 -18 -14 -29 -92 -16 -116 6 -10 18 -21 28 -25 11 -3 24 -17
30 -30 11 -23 10 -25 -11 -20 -23 5 -77 -28 -65 -40 3 -4 22 -2 42 3 20 6 36
7 36 1 0 -4 32 -8 70 -8 39 1 68 5 64 10 -3 5 9 9 25 9 21 0 31 5 31 15 0 17
41 30 71 22 12 -3 27 2 37 12 17 18 43 27 110 38 32 5 41 16 22 28 -12 8 -13
35 -1 35 5 0 23 14 41 30 18 17 38 30 45 30 7 0 15 9 18 20 3 11 12 20 20 20
9 0 18 9 22 19 3 10 15 21 25 24 13 3 20 14 20 30 0 13 10 35 23 48 13 13 27
32 30 42 4 11 16 21 27 24 13 3 20 14 20 28 0 13 7 30 15 38 10 10 12 26 8 51
-4 25 -2 36 6 36 13 0 41 24 41 35 0 4 -7 13 -15 21 -13 13 -13 18 2 42 10 15
25 34 34 42 23 21 41 59 34 70 -3 5 5 21 19 35 13 13 28 34 31 46 13 39 56 83
108 110 20 11 37 22 37 24 0 6 0 6 -80 -10z m-480 -144 c0 -25 -47 -89 -85
-118 l-43 -31 14 26 c8 15 14 37 14 49 0 12 8 24 19 28 11 3 26 17 35 30 16
24 46 34 46 16z"/>
<path d="M10340 6591 c0 -5 -20 -21 -45 -36 -25 -14 -43 -30 -40 -36 9 -13 11
-12 50 22 19 17 35 27 35 23 0 -11 20 18 20 29 0 4 -4 7 -10 7 -5 0 -10 -4
-10 -9z"/>
<path d="M10211 6464 c0 -11 3 -14 6 -6 3 7 2 16 -1 19 -3 4 -6 -2 -5 -13z"/>
<path d="M10145 6450 c-16 -11 -45 -30 -62 -41 -18 -12 -33 -24 -33 -28 0 -4
-11 -14 -25 -21 -14 -7 -23 -15 -21 -17 5 -6 40 12 58 29 7 7 37 31 66 53 46
35 58 45 50 45 -2 0 -16 -9 -33 -20z"/>
<path d="M10095 6450 c-3 -6 1 -7 9 -4 18 7 21 14 7 14 -6 0 -13 -4 -16 -10z"/>
<path d="M4270 6340 c0 -5 5 -10 11 -10 5 0 7 5 4 10 -3 6 -8 10 -11 10 -2 0
-4 -4 -4 -10z"/>
<path d="M10040 6329 c0 -5 5 -7 10 -4 6 3 10 8 10 11 0 2 -4 4 -10 4 -5 0
-10 -5 -10 -11z"/>
<path d="M9911 6252 c-37 -25 -23 -33 19 -11 22 12 40 22 40 23 0 8 -42 -1
-59 -12z"/>
<path d="M9766 6175 c-11 -8 -15 -15 -9 -15 6 0 16 7 23 15 16 19 11 19 -14 0z"/>
<path d="M9800 6165 c-11 -13 -10 -14 4 -9 9 3 16 10 16 15 0 13 -6 11 -20 -6z"/>
<path d="M9710 6140 c-8 -5 -12 -12 -9 -15 4 -3 12 1 19 10 14 17 11 19 -10 5z"/>
<path d="M9564 6025 c-10 -8 -14 -15 -8 -15 6 0 17 7 24 15 16 19 9 19 -16 0z"/>
<path d="M9474 5958 l-29 -33 33 29 c30 28 37 36 29 36 -2 0 -16 -15 -33 -32z"/>
<path d="M9395 5960 c-3 -5 -2 -10 4 -10 5 0 13 5 16 10 3 6 2 10 -4 10 -5 0
-13 -4 -16 -10z"/>
<path d="M9360 5895 c-13 -14 -20 -25 -16 -25 4 0 19 11 34 25 15 14 22 25 16
25 -6 0 -21 -11 -34 -25z"/>
<path d="M9287 5835 c-20 -14 -37 -31 -37 -36 0 -6 -7 -8 -16 -5 -15 6 -84
-36 -92 -56 -2 -4 -8 -8 -14 -8 -5 0 -35 -20 -66 -44 -93 -72 -115 -93 -104
-100 6 -4 16 2 21 12 6 11 42 40 80 67 39 26 90 65 115 86 46 40 69 52 45 22
-19 -23 71 39 95 66 25 28 19 27 -27 -4z"/>
<path d="M6250 5695 c-175 -25 -359 -105 -451 -197 -107 -106 -149 -246 -120
-402 25 -134 141 -323 297 -481 519 -528 1600 -880 2276 -740 75 15 79 15 140
-7 46 -16 87 -22 151 -22 86 -1 90 0 114 28 22 26 23 30 9 38 -9 5 -16 15 -16
22 0 8 -6 19 -14 25 -20 17 2 95 42 150 43 59 68 137 51 157 -8 9 -12 39 -10
77 1 38 -2 57 -7 49 -14 -21 -34 11 -27 41 6 21 3 26 -17 29 -19 2 -24 10 -26
41 -3 36 -4 37 -46 37 -23 0 -47 5 -54 12 -17 17 -15 58 3 58 12 0 23 18 13
21 -2 0 -23 3 -48 6 -25 3 -47 9 -48 14 -2 5 -9 15 -15 22 -7 6 -13 31 -14 55
-1 24 -7 50 -14 58 -10 13 -10 17 0 24 16 10 18 63 2 68 -12 4 -15 32 -3 32 4
0 20 -12 35 -26 45 -42 44 -18 -1 26 -23 23 -50 40 -64 40 -15 0 -19 3 -11 8
17 11 -36 61 -147 140 -47 34 -97 70 -111 81 -249 190 -675 383 -1004 455 -44
10 -95 22 -114 28 -35 11 -105 21 -251 38 -117 13 -385 10 -500 -5z"/>
<path d="M8909 5673 c-13 -16 -12 -17 4 -4 16 13 21 21 13 21 -2 0 -10 -8 -17
-17z"/>
<path d="M8890 5625 c-7 -9 -10 -18 -7 -21 3 -3 10 4 17 15 13 25 8 27 -10 6z"/>
<path d="M8940 5630 c-8 -5 -12 -12 -9 -15 4 -3 12 1 19 10 14 17 11 19 -10 5z"/>
<path d="M3955 5598 c-176 -92 -349 -136 -564 -145 -150 -7 -149 -16 5 -35 81
-10 110 -9 197 6 56 9 111 21 122 25 11 5 38 14 60 20 66 20 107 43 170 95 97
80 97 79 10 34z"/>
<path d="M8890 5585 c-7 -9 -8 -15 -2 -15 5 0 12 7 16 15 3 8 4 15 2 15 -2 0
-9 -7 -16 -15z"/>
<path d="M8925 5569 c-4 -6 -5 -12 -2 -15 2 -3 7 2 10 11 7 17 1 20 -8 4z"/>
<path d="M8788 5523 c-27 -14 -48 -29 -48 -34 0 -5 23 5 50 22 28 17 50 33 50
35 0 6 0 6 -52 -23z"/>
<path d="M3400 5530 c0 -5 7 -10 16 -10 8 0 12 5 9 10 -3 6 -10 10 -16 10 -5
0 -9 -4 -9 -10z"/>
<path d="M8783 5482 c-12 -9 -40 -28 -62 -41 -22 -14 -39 -27 -37 -29 6 -6 98
47 121 69 24 24 8 25 -22 1z"/>
<path d="M8695 5476 c-25 -26 -27 -40 -4 -21 13 11 25 21 27 21 2 1 0 4 -5 7
-4 3 -13 0 -18 -7z"/>
<path d="M8723 5404 c-18 -16 -21 -22 -8 -15 32 15 61 40 48 41 -7 0 -25 -12
-40 -26z"/>
<path d="M8724 5365 c-16 -12 -17 -14 -3 -15 9 0 19 7 23 15 7 19 5 19 -20 0z"/>
<path d="M5850 4632 c0 -5 7 -15 15 -22 8 -7 15 -9 15 -6 0 4 -7 14 -15 22 -8
9 -15 11 -15 6z"/>
<path d="M5896 4578 c4 -7 15 -22 25 -33 22 -25 39 -114 27 -146 -7 -17 -5
-26 6 -35 9 -6 16 -19 16 -28 0 -22 27 -21 33 2 3 11 5 8 6 -9 0 -15 8 -29 16
-33 22 -8 20 -74 -2 -78 -16 -3 -18 -18 -18 -136 -1 -120 1 -132 17 -132 11 0
18 -7 18 -19 0 -11 8 -22 18 -24 16 -4 16 -5 0 -6 -24 -1 -23 -17 2 -24 15 -4
20 -14 20 -36 0 -17 5 -31 12 -31 6 0 9 -3 5 -6 -3 -4 0 -13 8 -21 17 -17 20
-49 5 -58 -5 -3 -10 -1 -10 5 0 6 -5 8 -11 5 -18 -11 -59 4 -60 23 0 10 -3 12
-6 5 -6 -15 -30 1 -168 113 -111 90 -194 176 -257 265 -23 32 -44 59 -48 59
-3 0 -20 -59 -37 -131 l-32 -131 19 -37 c21 -41 91 -133 154 -200 50 -53 202
-182 245 -207 38 -22 38 -27 5 -42 -14 -7 -22 -17 -19 -23 5 -6 12 -3 21 8 13
16 14 16 8 1 -5 -15 0 -18 25 -18 17 0 31 5 31 10 0 6 18 1 40 -10 46 -23 48
-26 21 -26 -11 0 -17 5 -14 10 4 5 -1 7 -10 3 -9 -3 -19 -2 -22 3 -3 5 -15 0
-26 -11 -15 -15 -31 -19 -64 -18 -25 2 -47 0 -50 -3 -4 -3 -10 -28 -15 -55
l-8 -48 -2 45 c-1 41 -18 101 -19 73 -1 -7 -10 -13 -21 -13 -16 0 -20 -7 -20
-35 0 -19 -4 -35 -9 -35 -5 0 -12 -12 -14 -27 -2 -16 -5 0 -6 35 -1 74 -21 77
-21 4 0 -26 -4 -74 -10 -106 -11 -67 2 -275 19 -303 10 -17 10 -16 11 2 1 19
2 19 12 -2 6 -13 15 -23 20 -23 4 0 6 -11 2 -24 -4 -19 -1 -26 15 -31 16 -5
21 -15 21 -42 0 -30 2 -34 15 -23 12 10 15 9 15 -8 0 -13 11 -25 30 -34 19 -8
30 -20 30 -33 0 -11 9 -26 20 -33 11 -7 20 -18 20 -26 0 -8 12 -19 28 -25 57
-24 82 -43 82 -62 0 -10 6 -19 13 -19 7 0 18 -9 25 -21 8 -12 19 -18 28 -15 8
3 12 2 9 -4 -6 -9 29 -33 37 -25 2 2 4 -4 4 -14 0 -12 -5 -17 -15 -13 -9 3
-12 1 -7 -7 4 -6 16 -9 27 -6 13 4 19 2 19 -9 0 -9 5 -16 10 -16 6 0 24 -16
41 -35 17 -19 42 -38 55 -41 13 -4 28 -11 32 -18 4 -6 23 -17 42 -25 313 -122
518 -144 825 -89 74 13 194 53 258 85 49 24 106 78 107 100 0 7 9 18 19 25 10
6 17 17 14 25 -3 7 2 16 11 19 9 3 16 14 16 23 0 9 18 34 39 55 22 21 37 44
35 51 -3 7 6 21 19 32 16 12 27 34 32 61 4 23 13 45 20 49 28 16 67 85 61 109
-3 12 -2 26 4 29 5 3 10 15 10 26 0 10 5 19 10 19 6 0 10 5 10 10 0 6 9 19 20
30 12 12 18 25 15 30 -3 5 2 18 12 28 10 11 26 29 35 40 17 21 17 22 0 23 -14
0 -14 2 -2 6 23 9 29 24 23 54 -3 15 0 30 6 33 6 4 9 11 6 16 -3 5 7 18 22 31
18 14 24 23 15 26 -9 4 -7 12 7 31 13 20 18 40 16 74 -3 37 0 47 14 51 10 2
21 17 25 33 4 15 18 39 32 52 13 14 24 28 24 32 0 4 11 12 25 18 17 8 23 16
18 28 -6 16 -7 16 -15 -2 -6 -15 -7 -12 -5 11 2 25 7 31 30 33 24 3 28 0 23
-15 -3 -10 -8 -51 -12 -90 -5 -55 -3 -73 6 -73 14 0 97 77 195 180 38 41 93
98 121 127 l50 53 -35 5 c-20 3 -72 17 -115 31 -79 24 -80 24 -165 9 -47 -9
-98 -20 -113 -25 -32 -9 -381 -3 -503 10 -109 12 -216 32 -310 60 -38 11 -82
20 -97 20 -15 0 -29 4 -32 9 -3 5 -30 15 -58 21 -48 12 -154 47 -203 69 -11 5
-69 28 -130 51 -202 77 -401 181 -579 302 -76 52 -237 182 -275 222 -34 35
-59 49 -45 24z m161 -340 c-2 -13 -4 -5 -4 17 -1 22 1 32 4 23 2 -10 2 -28 0
-40z m1 -225 c-10 -2 -26 -2 -35 0 -10 3 -2 5 17 5 19 0 27 -2 18 -5z m2157
-323 c3 -5 1 -10 -4 -10 -6 0 -11 5 -11 10 0 6 2 10 4 10 3 0 8 -4 11 -10z
m-2120 -328 c-3 -3 -11 0 -18 7 -9 10 -8 11 6 5 10 -3 15 -9 12 -12z"/>
<path d="M5940 4190 c0 -16 5 -30 10 -30 6 0 10 14 10 30 0 17 -4 30 -10 30
-5 0 -10 -13 -10 -30z"/>
<path d="M5760 3510 c0 -5 5 -10 11 -10 5 0 7 5 4 10 -3 6 -8 10 -11 10 -2 0
-4 -4 -4 -10z"/>
<path d="M5643 3265 c0 -27 2 -38 4 -22 2 15 2 37 0 50 -2 12 -4 0 -4 -28z"/>
<path d="M5667 3173 c-4 -3 -7 -22 -7 -40 0 -20 -4 -32 -10 -28 -5 3 -10 -3
-10 -15 0 -12 5 -18 10 -15 6 3 10 -1 10 -9 0 -9 5 -16 10 -16 6 0 10 28 10
65 0 65 -1 71 -13 58z"/>
</g>
</svg>
